ply
format ascii 1.0
element vertex 338
property float x
property float y
property float z
property float nx
property float ny
property float nz
property uchar red
property uchar green
property uchar blue
end_header
-0.148838 0.067921 1.921321 -0.015756 -0.996866 -0.077522 24 13 9
-0.131425 0.067968 1.931733 0.072763 -0.993843 -0.083558 32 16 11
-0.153204 0.074733 1.862694 -0.296524 -0.935922 -0.190062 37 26 19
-0.143111 0.073823 1.844259 0.105002 -0.945863 -0.307111 42 27 19
-0.135709 0.074429 1.862980 0.193654 -0.953437 -0.231206 90 80 54
-0.126855 0.074209 1.861476 0.130761 -0.954180 -0.269152 102 82 52
-0.118924 0.074623 1.875589 0.201802 -0.955564 -0.214879 95 58 24
-0.110223 0.074554 1.877806 0.551624 -0.806404 -0.213126 75 44 22
-0.102851 0.075603 1.907749 0.606545 -0.764817 -0.217160 45 25 14
-0.094524 0.076032 1.922440 0.303221 -0.901262 -0.309489 25 20 17
-0.159497 0.082360 1.834279 -0.155582 -0.865609 -0.475936 51 33 20
-0.150631 0.082061 1.831129 -0.069691 -0.801054 -0.594521 85 78 61
-0.142137 0.081978 1.832706 0.283634 -0.740225 -0.609606 59 32 11
-0.133962 0.082119 1.839224 0.473231 -0.760549 -0.444542 58 43 27
-0.125739 0.082270 1.845985 0.232435 -0.797776 -0.556352 72 56 33
-0.117227 0.082244 1.848873 0.246360 -0.809826 -0.532437 94 63 28
-0.108717 0.082243 1.852310 0.566259 -0.747503 -0.347260 87 46 20
-0.101462 0.083436 1.882250 0.754501 -0.613589 -0.232887 85 59 28
-0.093392 0.084080 1.900111 0.365542 -0.846008 -0.388136 39 29 18
-0.084539 0.084017 1.902296 0.145842 -0.881960 -0.448193 21 17 14
-0.167128 0.090649 1.824353 -0.116354 -0.656196 -0.745566 77 61 36
-0.158443 0.090428 1.823033 -0.026233 -0.674026 -0.738241 70 59 38
-0.150015 0.090367 1.824885 0.108340 -0.586473 -0.802691 56 46 35
-0.141443 0.090219 1.824998 0.197562 -0.569569 -0.797847 63 41 26
-0.133125 0.090260 1.828892 0.491792 -0.600186 -0.630807 59 39 18
-0.125107 0.090569 1.838154 0.443069 -0.647221 -0.620318 50 32 20
-0.116670 0.090591 1.841713 0.239113 -0.660583 -0.711656 79 46 18
-0.108140 0.090558 1.844173 0.498307 -0.655865 -0.567037 98 68 31
-0.100698 0.091667 1.869534 0.800525 -0.551204 -0.235230 57 30 15
-0.092692 0.092405 1.887546 0.494416 -0.728694 -0.473876 88 59 25
-0.083852 0.092296 1.888572 0.140170 -0.795791 -0.589125 48 29 19
-0.075109 0.092343 1.892739 0.336197 -0.787429 -0.516649 40 27 20
-0.184686 0.099858 1.829930 -0.645316 -0.415151 -0.641262 35 24 18
-0.175116 0.099117 1.819340 -0.419701 -0.495118 -0.760730 23 15 13
-0.166485 0.098913 1.818446 -0.144553 -0.568524 -0.809867 74 41 19
-0.157765 0.098645 1.816364 0.010718 -0.523536 -0.851936 73 64 46
-0.149374 0.098598 1.818307 0.208303 -0.544719 -0.812337 68 55 42
-0.140988 0.098570 1.820585 0.285039 -0.440633 -0.851231 72 44 20
-0.132657 0.098603 1.823991 0.402600 -0.401760 -0.822497 67 36 14
-0.124475 0.098795 1.830294 0.439763 -0.585239 -0.681252 62 36 20
-0.116089 0.098850 1.834127 0.255123 -0.660554 -0.706102 76 47 20
-0.107585 0.098821 1.836435 0.323567 -0.660641 -0.677391 83 42 13
-0.099267 0.099027 1.843042 0.752899 -0.566814 -0.334462 88 50 18
-0.091929 0.100531 1.873490 0.674609 -0.603745 -0.424730 65 36 13
-0.083371 0.100731 1.880065 0.222952 -0.681515 -0.697015 20 16 14
-0.074562 0.100633 1.881183 0.337987 -0.671889 -0.659038 19 15 14
-0.065952 0.100920 1.889404 0.452974 -0.678335 -0.578512 25 17 14
-0.193331 0.108734 1.831624 -0.560376 -0.460085 -0.688694 22 17 14
-0.183975 0.108112 1.823871 -0.633852 -0.375874 -0.675981 24 19 15
-0.174483 0.107354 1.813830 -0.426766 -0.368223 -0.826004 22 15 13
-0.165859 0.107135 1.812724 -0.153736 -0.457577 -0.875779 24 16 14
-0.157326 0.106976 1.812624 0.046328 -0.505404 -0.861638 64 39 18
-0.148896 0.106895 1.813835 0.219037 -0.483293 -0.847615 74 54 35
-0.140561 0.106904 1.816540 0.363535 -0.467764 -0.805630 84 71 57
-0.132391 0.107081 1.822080 0.328829 -0.443694 -0.833671 66 58 41
-0.123939 0.107039 1.823961 0.265387 -0.549704 -0.792083 56 32 15
-0.115522 0.107052 1.826757 0.257177 -0.636038 -0.727540 57 25 9
-0.107061 0.107046 1.829247 0.284022 -0.626317 -0.725988 71 35 11
-0.098667 0.107149 1.833598 0.685107 -0.555866 -0.470788 59 28 10
-0.091474 0.108942 1.866450 0.790497 -0.490038 -0.367391 41 26 16
-0.082955 0.109185 1.873207 0.364941 -0.558938 -0.744585 21 17 16
-0.074209 0.109147 1.875240 0.301056 -0.561248 -0.770951 19 15 14
-0.065547 0.109317 1.880808 0.384511 -0.615807 -0.687702 25 18 15
-0.056789 0.109382 1.884608 0.376823 -0.673254 -0.636187 24 16 14
-0.048066 0.109660 1.892035 0.487316 -0.680772 -0.546875 41 25 17
-0.201814 0.117517 1.831611 -0.515471 -0.452252 -0.727845 52 28 12
-0.192586 0.116965 1.825504 -0.513377 -0.418185 -0.749377 64 42 20
-0.183475 0.116454 1.820008 -0.563158 -0.253873 -0.786385 62 36 18
-0.174190 0.115784 1.812042 -0.501968 -0.225737 -0.834908 75 41 15
-0.165294 0.115350 1.807705 -0.245631 -0.355318 -0.901895 59 40 22
-0.156732 0.115149 1.806964 -0.016480 -0.467056 -0.884074 22 14 13
-0.148362 0.115105 1.808632 0.224659 -0.536194 -0.813649 87 62 35
-0.140099 0.115170 1.812008 0.335099 -0.520930 -0.785074 84 73 52
-0.131838 0.115268 1.815901 0.278051 -0.570045 -0.773134 80 54 25
-0.123410 0.115232 1.817721 0.163384 -0.614581 -0.771748 68 45 20
-0.114963 0.115194 1.819510 0.251198 -0.621206 -0.742295 66 42 21
-0.106584 0.115259 1.822915 0.320429 -0.584027 -0.745814 64 30 8
-0.098187 0.115343 1.826625 0.515132 -0.581301 -0.629864 60 36 15
-0.090405 0.116383 1.845269 0.726067 -0.648245 -0.229358 34 24 17
-0.082593 0.117664 1.867723 0.522968 -0.675620 -0.519656 30 22 19
-0.073872 0.117636 1.869755 0.266202 -0.549752 -0.791776 64 43 21
-0.065201 0.117761 1.874195 0.322799 -0.587150 -0.742331 23 18 15
-0.056437 0.117752 1.876531 0.302314 -0.626084 -0.718766 25 16 14
-0.047712 0.117944 1.882037 0.456204 -0.656625 -0.600602 29 19 16
-0.210410 0.126373 1.832603 -0.523195 -0.457816 -0.718798 77 51 27
-0.201119 0.125773 1.826223 -0.458716 -0.333229 -0.823734 73 49 24
-0.191999 0.125250 1.820940 -0.446627 -0.227678 -0.865267 79 60 33
-0.183148 0.124888 1.817944 -0.521128 -0.215101 -0.825928 73 49 25
-0.173867 0.124175 1.809919 -0.522561 -0.209300 -0.826513 87 59 29
-0.165035 0.123766 1.806222 -0.326291 -0.227018 -0.917604 60 38 17
-0.156238 0.123356 1.802526 -0.138161 -0.235261 -0.962062 26 16 14
-0.147852 0.123289 1.803736 0.180818 -0.392946 -0.901609 28 15 14
-0.139556 0.123318 1.806349 0.293727 -0.490601 -0.820387 33 20 17
-0.131308 0.123422 1.810059 0.227151 -0.563391 -0.794351 58 38 18
-0.122863 0.123347 1.811178 0.156314 -0.581569 -0.798338 48 29 13
-0.114445 0.123318 1.812967 0.246070 -0.577043 -0.778763 44 27 13
-0.106118 0.123430 1.816799 0.374288 -0.568141 -0.732888 33 20 15
-0.097791 0.123593 1.821392 0.350347 -0.556212 -0.753582 24 17 14
-0.089382 0.123695 1.825101 0.494986 -0.700839 -0.513628 30 20 16
-0.081433 0.124675 1.841609 0.725502 -0.652235 -0.219628 30 21 16
-0.073534 0.126074 1.864241 0.449610 -0.607252 -0.655054 17 13 12
-0.064840 0.126106 1.867004 0.311570 -0.587159 -0.747107 18 14 12
-0.056135 0.126186 1.870468 0.237426 -0.586398 -0.774446 27 19 14
-0.047386 0.126225 1.873353 0.362794 -0.654700 -0.663136 19 15 14
-0.038674 0.126558 1.880534 0.525356 -0.673018 -0.520622 16 15 14
-0.209604 0.134550 1.826423 -0.271960 -0.306270 -0.912270 91 69 36
-0.200890 0.134309 1.825256 -0.316394 -0.159629 -0.935101 61 36 16
-0.191734 0.133732 1.819578 -0.459413 -0.099100 -0.882677 72 44 20
-0.182675 0.133190 1.814357 -0.581332 -0.164381 -0.796889 63 36 13
-0.173510 0.132522 1.807431 -0.489769 -0.224616 -0.842422 36 20 12
-0.164755 0.132152 1.804496 -0.307505 -0.232478 -0.922711 22 15 13
-0.156085 0.131834 1.802263 -0.166662 -0.214347 -0.962434 20 14 13
-0.147575 0.131652 1.801858 0.028540 -0.283386 -0.958581 30 22 16
-0.139168 0.131572 1.802825 0.150306 -0.403993 -0.902329 22 14 12
-0.130808 0.131555 1.804645 0.162069 -0.526982 -0.834280 69 46 21
-0.122376 0.131472 1.805581 0.161673 -0.561855 -0.811284 84 56 26
-0.114020 0.131500 1.808011 0.240330 -0.546961 -0.801920 70 45 21
-0.105664 0.131558 1.810866 0.349841 -0.559269 -0.751552 29 20 17
-0.097368 0.131751 1.815550 0.332173 -0.584501 -0.740283 20 14 12
-0.088940 0.131794 1.818223 0.259354 -0.626907 -0.734659 33 18 10
-0.080515 0.131894 1.821657 0.731932 -0.556820 -0.392718 43 25 14
-0.073160 0.134379 1.857601 0.662809 -0.524008 -0.534884 22 17 14
-0.064494 0.134423 1.860334 0.315866 -0.587036 -0.745397 19 15 14
-0.055848 0.134602 1.864925 0.221932 -0.590662 -0.775799 15 11 9
-0.047088 0.134525 1.866012 0.215183 -0.629279 -0.746796 12 11 10
-0.038353 0.134618 1.869445 0.495706 -0.637258 -0.590066 16 12 11
-0.029659 0.135247 1.880219 0.632974 -0.611279 -0.475060 20 15 12
-0.209184 0.142950 1.823749 -0.055765 -0.264068 -0.962891 86 72 48
-0.200594 0.142789 1.823649 -0.236755 -0.223432 -0.945529 67 57 39
-0.191668 0.142361 1.820197 -0.455838 -0.120823 -0.881824 71 56 33
-0.182401 0.141625 1.812844 -0.632063 -0.099480 -0.768505 64 36 14
-0.173088 0.140789 1.804211 -0.474437 -0.183902 -0.860866 77 47 19
-0.164347 0.140406 1.801278 -0.325070 -0.298277 -0.897419 73 45 18
-0.155711 0.140097 1.799289 -0.141978 -0.381947 -0.913213 62 44 26
-0.147195 0.139895 1.798640 -0.039937 -0.423925 -0.904816 18 13 10
-0.138756 0.139769 1.798967 0.041162 -0.456218 -0.888915 20 14 11
-0.130317 0.139648 1.799355 0.092652 -0.496734 -0.862943 50 28 11
-0.121897 0.139556 1.800108 0.122142 -0.520016 -0.845378 85 58 28
-0.113561 0.139589 1.802446 0.231788 -0.569114 -0.788913 77 46 18
-0.105215 0.139640 1.805027 0.320920 -0.562088 -0.762277 48 33 20
-0.096910 0.139798 1.808979 0.313588 -0.570646 -0.758964 42 27 14
-0.088517 0.139865 1.811773 0.274180 -0.540829 -0.795191 24 16 12
-0.080057 0.139850 1.813532 0.698318 -0.409313 -0.587209 56 38 19
-0.072769 0.142583 1.850446 0.730551 -0.483574 -0.482133 17 14 15
-0.064169 0.142729 1.854305 0.321096 -0.616082 -0.719264 23 18 15
-0.055540 0.142902 1.858530 0.229925 -0.618254 -0.751596 19 15 14
-0.046796 0.142776 1.858916 0.162062 -0.609339 -0.776171 16 13 13
-0.038091 0.142877 1.862227 0.409139 -0.616631 -0.672585 16 12 11
-0.029410 0.143411 1.871112 0.609518 -0.595997 -0.522758 20 16 13
-0.208758 0.151322 1.821015 -0.074246 -0.421670 -0.903704 81 56 26
-0.200096 0.151094 1.820123 -0.162383 -0.413670 -0.895828 85 61 32
-0.191339 0.150779 1.818195 -0.374590 -0.251615 -0.892397 79 63 37
-0.182227 0.150136 1.812366 -0.553703 -0.036059 -0.831933 58 49 39
-0.172957 0.149298 1.804192 -0.606290 0.005549 -0.795225 78 58 31
-0.163864 0.148558 1.797176 -0.381646 -0.216117 -0.898688 61 49 35
-0.155263 0.148258 1.795401 -0.206060 -0.315481 -0.926289 53 31 14
-0.146751 0.148037 1.794570 -0.084559 -0.406929 -0.909537 23 14 13
-0.138286 0.147863 1.794288 -0.004766 -0.460875 -0.887452 55 37 22
-0.129862 0.147737 1.794584 0.100172 -0.463084 -0.880635 56 44 30
-0.121519 0.147723 1.796221 0.080072 -0.448024 -0.890429 52 40 27
-0.113094 0.147615 1.796730 0.167405 -0.506084 -0.846082 45 31 19
-0.104758 0.147653 1.799007 0.346544 -0.515021 -0.784003 60 48 31
-0.096515 0.147892 1.803689 0.394729 -0.414776 -0.819848 64 46 27
-0.088119 0.147922 1.805874 0.380006 -0.347572 -0.857198 78 53 23
-0.079841 0.148250 1.811653 0.752633 -0.160376 -0.638610 52 37 22
-0.072348 0.150646 1.842378 0.748660 -0.432180 -0.502722 28 19 15
-0.063810 0.150884 1.847121 0.337297 -0.629159 -0.700279 32 23 18
-0.055199 0.151026 1.850705 0.281610 -0.632296 -0.721732 25 19 15
-0.046529 0.151066 1.853072 0.185705 -0.594122 -0.782644 15 12 13
-0.037841 0.151133 1.855773 0.306161 -0.598576 -0.740251 12 11 9
-0.029146 0.151351 1.860301 0.436341 -0.640155 -0.632304 18 14 13
-0.208015 0.159412 1.815388 -0.009205 -0.509737 -0.860281 49 27 11
-0.199500 0.159283 1.815654 -0.054455 -0.453256 -0.889716 60 32 13
-0.190915 0.159095 1.815249 -0.246328 -0.374211 -0.894029 84 70 43
-0.182067 0.158658 1.812041 -0.383352 -0.244102 -0.890761 78 59 33
-0.172999 0.157978 1.806092 -0.572861 0.017661 -0.819462 66 39 17
-0.163792 0.157097 1.797859 -0.560620 0.038133 -0.827195 68 40 16
-0.154875 0.156449 1.792246 -0.300001 -0.248076 -0.921118 38 22 12
-0.146344 0.156187 1.790988 -0.177792 -0.380789 -0.907408 25 15 11
-0.137836 0.155939 1.789884 -0.021333 -0.500848 -0.865272 44 24 16
-0.129477 0.155875 1.790850 0.151465 -0.451866 -0.879134 77 57 32
-0.121152 0.155871 1.792517 0.094832 -0.397429 -0.912720 80 63 36
-0.112702 0.155701 1.792296 0.119859 -0.388182 -0.913755 63 39 18
-0.104382 0.155746 1.794511 0.352013 -0.363656 -0.862462 85 65 36
-0.096179 0.156045 1.799619 0.576037 -0.209777 -0.790048 76 46 18
-0.087980 0.156450 1.805946 0.544773 -0.027345 -0.838138 69 42 17
-0.079709 0.156827 1.811968 0.805778 0.011495 -0.592107 54 31 14
-0.071998 0.158814 1.836354 0.734490 -0.405984 -0.543784 43 27 13
-0.063466 0.159011 1.840365 0.317710 -0.596304 -0.737212 24 18 14
-0.054881 0.159157 1.843797 0.325879 -0.619214 -0.714407 19 15 13
-0.046267 0.159318 1.847411 0.244290 -0.570618 -0.784039 18 14 12
-0.037592 0.159327 1.849290 0.234351 -0.570534 -0.787128 18 14 13
-0.028914 0.159464 1.852630 0.320238 -0.612475 -0.722718 15 11 10
-0.207379 0.167543 1.810737 0.044146 -0.415111 -0.908699 35 20 11
-0.198888 0.167419 1.811033 -0.043329 -0.454921 -0.889477 28 17 11
-0.190242 0.167152 1.809806 -0.185226 -0.456953 -0.869992 76 49 21
-0.181642 0.166920 1.808945 -0.276181 -0.392060 -0.877504 70 43 17
-0.172835 0.166466 1.805707 -0.384856 -0.267020 -0.883507 67 41 17
-0.163819 0.165753 1.799699 -0.578167 0.010323 -0.815853 65 40 20
-0.154673 0.164826 1.791375 -0.518214 -0.017581 -0.855070 15 11 12
-0.145873 0.164226 1.786555 -0.300103 -0.285550 -0.910164 18 13 10
-0.137346 0.163922 1.784902 -0.089062 -0.358912 -0.929112 30 21 14
-0.129023 0.163883 1.786082 0.182369 -0.484142 -0.855773 93 61 30
-0.120816 0.164032 1.789302 0.148439 -0.433931 -0.888634 52 28 13
-0.112374 0.163853 1.788989 0.188910 -0.310288 -0.931684 49 33 18
-0.104154 0.164059 1.792818 0.543873 -0.085727 -0.834777 74 49 21
-0.096097 0.164653 1.800849 0.624806 0.073560 -0.777307 48 28 13
-0.087856 0.165015 1.806383 0.590440 -0.011456 -0.807000 36 22 15
-0.079650 0.165587 1.814201 0.771340 -0.160319 -0.615900 21 15 13
-0.071616 0.166839 1.829387 0.726330 -0.437238 -0.530346 40 25 15
-0.063147 0.167158 1.834494 0.311139 -0.553098 -0.772836 16 12 10
-0.054553 0.167180 1.836403 0.307538 -0.577653 -0.756133 13 12 10
-0.045999 0.167489 1.841417 0.328493 -0.587225 -0.739770 15 11 10
-0.037363 0.167577 1.844057 0.216189 -0.555423 -0.802974 21 16 14
-0.028697 0.167626 1.846270 0.239588 -0.562950 -0.791002 14 11 12
-0.206868 0.175743 1.807214 0.081156 -0.218552 -0.972445 42 24 13
-0.198444 0.175669 1.807998 -0.098836 -0.308746 -0.945995 50 27 11
-0.189631 0.175220 1.804974 -0.277862 -0.391284 -0.877320 46 25 11
-0.180951 0.174880 1.803047 -0.172395 -0.394211 -0.902706 44 27 16
-0.172397 0.174656 1.802307 -0.296709 -0.338478 -0.892970 60 37 15
-0.163658 0.174214 1.799345 -0.353692 -0.096891 -0.930330 23 13 11
-0.154674 0.173441 1.793002 -0.572794 0.126369 -0.809900 18 14 14
-0.145747 0.172667 1.786630 -0.476321 0.067701 -0.876661 17 13 10
-0.136996 0.172051 1.781871 -0.202680 -0.099698 -0.974157 27 17 15
-0.128661 0.171982 1.782685 0.066976 -0.103203 -0.992403 14 11 10
-0.120333 0.171933 1.783712 0.319062 -0.312670 -0.894671 66 32 16
-0.112119 0.172098 1.786932 0.433915 -0.117600 -0.893246 77 51 26
-0.104113 0.172705 1.794688 0.641261 0.010757 -0.767248 61 27 8
-0.095974 0.173193 1.801226 0.538251 -0.118209 -0.834453 47 23 10
-0.087699 0.173510 1.806029 0.467446 -0.258581 -0.845358 37 22 14
-0.079394 0.173870 1.811287 0.633917 -0.316045 -0.705878 71 42 15
-0.071129 0.174490 1.819225 0.700349 -0.424631 -0.573760 27 18 12
-0.062844 0.175299 1.829111 0.482019 -0.483537 -0.730650 43 29 15
-0.054285 0.175378 1.831507 0.273270 -0.394782 -0.877195 10 8 8
-0.045723 0.175557 1.834938 0.329072 -0.478238 -0.814248 17 13 13
-0.037127 0.175733 1.838339 0.376562 -0.394286 -0.838296 13 11 11
-0.028487 0.175790 1.840521 0.237535 -0.278669 -0.930548 11 9 10
-0.206637 0.184177 1.806251 0.063383 -0.334111 -0.940400 16 12 11
-0.198197 0.184088 1.806851 -0.185767 -0.288711 -0.939221 16 11 10
-0.189188 0.183418 1.801818 -0.248670 -0.250404 -0.935661 15 12 11
-0.180618 0.183172 1.800896 -0.212133 -0.211445 -0.954092 45 27 13
-0.171780 0.182612 1.796929 -0.169288 -0.197286 -0.965619 18 13 10
-0.163487 0.182662 1.798870 -0.073100 -0.047797 -0.996179 15 11 10
-0.154652 0.182047 1.794355 -0.489663 0.017324 -0.871740 16 12 10
-0.145799 0.181352 1.789049 -0.510326 0.099851 -0.854165 16 12 9
-0.136951 0.180592 1.783103 -0.174469 0.206770 -0.962708 18 13 10
-0.128691 0.180651 1.785135 -0.026079 0.214423 -0.976393 17 13 12
-0.120085 0.180170 1.781900 0.151561 0.110968 -0.982199 36 21 15
-0.112052 0.180663 1.788163 0.535834 0.020355 -0.844078 76 55 31
-0.103936 0.181107 1.793970 0.500709 -0.199400 -0.842336 63 41 20
-0.095746 0.181511 1.799381 0.482547 -0.324060 -0.813716 56 34 19
-0.087427 0.181733 1.803025 0.363518 -0.367529 -0.856024 39 20 12
-0.079036 0.181851 1.805665 0.577899 -0.360484 -0.732178 40 21 12
-0.070852 0.182684 1.815307 0.733809 -0.216772 -0.643843 37 22 11
-0.062546 0.183406 1.823883 0.609733 -0.218870 -0.761789 21 17 15
-0.054088 0.183826 1.829505 0.321111 -0.291010 -0.901222 28 22 16
-0.045511 0.183902 1.831748 0.246919 -0.334297 -0.909547 15 11 10
-0.036906 0.183939 1.833627 0.476058 -0.367299 -0.799037 15 11 10
-0.028370 0.184889 1.844484 0.744575 0.073735 -0.663454 13 11 9
-0.197543 0.192077 1.801808 -0.167578 -0.369041 -0.914180 73 39 13
-0.189001 0.191863 1.801221 -0.106401 -0.078420 -0.991226 42 24 13
-0.180406 0.191584 1.800025 -0.293828 -0.023808 -0.955562 20 12 11
-0.171674 0.191127 1.797185 -0.032501 0.016493 -0.999336 12 10 11
-0.163295 0.191081 1.798151 -0.195439 0.086141 -0.976925 18 13 10
-0.154492 0.190485 1.794002 -0.486214 0.002225 -0.873837 21 13 12
-0.145644 0.189771 1.788757 -0.453107 -0.005485 -0.891439 18 13 10
-0.136955 0.189221 1.785035 -0.209833 0.099040 -0.972708 16 12 11
-0.128606 0.189163 1.785879 -0.008747 0.195523 -0.980660 17 12 11
-0.120157 0.188947 1.785262 0.147858 0.274615 -0.950118 27 18 14
-0.111935 0.189147 1.788511 0.339685 0.166247 -0.925730 70 50 25
-0.103718 0.189420 1.792460 0.339894 -0.064472 -0.938251 76 52 21
-0.095371 0.189485 1.794461 0.280414 -0.319615 -0.905104 78 62 37
-0.087094 0.189773 1.798562 0.485940 -0.349212 -0.801195 67 52 31
-0.078753 0.189993 1.802024 0.575992 -0.088837 -0.812614 62 32 12
-0.070661 0.191116 1.813946 0.776508 -0.051195 -0.628025 59 32 13
-0.062421 0.192110 1.824682 0.577146 -0.013460 -0.816530 18 13 10
-0.053895 0.192278 1.827686 0.234499 -0.198323 -0.951671 10 8 9
-0.045296 0.192202 1.828407 0.191447 -0.314628 -0.929708 18 14 13
-0.036711 0.192281 1.830590 0.702860 -0.178182 -0.688650 16 12 11
-0.028379 0.195429 1.861623 0.953256 0.136187 -0.269732 18 14 11
-0.171587 0.199671 1.797653 0.173678 0.174426 -0.969232 20 15 11
-0.163473 0.199983 1.801754 -0.195641 0.303575 -0.932506 29 18 13
-0.154386 0.198997 1.794319 -0.526899 0.198190 -0.826498 39 25 12
-0.145515 0.198227 1.788801 -0.482160 0.095572 -0.870855 15 11 10
-0.120265 0.197824 1.789202 0.125444 0.426572 -0.895712 31 16 11
-0.111895 0.197790 1.790229 0.161446 0.389841 -0.906620 55 30 14
-0.103524 0.197772 1.791408 0.176497 0.340591 -0.923497 61 30 9
-0.095209 0.197915 1.794017 0.133992 0.278121 -0.951155 61 45 28
-0.086701 0.197618 1.792700 0.433630 0.229017 -0.871502 73 52 26
-0.078791 0.199040 1.806782 0.674215 0.368582 -0.639986 77 54 25
-0.070501 0.199639 1.813499 0.658533 0.361150 -0.660232 42 24 13
-0.062306 0.200861 1.825816 0.347025 0.475750 -0.808230 12 10 11
-0.053692 0.200667 1.825441 0.030199 0.188775 -0.981556 10 8 9
-0.045091 0.200523 1.825524 0.136119 -0.020481 -0.990481 11 9 10
-0.036523 0.200658 1.828101 0.589056 0.061473 -0.805750 18 14 13
-0.028170 0.203602 1.855966 0.947968 -0.092589 -0.304604 19 15 12
-0.163512 0.208732 1.803744 -0.092734 0.353034 -0.931004 32 18 10
-0.154540 0.207892 1.797862 -0.503705 0.363153 -0.783838 22 13 11
-0.120663 0.207292 1.797858 -0.018565 0.777477 -0.628638 36 19 11
-0.112204 0.207166 1.798063 0.046566 0.703399 -0.709268 36 20 12
-0.103748 0.207051 1.798359 0.151073 0.724835 -0.672154 28 17 13
-0.095399 0.207205 1.800967 0.156920 0.747322 -0.645667 43 23 11
-0.087175 0.207770 1.807106 0.503001 0.714988 -0.485575 30 18 11
-0.079150 0.209128 1.820060 0.442889 0.665631 -0.600654 13 10 11
-0.070719 0.209488 1.824463 0.513363 0.620429 -0.592897 10 8 10
-0.062414 0.210541 1.834830 0.106544 0.507175 -0.855232 10 8 10
-0.053674 0.209942 1.830987 -0.165995 0.505690 -0.846595 7 5 6
-0.045018 0.209636 1.829669 0.122846 0.451035 -0.884012 18 13 11
-0.036445 0.209906 1.833311 0.701939 0.181330 -0.688768 15 12 10
-0.027972 0.211858 1.851466 0.889532 -0.238835 -0.389474 16 12 11
-0.163574 0.217536 1.806007 0.130030 0.451642 -0.882673 21 11 10
-0.155166 0.217536 1.807246 -0.045519 0.533133 -0.844806 23 18 15
-0.130316 0.218359 1.817718 -0.018419 0.618008 -0.785956 66 40 17
-0.121675 0.218059 1.816492 -0.123606 0.698254 -0.705098 41 22 10
-0.112846 0.217333 1.811767 0.011636 0.799803 -0.600150 38 24 13
-0.104523 0.217684 1.815896 0.063926 0.716226 -0.694935 22 14 12
-0.095904 0.217377 1.814609 0.293542 0.641603 -0.708646 13 10 8
-0.087718 0.218269 1.823211 0.536509 0.486487 -0.689557 11 9 8
-0.079287 0.218636 1.827492 0.511213 0.378064 -0.771835 17 11 11
-0.070958 0.219529 1.836123 0.429669 0.183119 -0.884224 9 7 8
-0.062327 0.219482 1.836996 -0.023274 0.071883 -0.997142 8 6 9
-0.053635 0.219169 1.835678 -0.146608 0.171585 -0.974200 9 7 8
-0.044955 0.218850 1.834300 0.079573 0.324503 -0.942532 12 10 9
-0.036340 0.218986 1.836694 0.472914 0.175822 -0.863388 24 16 14
-0.027773 0.220051 1.846785 0.816067 0.016509 -0.577722 19 13 13
-0.164111 0.227070 1.813837 0.112635 0.634414 -0.764743 50 31 14
-0.138985 0.227534 1.821082 0.227905 0.517713 -0.824641 16 12 11
-0.130563 0.227689 1.823507 0.038756 0.527587 -0.848617 10 7 8
-0.121857 0.227310 1.821703 -0.070235 0.500466 -0.862902 16 10 11
-0.113295 0.227211 1.822120 -0.016706 0.607870 -0.793860 22 17 14
-0.104642 0.226904 1.820894 -0.110411 0.472539 -0.874366 13 11 10
-0.087634 0.227071 1.824618 0.587708 0.122236 -0.799786 18 9 10
-0.070735 0.227929 1.833847 0.420698 -0.300562 -0.855965 12 10 9
-0.062155 0.228070 1.836180 0.061389 -0.215231 -0.974632 8 6 7
-0.053488 0.227870 1.835806 -0.049365 -0.131108 -0.990138 9 7 8
-0.044823 0.227659 1.835340 0.080996 0.087995 -0.992822 10 8 9
-0.036201 0.227799 1.837673 0.531671 0.085218 -0.842653 10 8 9
-0.061900 0.236268 1.832415 0.099421 -0.417889 -0.903042 9 7 8
