ply
format ascii 1.0
element vertex 325
property float x
property float y
property float z
property float nx
property float ny
property float nz
property uchar red
property uchar green
property uchar blue
end_header
0.116962 0.111644 1.829143 -0.421355 -0.726136 -0.543311 18 10 7
0.125067 0.111070 1.822371 -0.440858 -0.752059 -0.489950 25 14 11
0.133328 0.110667 1.818341 -0.098505 -0.847924 -0.520885 38 26 15
0.142448 0.110917 1.824881 0.021785 -0.933762 -0.357232 62 49 35
0.150621 0.110471 1.820151 0.180495 -0.909042 -0.375585 72 59 36
0.161163 0.111602 1.841007 0.044621 -0.968527 -0.244878 87 52 25
0.168315 0.110501 1.825646 -0.019020 -0.837175 -0.546604 82 49 23
0.108151 0.120051 1.823555 -0.372090 -0.711537 -0.596040 23 19 15
0.116416 0.119589 1.818947 -0.469624 -0.693961 -0.545776 49 31 16
0.124328 0.118856 1.810257 -0.420907 -0.712429 -0.561499 29 21 15
0.132655 0.118537 1.807751 -0.230199 -0.752290 -0.617307 24 17 15
0.140992 0.118244 1.805641 -0.119435 -0.855948 -0.503078 50 33 18
0.149369 0.117996 1.804201 0.212438 -0.813475 -0.541413 49 35 23
0.158742 0.118457 1.813451 0.272993 -0.830446 -0.485627 61 49 34
0.167612 0.118522 1.816731 0.217898 -0.750215 -0.624257 81 55 26
0.176437 0.118537 1.819281 0.341616 -0.748253 -0.568697 87 52 20
0.186694 0.119407 1.834772 0.551640 -0.762497 -0.338070 42 22 13
0.107772 0.128054 1.815188 -0.411834 -0.666396 -0.621537 21 17 15
0.115965 0.127539 1.810124 -0.516932 -0.633121 -0.576141 20 14 11
0.123928 0.126852 1.802654 -0.447033 -0.658647 -0.605265 18 13 10
0.132083 0.126400 1.798443 -0.315986 -0.739306 -0.594625 28 19 13
0.140254 0.125996 1.794902 -0.127125 -0.726815 -0.674966 45 38 33
0.148650 0.125796 1.794224 0.226191 -0.677743 -0.699644 58 33 12
0.157871 0.126223 1.802346 0.346003 -0.764544 -0.543833 40 26 12
0.166723 0.126327 1.805961 0.260773 -0.795310 -0.547247 49 31 16
0.175603 0.126427 1.809515 0.315507 -0.734448 -0.600868 61 36 14
0.184749 0.126678 1.815200 0.509310 -0.714015 -0.480401 88 57 23
0.194891 0.127513 1.829167 0.499634 -0.766019 -0.404451 65 39 19
0.204514 0.127956 1.837623 0.394751 -0.775241 -0.493126 18 14 13
0.213722 0.128115 1.842059 0.426813 -0.687631 -0.587362 20 15 12
0.223332 0.128469 1.849295 0.562706 -0.558567 -0.609398 18 14 11
0.233099 0.128870 1.857202 0.586938 -0.452748 -0.671210 25 15 14
0.107433 0.136029 1.807463 -0.472258 -0.630669 -0.615815 21 16 13
0.115528 0.135423 1.801517 -0.530383 -0.600946 -0.597961 39 28 19
0.123471 0.134723 1.794322 -0.507314 -0.625353 -0.592931 55 34 16
0.131497 0.134165 1.788986 -0.306226 -0.664038 -0.682114 46 30 16
0.139829 0.133928 1.787851 -0.030888 -0.633197 -0.773374 38 31 22
0.148348 0.133858 1.788908 0.075427 -0.643687 -0.761562 46 40 29
0.156996 0.133883 1.791214 0.198519 -0.726287 -0.658101 62 37 12
0.165514 0.133791 1.791997 0.255018 -0.771146 -0.583353 37 20 12
0.174723 0.134195 1.799326 0.389837 -0.742513 -0.544703 72 38 11
0.183899 0.134526 1.805711 0.456194 -0.693662 -0.557423 79 44 18
0.193340 0.134992 1.813892 0.480272 -0.725902 -0.492347 56 31 12
0.202906 0.135487 1.822468 0.444767 -0.778191 -0.443396 30 22 16
0.212634 0.136028 1.831683 0.505588 -0.684479 -0.525232 39 28 20
0.222309 0.136484 1.839802 0.603708 -0.524342 -0.600502 21 16 13
0.232477 0.137176 1.851056 0.620163 -0.457375 -0.637342 22 14 12
0.242406 0.137675 1.859783 0.553657 -0.467701 -0.688999 20 16 13
0.107123 0.143970 1.800197 -0.490575 -0.568194 -0.660675 36 25 16
0.115229 0.143388 1.794891 -0.557518 -0.538476 -0.631836 50 33 19
0.123078 0.142585 1.786845 -0.532583 -0.553838 -0.640015 59 46 29
0.131178 0.142114 1.782880 -0.244254 -0.581785 -0.775800 59 43 26
0.139499 0.141887 1.781928 -0.067847 -0.578379 -0.812942 59 51 37
0.147898 0.141739 1.781950 0.003680 -0.597513 -0.801851 64 51 37
0.156271 0.141569 1.781699 0.096371 -0.645710 -0.757476 64 53 41
0.164919 0.141622 1.784217 0.216136 -0.681427 -0.699245 58 48 36
0.173765 0.141810 1.788410 0.366781 -0.712493 -0.598186 56 32 14
0.182864 0.142153 1.794550 0.461353 -0.707079 -0.535904 45 22 11
0.192258 0.142661 1.802761 0.459995 -0.686411 -0.563245 50 28 10
0.201426 0.142963 1.808414 0.435873 -0.715171 -0.546392 28 18 13
0.211014 0.143500 1.817019 0.577997 -0.682108 -0.447937 29 20 14
0.221713 0.144680 1.833659 0.685417 -0.520617 -0.509079 20 15 12
0.231871 0.145435 1.845033 0.649410 -0.428295 -0.628355 34 23 18
0.241756 0.145967 1.853637 0.520092 -0.490995 -0.698877 13 12 10
0.251295 0.146257 1.859228 0.354309 -0.563082 -0.746595 13 9 8
0.106891 0.151946 1.794120 -0.506549 -0.497741 -0.704033 40 26 18
0.114960 0.151329 1.788694 -0.601078 -0.478539 -0.640083 31 19 11
0.122782 0.150492 1.780680 -0.500944 -0.461069 -0.732441 17 12 10
0.130911 0.150062 1.777415 -0.253016 -0.499258 -0.828688 33 19 12
0.139209 0.149834 1.776493 -0.061093 -0.518150 -0.853105 27 17 13
0.147550 0.149656 1.776151 -0.002050 -0.514977 -0.857202 48 29 14
0.155998 0.149576 1.776965 0.031369 -0.542718 -0.839329 70 49 30
0.164440 0.149483 1.777626 0.126679 -0.600102 -0.789829 74 61 42
0.173015 0.149494 1.779505 0.251534 -0.665929 -0.702332 71 49 25
0.181824 0.149673 1.783363 0.414539 -0.695558 -0.586819 60 33 12
0.191326 0.150341 1.792972 0.500895 -0.691012 -0.521159 36 22 13
0.200612 0.150787 1.799994 0.405727 -0.702952 -0.584161 21 16 13
0.209797 0.151115 1.805646 0.482028 -0.711405 -0.511422 42 27 15
0.220027 0.152099 1.819028 0.636983 -0.675700 -0.371056 43 27 14
0.231198 0.153598 1.838526 0.659933 -0.581968 -0.475186 16 12 11
0.241080 0.154187 1.847311 0.483200 -0.565429 -0.668437 21 17 16
0.250530 0.154469 1.852475 0.293417 -0.645917 -0.704768 17 13 14
0.259563 0.154482 1.854474 0.419176 -0.604813 -0.677120 11 9 10
0.106773 0.160024 1.789780 -0.528736 -0.429949 -0.731835 19 14 11
0.114716 0.159247 1.782863 -0.593276 -0.350439 -0.724718 15 11 10
0.122710 0.158609 1.777468 -0.485882 -0.254005 -0.836301 12 9 8
0.130718 0.158046 1.772895 -0.297516 -0.307108 -0.903974 19 13 10
0.139043 0.157864 1.772521 -0.079521 -0.353410 -0.932082 17 11 10
0.147344 0.157662 1.771935 -0.047354 -0.374073 -0.926189 23 18 12
0.155708 0.157524 1.772049 -0.025578 -0.461682 -0.886677 26 16 14
0.164030 0.157347 1.771737 0.015288 -0.532547 -0.846263 80 62 40
0.172480 0.157282 1.772673 0.174751 -0.581771 -0.794358 58 47 29
0.181148 0.157390 1.775525 0.319301 -0.616540 -0.719670 60 39 18
0.190087 0.157689 1.780508 0.463248 -0.669160 -0.581057 67 43 19
0.199515 0.158320 1.789203 0.389944 -0.748969 -0.535714 22 17 13
0.208552 0.158606 1.794063 0.327688 -0.789497 -0.518955 24 14 12
0.217812 0.159013 1.800292 0.468857 -0.785460 -0.404012 27 20 15
0.228362 0.160247 1.815772 0.670250 -0.674206 -0.310179 25 17 13
0.240155 0.162189 1.839191 0.509153 -0.690892 -0.513256 41 28 16
0.249399 0.162390 1.843168 0.259001 -0.748552 -0.610400 20 16 13
0.258492 0.162476 1.845866 0.411918 -0.718815 -0.560025 20 16 13
0.270621 0.164325 1.868341 0.700080 -0.637030 -0.322615 21 17 16
0.098433 0.168514 1.788584 -0.321647 -0.500903 -0.803517 40 27 17
0.106663 0.168075 1.785563 -0.421383 -0.415260 -0.806223 14 10 9
0.114721 0.167446 1.780534 -0.474950 -0.235533 -0.847907 19 13 10
0.122813 0.166919 1.776569 -0.481418 -0.155350 -0.862614 31 18 9
0.130778 0.166288 1.771510 -0.323575 -0.148790 -0.934431 41 24 13
0.139001 0.165997 1.770011 -0.152679 -0.207936 -0.966153 48 29 14
0.147273 0.165773 1.769212 -0.100871 -0.255561 -0.961516 33 23 13
0.155488 0.165499 1.767896 -0.137379 -0.343100 -0.929198 17 12 10
0.163743 0.165275 1.767097 -0.015125 -0.346337 -0.937988 11 8 7
0.172140 0.165187 1.767728 0.134613 -0.381416 -0.914550 15 10 9
0.180687 0.165223 1.769668 0.255462 -0.430971 -0.865450 41 28 17
0.189402 0.165381 1.772915 0.390056 -0.509181 -0.767197 66 38 14
0.198427 0.165761 1.778506 0.359183 -0.633751 -0.685089 60 37 15
0.207230 0.165930 1.781875 0.240957 -0.751898 -0.613669 46 34 19
0.216141 0.166153 1.785822 0.346799 -0.786731 -0.510671 34 27 17
0.225616 0.166749 1.793724 0.685515 -0.628385 -0.367697 58 40 19
0.238457 0.169589 1.825476 0.662348 -0.592738 -0.458210 42 26 14
0.247910 0.169991 1.831369 0.268056 -0.744513 -0.611430 22 17 13
0.257102 0.170188 1.835102 0.277118 -0.770281 -0.574345 22 17 14
0.266621 0.170565 1.840751 0.561323 -0.716565 -0.414065 15 11 10
0.278941 0.172582 1.863891 0.718965 -0.612022 -0.329421 17 13 13
0.098252 0.176397 1.782937 -0.258115 -0.438633 -0.860801 53 36 18
0.106559 0.176101 1.781469 -0.274082 -0.337343 -0.900599 39 26 14
0.114740 0.175646 1.778418 -0.378425 -0.214464 -0.900444 48 35 18
0.122839 0.175122 1.774667 -0.411352 -0.087034 -0.907312 35 25 15
0.130915 0.174613 1.771069 -0.309833 -0.045703 -0.949692 43 24 10
0.139068 0.174236 1.768780 -0.210534 -0.127790 -0.969198 54 33 15
0.147341 0.174015 1.768041 -0.179985 -0.212215 -0.960505 27 17 9
0.155474 0.173653 1.765904 -0.175565 -0.229990 -0.957226 11 9 8
0.163672 0.173377 1.764618 -0.011862 -0.204466 -0.978802 13 9 8
0.172119 0.173350 1.765828 0.135444 -0.219077 -0.966261 10 7 5
0.180611 0.173353 1.767341 0.184363 -0.254685 -0.949287 14 10 9
0.189171 0.173400 1.769311 0.282724 -0.360917 -0.888710 51 33 14
0.197974 0.173635 1.773166 0.280451 -0.498580 -0.820223 53 33 17
0.206535 0.173646 1.774770 0.144284 -0.586427 -0.797048 48 39 25
0.215030 0.173593 1.775736 0.239273 -0.657459 -0.714490 77 57 31
0.224062 0.173931 1.780656 0.641834 -0.600027 -0.477510 79 48 20
0.237126 0.177126 1.814442 0.746897 -0.546512 -0.378774 42 25 14
0.247093 0.177948 1.824288 0.337922 -0.664717 -0.666303 20 15 12
0.255790 0.177854 1.824888 0.152418 -0.706934 -0.690661 12 8 7
0.264975 0.178073 1.828650 0.412045 -0.716269 -0.563185 12 10 10
0.090012 0.184968 1.782898 -0.375855 -0.090908 -0.922209 53 34 16
0.098214 0.184473 1.779605 -0.215792 -0.109727 -0.970254 43 32 19
0.106571 0.184272 1.779110 -0.230809 -0.127269 -0.964640 48 33 14
0.114792 0.183877 1.776759 -0.222529 -0.026065 -0.974578 46 34 19
0.123006 0.183504 1.774621 -0.372195 0.148848 -0.916141 43 27 11
0.131083 0.182979 1.771024 -0.385263 0.029104 -0.922348 31 18 10
0.139115 0.182441 1.767305 -0.276545 -0.066219 -0.958717 30 19 13
0.147285 0.182105 1.765502 -0.257959 -0.195733 -0.946122 21 11 8
0.155517 0.181854 1.764521 -0.145596 -0.250015 -0.957233 26 19 13
0.163725 0.181588 1.763388 -0.019277 -0.289248 -0.957060 28 19 10
0.172142 0.181542 1.764353 0.113182 -0.278278 -0.953809 11 7 6
0.180582 0.181507 1.765441 0.100354 -0.331203 -0.938208 40 26 15
0.189026 0.181467 1.766467 0.154064 -0.411151 -0.898454 45 35 25
0.197556 0.181492 1.768132 0.192207 -0.490161 -0.850176 68 56 35
0.206065 0.181486 1.769493 0.116293 -0.529208 -0.840485 34 20 9
0.214540 0.181441 1.770489 0.186330 -0.508985 -0.840367 77 53 26
0.223211 0.181542 1.772884 0.560890 -0.472826 -0.679586 54 34 17
0.234150 0.183327 1.791519 0.786167 -0.503929 -0.357767 25 16 11
0.245884 0.185557 1.814473 0.507923 -0.701118 -0.500447 30 19 13
0.255011 0.185801 1.818296 0.156848 -0.708620 -0.687936 33 23 14
0.263647 0.185685 1.818652 0.166305 -0.702530 -0.691950 18 14 12
0.272937 0.185998 1.823143 0.310843 -0.744266 -0.591139 17 13 12
0.098480 0.193061 1.781201 -0.297968 0.246023 -0.922327 49 33 17
0.106745 0.192691 1.779185 -0.283232 0.109484 -0.952782 45 32 15
0.114926 0.192221 1.776257 -0.100859 -0.038862 -0.994142 44 29 16
0.123408 0.192225 1.777648 -0.251785 0.083451 -0.964179 34 21 12
0.131322 0.191442 1.771860 -0.446168 0.153194 -0.881740 30 17 10
0.139398 0.190937 1.768598 -0.448436 0.069135 -0.891137 44 28 15
0.147229 0.190173 1.762963 -0.345451 -0.145029 -0.927162 46 33 18
0.155395 0.189855 1.761405 -0.214781 -0.246610 -0.945015 39 29 18
0.163607 0.189604 1.760454 -0.061923 -0.342613 -0.937434 35 22 13
0.171976 0.189526 1.761085 0.076761 -0.408589 -0.909485 29 18 10
0.180366 0.189461 1.761838 0.041127 -0.423170 -0.905116 35 21 8
0.188651 0.189290 1.761617 0.052979 -0.470470 -0.880824 42 30 18
0.197127 0.189294 1.763008 0.131444 -0.534890 -0.834635 62 40 19
0.205657 0.189334 1.764734 0.132547 -0.555320 -0.821006 21 12 6
0.214091 0.189279 1.765578 0.281765 -0.437468 -0.853950 50 36 21
0.222912 0.189530 1.769250 0.510582 -0.276565 -0.814137 44 30 19
0.232751 0.190553 1.780037 0.777649 -0.392483 -0.491140 33 16 9
0.244346 0.192827 1.802379 0.561169 -0.691169 -0.455384 66 39 16
0.253638 0.193252 1.807692 0.355627 -0.764812 -0.537207 20 12 10
0.262832 0.193571 1.812031 0.135201 -0.673557 -0.726665 20 16 13
0.271485 0.193487 1.812661 0.123544 -0.692491 -0.710770 16 12 11
0.098891 0.201931 1.785107 -0.422424 0.228064 -0.877237 45 33 19
0.107045 0.201328 1.781145 -0.457212 0.167619 -0.873419 43 36 25
0.115094 0.200618 1.776241 -0.266618 0.006589 -0.963780 47 40 28
0.123497 0.200507 1.776567 -0.116571 -0.151204 -0.981605 42 28 17
0.131604 0.199975 1.773214 -0.381638 -0.031608 -0.923771 35 26 16
0.139648 0.199403 1.769496 -0.487489 0.113383 -0.865736 36 28 19
0.147484 0.198612 1.763862 -0.490606 0.062280 -0.869153 52 33 16
0.155359 0.197933 1.759201 -0.318982 -0.099776 -0.942494 48 33 18
0.163507 0.197615 1.757704 -0.131674 -0.192437 -0.972435 36 23 12
0.171734 0.197399 1.757088 -0.009993 -0.252092 -0.967652 11 9 10
0.180098 0.197331 1.757779 0.015537 -0.346205 -0.938030 10 9 7
0.188390 0.197183 1.757772 0.030561 -0.334666 -0.941841 20 13 9
0.196758 0.197108 1.758403 0.017750 -0.476266 -0.879122 38 24 13
0.205080 0.196985 1.758608 0.174123 -0.470537 -0.865029 35 18 8
0.213607 0.197040 1.760394 0.372807 -0.382223 -0.845530 53 35 17
0.223050 0.197858 1.768900 0.593653 -0.084891 -0.800231 50 24 10
0.232196 0.198364 1.774669 0.627080 -0.208789 -0.750452 30 16 7
0.242768 0.199953 1.790015 0.536198 -0.631677 -0.559889 33 24 17
0.251476 0.200002 1.791770 0.459775 -0.688486 -0.560887 45 26 11
0.261961 0.201354 1.805048 0.318806 -0.651179 -0.688715 32 19 12
0.270543 0.201247 1.805434 0.049557 -0.659204 -0.750329 8 6 7
0.279238 0.201215 1.806490 0.343829 -0.614258 -0.710259 8 7 6
0.099151 0.210551 1.786580 -0.461362 0.093960 -0.882222 47 35 21
0.107289 0.209885 1.782254 -0.557004 0.077097 -0.826923 52 36 18
0.115204 0.208920 1.775404 -0.363689 -0.061797 -0.929468 59 36 18
0.123488 0.208629 1.774210 -0.276447 -0.230004 -0.933100 55 43 21
0.131686 0.208231 1.772104 -0.228993 -0.257333 -0.938798 49 37 23
0.139899 0.207879 1.770393 -0.383613 -0.159315 -0.909648 50 39 20
0.147734 0.207055 1.764699 -0.460070 0.079518 -0.884315 41 28 16
0.155651 0.206401 1.760434 -0.386195 0.221175 -0.895508 40 24 11
0.163632 0.205870 1.757204 -0.198806 0.151329 -0.968285 18 8 6
0.171823 0.205611 1.756254 -0.089967 0.069723 -0.993501 8 6 7
0.179994 0.205341 1.755212 -0.024046 -0.012908 -0.999628 12 8 7
0.188352 0.205273 1.755874 -0.097535 -0.050196 -0.993965 11 8 7
0.196291 0.204783 1.752978 -0.098189 -0.196671 -0.975541 9 8 5
0.204731 0.204798 1.754338 0.261493 -0.139869 -0.955017 14 10 9
0.213648 0.205237 1.759286 0.542101 -0.028917 -0.839816 48 26 12
0.223339 0.206318 1.769676 0.561234 -0.003903 -0.827648 51 33 16
0.232254 0.206651 1.773741 0.380054 -0.178161 -0.907644 51 40 24
0.241366 0.207112 1.778901 0.547164 -0.465543 -0.695615 65 48 26
0.250706 0.207715 1.785277 0.584832 -0.477119 -0.655994 49 32 16
0.261088 0.209073 1.798066 0.454307 -0.483914 -0.747952 27 15 8
0.269729 0.209037 1.799030 0.070052 -0.539196 -0.839262 12 10 11
0.278281 0.208929 1.799387 0.477719 -0.447232 -0.756153 10 8 8
0.289473 0.210675 1.815518 0.802548 -0.280746 -0.526401 15 11 10
0.107467 0.218335 1.782389 -0.601601 0.057554 -0.796720 38 22 11
0.115364 0.217303 1.775266 -0.522839 -0.001876 -0.852430 29 14 7
0.123418 0.216634 1.771062 -0.330229 -0.188567 -0.924874 32 19 10
0.131622 0.216256 1.769200 -0.286931 -0.284667 -0.914678 44 27 16
0.139798 0.215863 1.767216 -0.263010 -0.260151 -0.929057 46 30 14
0.148017 0.215553 1.765901 -0.237929 -0.121735 -0.963624 57 39 19
0.156057 0.215029 1.762853 -0.246144 0.085770 -0.965431 53 37 16
0.164185 0.214648 1.760960 -0.209537 0.283543 -0.935787 17 8 8
0.172295 0.214268 1.759068 -0.147593 0.315487 -0.937382 8 7 5
0.180448 0.213955 1.757722 -0.047662 0.287970 -0.956453 9 8 6
0.188756 0.213823 1.757836 -0.072865 0.331270 -0.940718 15 11 8
0.196698 0.213312 1.754880 -0.062011 0.361120 -0.930455 8 7 5
0.205221 0.213405 1.756818 0.308266 0.407373 -0.859662 9 7 8
0.213994 0.213718 1.760549 0.489342 0.265284 -0.830764 10 9 7
0.223539 0.214706 1.769782 0.530820 0.112814 -0.839942 44 25 10
0.232334 0.214950 1.772966 0.265336 0.050709 -0.962821 44 27 13
0.240794 0.214880 1.773596 0.331703 -0.096833 -0.938401 46 32 16
0.250224 0.215607 1.780731 0.683715 -0.067494 -0.726621 32 19 11
0.260586 0.217027 1.793518 0.556687 -0.180782 -0.810813 13 9 6
0.269255 0.217033 1.794786 0.180601 -0.226816 -0.957046 7 5 7
0.277976 0.217068 1.796297 0.444200 -0.060458 -0.893886 9 7 8
0.289095 0.218848 1.812062 0.820411 0.012833 -0.571630 13 9 8
0.115618 0.225855 1.776436 -0.482123 0.264672 -0.835169 23 15 10
0.123618 0.225065 1.771442 -0.483397 0.181098 -0.856464 18 10 8
0.131528 0.224208 1.765932 -0.333423 0.026347 -0.942409 17 9 6
0.139744 0.223889 1.764587 -0.172666 -0.002839 -0.984976 18 10 8
0.147965 0.223592 1.763424 -0.143371 0.012486 -0.989590 20 12 7
0.156234 0.223374 1.762869 -0.069827 0.106807 -0.991825 19 11 7
0.164513 0.223176 1.762466 -0.087084 0.137886 -0.986612 22 12 6
0.172730 0.222907 1.761516 -0.125062 0.236459 -0.963559 10 8 7
0.180939 0.222639 1.760566 -0.032197 0.366369 -0.929913 11 8 7
0.189251 0.222496 1.760589 0.056838 0.334405 -0.940714 6 4 4
0.197673 0.222469 1.761523 0.155713 0.526144 -0.836018 8 6 6
0.206399 0.222745 1.764829 0.157090 0.616254 -0.771721 7 5 6
0.214717 0.222585 1.764730 0.360084 0.431461 -0.827153 21 14 11
0.223934 0.223284 1.771347 0.367723 0.261210 -0.892496 39 23 11
0.232734 0.223539 1.774500 0.226054 0.278903 -0.933334 29 20 12
0.241216 0.223483 1.775221 0.418231 0.375489 -0.827098 17 7 6
0.251241 0.224749 1.786305 0.623273 0.261349 -0.737040 7 5 6
0.260619 0.225385 1.792466 0.412973 0.144574 -0.899195 12 8 7
0.269624 0.225672 1.795892 0.332342 0.273960 -0.902493 5 3 5
0.278860 0.226113 1.800532 0.630697 0.302952 -0.714452 8 7 5
0.290180 0.228102 1.817358 0.792838 0.237086 -0.561426 8 6 7
0.116000 0.234657 1.779368 -0.291849 0.239799 -0.925916 22 13 10
0.124189 0.234147 1.776655 -0.408068 0.340858 -0.846934 37 25 10
0.132035 0.233118 1.770051 -0.381677 0.454717 -0.804708 22 12 10
0.140186 0.232658 1.767703 -0.195477 0.439052 -0.876939 15 9 9
0.148312 0.232194 1.765324 -0.118228 0.418122 -0.900664 26 17 12
0.156576 0.231953 1.764618 -0.111512 0.390239 -0.913936 7 5 5
0.164791 0.231656 1.763485 -0.053856 0.288624 -0.955927 7 5 6
0.173114 0.231508 1.763478 0.067504 0.382691 -0.921407 21 13 10
0.181796 0.231793 1.766722 0.014627 0.477497 -0.878511 18 13 9
0.189838 0.231302 1.764131 0.083152 0.476171 -0.875413 6 4 5
0.198787 0.231844 1.769319 0.390711 0.502699 -0.771129 9 8 6
0.207775 0.232373 1.774417 0.140506 0.429731 -0.891958 14 12 9
0.215952 0.232019 1.772859 0.086700 0.503854 -0.859426 17 8 6
0.224492 0.232040 1.774127 0.303493 0.337737 -0.890969 18 9 7
0.233607 0.232596 1.779437 0.324854 0.453811 -0.829774 18 13 10
0.242549 0.232946 1.783197 0.504606 0.448038 -0.737994 11 8 7
0.251988 0.233705 1.790055 0.526480 0.295930 -0.797022 14 10 9
0.261427 0.234406 1.796489 0.387350 0.343600 -0.855511 8 7 5
0.270439 0.234697 1.799822 0.404645 0.367717 -0.837285 6 5 3
0.279972 0.235385 1.806164 0.650993 0.335462 -0.680936 7 5 6
0.124469 0.242756 1.778067 -0.301131 0.165016 -0.939197 9 8 6
0.132640 0.242233 1.775354 -0.312483 0.290540 -0.904401 18 11 8
0.140799 0.241732 1.772794 -0.186825 0.387146 -0.902892 18 13 11
0.149036 0.241387 1.771357 -0.121136 0.381372 -0.916451 21 12 7
0.157403 0.241247 1.771410 -0.139851 0.347293 -0.927270 8 6 7
0.165474 0.240701 1.768515 -0.086622 0.355581 -0.930623 7 5 4
0.173912 0.240670 1.769358 0.103606 0.190149 -0.976273 16 11 7
0.182359 0.240639 1.770201 -0.018700 0.076615 -0.996885 26 16 11
0.190583 0.240332 1.769039 0.185061 0.300042 -0.935803 16 11 8
0.199557 0.240899 1.774226 0.309524 0.105601 -0.945010 31 19 9
0.208097 0.240930 1.775525 0.176555 0.104601 -0.978717 47 31 14
0.217023 0.241358 1.779710 0.121769 0.157214 -0.980029 24 13 8
0.225202 0.240980 1.778031 0.070975 0.276383 -0.958423 20 11 7
0.132931 0.250850 1.776797 -0.220264 0.245763 -0.943973 32 21 10
0.141174 0.250463 1.775117 -0.207470 0.265461 -0.941534 35 21 9
0.149462 0.250171 1.774107 -0.214945 0.180485 -0.959804 32 18 10
0.157616 0.249693 1.771789 -0.186287 0.066558 -0.980238 28 15 6
0.165800 0.249289 1.769989 -0.197473 0.091370 -0.976041 29 15 8
0.174050 0.248998 1.768978 -0.055758 0.068625 -0.996083 19 10 7
0.182335 0.248764 1.768363 0.091194 0.037350 -0.995132 14 9 7
0.191094 0.249122 1.771909 0.309854 0.116517 -0.943618 13 8 7
0.199468 0.248983 1.771962 0.279720 -0.158352 -0.946932 12 6 6
0.208332 0.249401 1.775934 0.248500 -0.007850 -0.968600 16 10 5
0.216864 0.249412 1.777050 0.123320 -0.124930 -0.984472 24 13 10
0.141680 0.259442 1.778959 -0.273063 0.391423 -0.878763 24 16 11
0.149722 0.258715 1.775032 -0.292907 0.320975 -0.900656 16 12 8
0.157776 0.258064 1.771622 -0.250949 0.288904 -0.923883 17 12 9
0.166000 0.257710 1.770216 -0.158134 0.180290 -0.970819 29 19 10
0.182738 0.257441 1.770383 0.151340 0.217443 -0.964269 33 20 10
0.208589 0.257905 1.776525 0.270677 0.058583 -0.960886 6 4 5
0.158728 0.267690 1.779686 -0.179943 0.642072 -0.745228 33 20 8
