ply
format ascii 1.0
element vertex 336
property float x
property float y
property float z
property float nx
property float ny
property float nz
property uchar red
property uchar green
property uchar blue
end_header
0.022048 0.096560 1.837730 -0.012521 -0.876911 -0.480490 24 14 12
0.039322 0.096198 1.836767 0.049361 -0.885516 -0.461979 29 16 10
0.057020 0.096468 1.847720 0.255744 -0.889443 -0.378797 61 38 19
0.075174 0.097014 1.863945 0.382232 -0.850176 -0.362076 35 20 13
0.021950 0.104389 1.823444 -0.011406 -0.836721 -0.547510 41 24 14
0.030534 0.104238 1.823496 -0.080126 -0.844983 -0.528757 41 26 15
0.039072 0.103986 1.821811 -0.037071 -0.865798 -0.499018 40 28 19
0.047776 0.104061 1.825764 0.220565 -0.887511 -0.404567 59 43 28
0.056507 0.104118 1.829412 0.321019 -0.846136 -0.425442 75 63 47
0.065439 0.104403 1.837020 0.352940 -0.836425 -0.419317 88 69 45
0.074467 0.104714 1.845116 0.387005 -0.843241 -0.373058 100 67 31
0.083644 0.105105 1.854614 0.347921 -0.839115 -0.418135 71 44 21
0.092511 0.105084 1.856981 0.277713 -0.780714 -0.559787 80 56 32
0.021922 0.112337 1.813154 -0.086202 -0.713525 -0.695307 22 16 13
0.030420 0.112082 1.811530 -0.157457 -0.751192 -0.641029 34 25 17
0.038921 0.111867 1.810546 -0.188612 -0.763136 -0.618101 50 38 24
0.047328 0.111488 1.806942 0.064374 -0.795931 -0.601955 46 27 14
0.056128 0.111827 1.814795 0.391322 -0.811034 -0.434845 46 27 13
0.065047 0.112231 1.823713 0.346058 -0.819344 -0.457077 48 30 18
0.073838 0.112349 1.828061 0.340680 -0.835595 -0.430950 79 49 23
0.082864 0.112699 1.836155 0.386326 -0.838394 -0.384510 92 62 28
0.092039 0.113128 1.845530 0.398808 -0.793582 -0.459542 42 21 11
0.101124 0.113371 1.851948 0.403145 -0.691156 -0.599815 39 22 15
0.110109 0.113461 1.855929 0.299600 -0.604359 -0.738235 21 16 13
0.119064 0.113491 1.858936 0.313523 -0.571122 -0.758633 21 16 13
0.013465 0.120639 1.807262 -0.032651 -0.613393 -0.789103 21 16 13
0.021969 0.120471 1.807040 -0.174152 -0.648786 -0.740775 71 54 29
0.030392 0.120071 1.803376 -0.242120 -0.695970 -0.676020 24 15 12
0.038825 0.119778 1.801296 -0.117483 -0.663733 -0.738686 52 43 33
0.047298 0.119609 1.801043 0.028143 -0.588763 -0.807816 52 42 29
0.055806 0.119508 1.801797 0.276160 -0.693264 -0.665673 53 34 17
0.064603 0.119856 1.809221 0.379795 -0.777701 -0.500935 62 36 14
0.073315 0.119979 1.813325 0.335163 -0.786544 -0.518666 71 43 19
0.082228 0.120310 1.820535 0.354244 -0.805846 -0.474471 69 35 12
0.091143 0.120562 1.826588 0.465583 -0.794128 -0.390632 79 50 19
0.100669 0.121417 1.841657 0.524571 -0.721061 -0.452654 35 20 12
0.109811 0.121735 1.848745 0.399180 -0.640365 -0.656192 17 13 12
0.118790 0.121833 1.852542 0.308922 -0.588977 -0.746775 20 16 13
0.127846 0.121966 1.856888 0.351767 -0.611837 -0.708460 20 15 12
0.146290 0.122393 1.868016 0.411792 -0.741807 -0.529292 23 17 14
0.013534 0.128691 1.800784 -0.117138 -0.664798 -0.737782 45 28 15
0.021983 0.128422 1.799161 -0.257220 -0.687953 -0.678645 68 51 32
0.030370 0.128008 1.795528 -0.206399 -0.678970 -0.704556 61 46 29
0.038805 0.127805 1.794819 -0.014015 -0.649959 -0.759840 56 49 35
0.047265 0.127673 1.795085 0.050753 -0.607812 -0.792457 49 41 31
0.055753 0.127589 1.796021 0.137620 -0.560033 -0.816960 71 47 26
0.064279 0.127554 1.797627 0.316168 -0.623958 -0.714643 65 40 19
0.073041 0.127855 1.803923 0.390733 -0.698975 -0.598966 33 17 11
0.081823 0.128101 1.809458 0.334104 -0.726874 -0.600024 60 27 8
0.090535 0.128188 1.812799 0.418411 -0.736963 -0.530866 56 26 10
0.099738 0.128813 1.823633 0.574303 -0.718867 -0.391672 49 29 13
0.109342 0.129757 1.838973 0.542828 -0.707824 -0.452022 25 20 17
0.118529 0.130131 1.846364 0.385873 -0.617034 -0.685836 61 43 26
0.127436 0.130171 1.849096 0.313559 -0.567834 -0.761082 22 15 13
0.136506 0.130331 1.853532 0.255645 -0.651828 -0.713979 19 14 11
0.145468 0.130365 1.856202 0.357803 -0.719498 -0.595232 20 16 15
0.155323 0.131086 1.868526 0.616133 -0.682343 -0.393431 18 14 13
0.013590 0.136622 1.793486 -0.247100 -0.625966 -0.739667 46 27 14
0.021981 0.136242 1.790524 -0.309388 -0.640867 -0.702544 17 13 10
0.030353 0.135893 1.787957 -0.142368 -0.667293 -0.731062 47 27 11
0.038769 0.135733 1.787827 0.024019 -0.661925 -0.749185 54 37 22
0.047216 0.135647 1.788672 0.108470 -0.635110 -0.764767 59 41 23
0.055700 0.135620 1.790277 0.206561 -0.585597 -0.783842 71 54 41
0.064259 0.135700 1.793284 0.215033 -0.541420 -0.812789 65 53 38
0.072809 0.135717 1.795469 0.339661 -0.604463 -0.720594 69 43 20
0.081524 0.135948 1.800454 0.344552 -0.663187 -0.664429 40 23 12
0.090202 0.136062 1.803917 0.373687 -0.669147 -0.642339 59 28 8
0.099168 0.136494 1.811552 0.503875 -0.694418 -0.513706 48 28 13
0.108313 0.137045 1.820770 0.534822 -0.750305 -0.388597 28 19 15
0.117992 0.138076 1.836290 0.535724 -0.728650 -0.426695 19 15 12
0.127225 0.138506 1.843954 0.399005 -0.614930 -0.680189 12 11 9
0.136186 0.138607 1.847325 0.241382 -0.552710 -0.797650 22 14 12
0.145035 0.138578 1.848990 0.224592 -0.556829 -0.799688 14 11 10
0.153952 0.138593 1.851233 0.575425 -0.552027 -0.603450 17 13 12
0.164490 0.139889 1.870375 0.750505 -0.543196 -0.376403 21 16 13
0.013682 0.144697 1.788779 -0.419118 -0.471440 -0.775941 22 15 13
0.022005 0.144104 1.783380 -0.352536 -0.437600 -0.827179 15 11 10
0.030348 0.143759 1.780997 -0.188476 -0.495810 -0.847732 16 11 10
0.038731 0.143594 1.780806 -0.010754 -0.592600 -0.805425 21 14 11
0.047152 0.143528 1.781834 0.182107 -0.600176 -0.778862 23 15 13
0.055633 0.143569 1.784170 0.227866 -0.547981 -0.804856 66 42 21
0.064177 0.143689 1.787481 0.203917 -0.591582 -0.780031 72 60 41
0.072671 0.143667 1.789056 0.245388 -0.619857 -0.745360 66 44 21
0.081309 0.143846 1.793098 0.343251 -0.629906 -0.696705 54 30 13
0.089970 0.144001 1.796865 0.335495 -0.635577 -0.695331 35 21 14
0.098726 0.144233 1.801576 0.379652 -0.688183 -0.618279 23 15 12
0.107595 0.144548 1.807321 0.400416 -0.766615 -0.501964 33 23 16
0.116664 0.145027 1.815107 0.496382 -0.790281 -0.359251 45 29 15
0.126540 0.146289 1.832573 0.562554 -0.727454 -0.392866 22 15 13
0.135898 0.146858 1.841514 0.373083 -0.613899 -0.695656 22 18 15
0.144723 0.146840 1.843210 0.302512 -0.478992 -0.824047 20 16 15
0.153827 0.147058 1.847828 0.565452 -0.357379 -0.743333 14 12 11
0.163738 0.147923 1.860482 0.778248 -0.347213 -0.523234 18 14 13
0.005406 0.153228 1.788069 -0.366699 -0.355414 -0.859775 19 14 11
0.013780 0.152783 1.784681 -0.351601 -0.266416 -0.897441 23 18 14
0.022141 0.152422 1.782238 -0.344923 -0.141800 -0.927858 27 18 13
0.030422 0.151852 1.777388 -0.327361 -0.236139 -0.914917 55 30 13
0.038725 0.151493 1.774975 -0.117532 -0.291098 -0.949446 58 36 15
0.047112 0.151412 1.775759 0.204155 -0.401684 -0.892732 26 20 15
0.055641 0.151639 1.780105 0.232669 -0.479320 -0.846237 21 14 12
0.064091 0.151620 1.781619 0.137795 -0.535720 -0.833077 42 27 16
0.072512 0.151519 1.782189 0.203318 -0.557853 -0.804650 29 19 16
0.081085 0.151663 1.785591 0.330300 -0.567138 -0.754490 69 48 21
0.089728 0.151861 1.789631 0.303781 -0.616141 -0.726696 76 52 22
0.098398 0.152042 1.793489 0.280609 -0.676708 -0.680680 20 14 11
0.107041 0.152139 1.796373 0.249195 -0.746914 -0.616459 28 18 16
0.115802 0.152346 1.800535 0.352914 -0.798442 -0.487793 28 20 14
0.124885 0.152870 1.808411 0.612331 -0.715548 -0.336217 40 27 18
0.135255 0.154681 1.831323 0.629454 -0.633462 -0.450015 33 27 20
0.144529 0.155170 1.838832 0.450819 -0.513216 -0.730323 21 16 14
0.153699 0.155491 1.844393 0.574890 -0.390385 -0.719098 13 11 12
0.163342 0.156188 1.854367 0.706214 -0.355056 -0.612533 13 11 10
0.005535 0.161416 1.785312 -0.286492 -0.074905 -0.955150 51 34 18
0.013913 0.161059 1.783051 -0.286156 -0.064920 -0.955981 65 47 23
0.022272 0.160711 1.780882 -0.274031 -0.109134 -0.955509 42 27 14
0.030601 0.160330 1.778347 -0.394612 -0.007816 -0.918815 55 34 16
0.038818 0.159660 1.772646 -0.157541 -0.013878 -0.987415 67 46 22
0.047253 0.159744 1.775195 0.140220 -0.061002 -0.988239 24 14 12
0.055651 0.159677 1.776101 0.084298 -0.317195 -0.944606 18 11 9
0.064030 0.159553 1.776367 0.115973 -0.402180 -0.908186 15 11 10
0.072456 0.159511 1.777546 0.181881 -0.404325 -0.896349 13 9 8
0.081012 0.159677 1.781008 0.311588 -0.471495 -0.824988 46 29 15
0.089579 0.159806 1.784074 0.225586 -0.533726 -0.815014 69 43 17
0.098085 0.159802 1.785679 0.191581 -0.628375 -0.753951 64 40 18
0.106664 0.159875 1.788137 0.165791 -0.678294 -0.715842 44 32 19
0.115169 0.159824 1.789224 0.198247 -0.726122 -0.658365 33 25 17
0.123955 0.160094 1.793872 0.618560 -0.643120 -0.451420 54 37 18
0.134181 0.161928 1.815808 0.784831 -0.499398 -0.366937 35 22 14
0.144173 0.163290 1.832568 0.608496 -0.535723 -0.585434 18 13 13
0.153373 0.163695 1.838767 0.575275 -0.465181 -0.672804 18 14 13
0.162942 0.164394 1.848223 0.675657 -0.405644 -0.615582 17 13 12
0.005695 0.169910 1.785965 -0.207266 0.184412 -0.960746 52 34 17
0.014080 0.169560 1.783887 -0.297901 0.189104 -0.935679 49 36 20
0.022416 0.169060 1.780257 -0.332325 0.088397 -0.939013 48 28 11
0.030751 0.168697 1.778027 -0.332413 0.006972 -0.943108 24 13 9
0.039036 0.168234 1.774762 -0.171789 0.039612 -0.984337 26 15 10
0.047388 0.168055 1.774450 -0.091328 -0.136650 -0.986400 13 9 8
0.055672 0.167710 1.772403 -0.077658 -0.247432 -0.965788 12 10 9
0.064074 0.167674 1.773582 0.147525 -0.296693 -0.943509 11 10 8
0.072538 0.167741 1.775826 0.142965 -0.295170 -0.944688 13 9 8
0.080948 0.167667 1.776609 0.187562 -0.395720 -0.899014 37 22 11
0.089462 0.167756 1.779097 0.160199 -0.513828 -0.842803 57 39 21
0.097894 0.167679 1.779850 0.101392 -0.562721 -0.820405 42 31 18
0.106361 0.167642 1.781029 0.159793 -0.598677 -0.784890 52 40 25
0.114890 0.167672 1.782907 0.136556 -0.584055 -0.800145 70 46 22
0.123365 0.167612 1.783843 0.576057 -0.518415 -0.631984 66 39 13
0.133581 0.169591 1.806201 0.840540 -0.376829 -0.389221 50 33 15
0.143650 0.171167 1.824359 0.703128 -0.475284 -0.528881 19 13 10
0.152994 0.171794 1.832566 0.535214 -0.570657 -0.622813 17 13 10
0.162581 0.172585 1.842506 0.601515 -0.595217 -0.532819 14 11 10
0.172437 0.173538 1.854181 0.602612 -0.658542 -0.450756 15 11 12
0.005867 0.178529 1.787775 -0.223614 0.120338 -0.967221 44 28 13
0.014270 0.178231 1.786305 -0.228124 0.110347 -0.967359 52 34 16
0.022632 0.177785 1.783376 -0.393968 0.218688 -0.892729 37 23 13
0.030918 0.177134 1.778407 -0.437990 0.140898 -0.887870 42 23 10
0.039193 0.176609 1.774686 -0.270057 0.004967 -0.962832 57 37 15
0.047535 0.176399 1.774069 -0.227004 -0.130675 -0.965087 56 40 20
0.055768 0.175912 1.770714 -0.120422 -0.222545 -0.967457 52 39 21
0.064167 0.175892 1.771984 0.093266 -0.279925 -0.955481 12 8 7
0.072562 0.175834 1.772889 0.090502 -0.384007 -0.918884 38 24 15
0.080946 0.175740 1.773429 0.074930 -0.434663 -0.897470 40 30 21
0.089357 0.175683 1.774334 0.084242 -0.488396 -0.868546 75 60 38
0.097735 0.175558 1.774570 0.065178 -0.523274 -0.849668 69 51 29
0.106168 0.175512 1.775596 0.161495 -0.516273 -0.841060 61 40 18
0.114671 0.175549 1.777444 0.198847 -0.487034 -0.850446 63 41 18
0.123209 0.175609 1.779536 0.542301 -0.432203 -0.720493 39 23 14
0.133122 0.177342 1.798361 0.845417 -0.357806 -0.396542 17 12 9
0.143235 0.179097 1.817429 0.712523 -0.466822 -0.523821 27 20 14
0.152534 0.179749 1.825483 0.442413 -0.615851 -0.651919 18 14 13
0.161531 0.180001 1.829551 0.398242 -0.719261 -0.569268 9 7 8
0.170920 0.180605 1.837148 0.476622 -0.769252 -0.425538 15 11 10
0.180840 0.181644 1.849125 0.520432 -0.772398 -0.364077 15 12 12
-0.002389 0.187434 1.790687 -0.205661 0.152072 -0.966736 58 45 27
0.006037 0.187145 1.789370 -0.295567 0.114075 -0.948487 53 47 31
0.014415 0.186588 1.785528 -0.275290 0.026051 -0.961008 54 45 28
0.022804 0.186297 1.784181 -0.290957 0.003351 -0.956730 59 42 23
0.031127 0.185763 1.780551 -0.496311 0.125454 -0.859032 40 28 19
0.039348 0.184983 1.774579 -0.434842 -0.007939 -0.900472 51 37 21
0.047600 0.184481 1.771224 -0.313053 -0.221079 -0.923646 45 38 26
0.055881 0.184146 1.769451 -0.095670 -0.087366 -0.991572 40 27 13
0.064214 0.183981 1.769292 -0.042174 -0.188888 -0.981093 46 28 13
0.072530 0.183781 1.768797 -0.039407 -0.338248 -0.940232 19 11 9
0.080868 0.183632 1.768789 -0.001691 -0.474640 -0.880178 24 15 13
0.089249 0.183563 1.769542 0.055096 -0.523466 -0.850263 66 41 16
0.097617 0.183459 1.769960 0.072777 -0.511015 -0.856486 36 20 10
0.106021 0.183406 1.770865 0.201530 -0.470528 -0.859063 42 26 14
0.114572 0.183554 1.773686 0.244112 -0.412076 -0.877840 63 47 25
0.123090 0.183619 1.775717 0.496851 -0.380998 -0.779731 54 33 15
0.132474 0.184779 1.788212 0.799604 -0.412440 -0.436493 40 26 17
0.142738 0.186864 1.809559 0.719913 -0.512032 -0.468560 69 38 16
0.151971 0.187520 1.817277 0.422942 -0.610977 -0.669198 27 17 15
0.160849 0.187704 1.820493 0.287143 -0.673863 -0.680777 23 18 15
0.169862 0.187996 1.824742 0.377145 -0.727527 -0.573119 17 13 12
0.179225 0.188594 1.831942 0.461200 -0.762587 -0.453603 13 11 10
-0.002225 0.196125 1.792738 -0.337398 -0.072245 -0.938586 58 45 27
0.006196 0.195644 1.789748 -0.311943 -0.082946 -0.946473 64 47 23
0.014585 0.195137 1.786515 -0.329711 -0.070246 -0.941465 63 44 21
0.022949 0.194660 1.783555 -0.295050 -0.086087 -0.951596 54 43 25
0.031295 0.194228 1.780991 -0.397639 -0.034758 -0.916883 55 39 21
0.039536 0.193483 1.775598 -0.565138 0.074455 -0.821630 44 31 17
0.047708 0.192683 1.769688 -0.290907 -0.029025 -0.956311 48 24 11
0.056048 0.192527 1.769619 -0.097708 -0.077142 -0.992221 49 29 12
0.064310 0.192174 1.767756 -0.182183 -0.165697 -0.969203 10 8 9
0.072571 0.191858 1.766227 -0.151691 -0.195691 -0.968863 12 10 8
0.080792 0.191489 1.764211 -0.142360 -0.260891 -0.954814 23 20 15
0.089133 0.191387 1.764630 0.043500 -0.415472 -0.908565 19 11 9
0.097473 0.191276 1.764956 0.082034 -0.436925 -0.895749 33 19 11
0.105906 0.191311 1.766622 0.241600 -0.407929 -0.880468 62 38 18
0.114482 0.191540 1.770051 0.340677 -0.340247 -0.876453 66 40 15
0.123016 0.191661 1.772507 0.461771 -0.241419 -0.853513 45 24 12
0.132047 0.192422 1.780803 0.754522 -0.313783 -0.576400 31 16 9
0.141840 0.194050 1.797037 0.776316 -0.441522 -0.449880 31 18 10
0.151520 0.195353 1.810320 0.489696 -0.577371 -0.653330 34 19 11
0.160393 0.195583 1.813810 0.249223 -0.630747 -0.734879 32 23 16
0.169205 0.195709 1.816355 0.269862 -0.669616 -0.691946 9 7 8
0.178172 0.195971 1.820148 0.387421 -0.689029 -0.612489 16 12 11
0.006318 0.203713 1.786354 -0.253214 -0.257753 -0.932441 38 22 13
0.014720 0.203412 1.785037 -0.268244 -0.149138 -0.951737 45 26 12
0.023077 0.202918 1.782048 -0.302452 -0.149177 -0.941419 52 34 16
0.031434 0.202555 1.780184 -0.332667 -0.171661 -0.927289 41 25 13
0.039706 0.201925 1.776008 -0.490427 -0.026161 -0.871089 58 38 16
0.047888 0.201117 1.770282 -0.433962 0.036518 -0.900191 52 35 15
0.056168 0.200773 1.768570 -0.213888 -0.113882 -0.970197 52 26 9
0.064432 0.200425 1.766829 -0.121912 -0.102417 -0.987243 9 7 8
0.072743 0.200231 1.766426 -0.192584 -0.043091 -0.980334 16 11 10
0.080886 0.199678 1.762890 -0.196250 0.039223 -0.979769 13 12 10
0.089181 0.199495 1.762578 -0.069254 -0.098727 -0.992702 21 14 11
0.097401 0.199180 1.761110 0.068975 -0.147532 -0.986649 11 10 8
0.105892 0.199352 1.763900 0.269561 -0.145848 -0.951875 52 33 16
0.114406 0.199518 1.766630 0.394882 -0.145101 -0.907201 54 35 18
0.123134 0.199964 1.771823 0.494085 -0.072289 -0.866403 52 39 23
0.132019 0.200560 1.778323 0.684258 -0.185543 -0.705240 47 38 23
0.141439 0.201783 1.790328 0.788595 -0.318933 -0.525738 52 31 12
0.151150 0.203226 1.804278 0.549818 -0.471076 -0.689773 37 20 10
0.159926 0.203390 1.807037 0.214890 -0.578106 -0.787157 11 9 10
0.168643 0.203456 1.808944 0.217577 -0.619015 -0.754639 11 9 10
0.177484 0.203637 1.811855 0.358126 -0.638231 -0.681475 11 9 10
0.186811 0.204291 1.818931 0.491921 -0.641081 -0.589092 17 13 12
0.014859 0.211720 1.783925 -0.338046 -0.008161 -0.941094 39 24 12
0.023203 0.211154 1.780450 -0.347757 -0.057257 -0.935835 18 11 9
0.031536 0.210694 1.777856 -0.295712 -0.120774 -0.947612 31 17 9
0.039868 0.210337 1.776114 -0.352176 0.132339 -0.926530 27 16 11
0.048042 0.209473 1.770145 -0.443689 0.066090 -0.893741 37 23 11
0.056243 0.208869 1.766335 -0.234028 0.015185 -0.972111 34 21 13
0.064564 0.208699 1.766145 -0.099505 -0.051739 -0.993691 10 8 9
0.072844 0.208430 1.765134 -0.102343 -0.120713 -0.987398 11 9 7
0.081134 0.208206 1.764487 -0.136873 -0.003769 -0.990582 11 7 6
0.089406 0.207956 1.763628 -0.036702 0.163883 -0.985797 9 8 6
0.097651 0.207670 1.762465 0.068619 0.281257 -0.957176 10 8 11
0.106075 0.207722 1.764130 0.245698 0.303014 -0.920769 13 9 8
0.114631 0.207966 1.767406 0.387447 0.259718 -0.884552 47 28 13
0.123344 0.208405 1.772324 0.458718 0.269062 -0.846867 49 27 9
0.132069 0.208792 1.776817 0.514388 0.111227 -0.850314 42 32 20
0.141160 0.209624 1.785049 0.731320 -0.054178 -0.679880 49 32 14
0.150851 0.211138 1.799028 0.580876 -0.385273 -0.717041 47 26 8
0.159621 0.211337 1.801969 0.199131 -0.464005 -0.863160 15 9 9
0.168242 0.211327 1.803146 0.164222 -0.510956 -0.843774 7 5 6
0.177009 0.211467 1.805600 0.284576 -0.556691 -0.780456 12 11 9
0.185951 0.211770 1.809423 0.533755 -0.413461 -0.737669 15 11 10
0.015044 0.220404 1.785885 -0.327789 0.042935 -0.943775 43 25 12
0.023389 0.219764 1.781954 -0.388372 0.111115 -0.914779 28 15 10
0.031680 0.219038 1.777323 -0.179851 0.174493 -0.968094 23 14 9
0.040115 0.219120 1.779170 -0.186464 0.314777 -0.930670 20 12 10
0.048261 0.218065 1.771894 -0.430856 0.373872 -0.821330 25 13 7
0.056516 0.217590 1.769271 -0.289280 0.394271 -0.872277 11 9 8
0.064742 0.217101 1.766526 -0.262622 0.260951 -0.928942 21 17 13
0.072971 0.216688 1.764390 -0.134491 0.038570 -0.990164 20 12 9
0.081265 0.216476 1.763865 0.069175 0.074585 -0.994812 7 5 6
0.089735 0.216653 1.766472 0.251682 0.367014 -0.895521 9 7 8
0.098226 0.216822 1.769019 0.180022 0.616887 -0.766187 9 7 8
0.106647 0.216818 1.770166 0.167562 0.565478 -0.807563 24 15 12
0.115122 0.216884 1.771891 0.309484 0.540359 -0.782453 33 20 13
0.123911 0.217433 1.777508 0.296759 0.446552 -0.844112 33 20 12
0.132446 0.217510 1.779324 0.447354 0.340691 -0.826925 39 23 10
0.141626 0.218490 1.788437 0.597236 0.255017 -0.760444 27 14 8
0.150664 0.219156 1.795026 0.472022 -0.066762 -0.879055 7 5 6
0.159457 0.219423 1.798392 0.216529 -0.364711 -0.905595 6 4 5
0.168042 0.219392 1.799357 0.190496 -0.279482 -0.941064 7 5 6
0.176636 0.219361 1.800321 0.449239 -0.160372 -0.878900 7 5 6
0.186663 0.220928 1.814235 0.803130 0.264286 -0.533981 8 6 7
0.006785 0.229097 1.786606 -0.135869 -0.078764 -0.987591 14 10 9
0.015194 0.228802 1.785472 -0.308261 -0.062488 -0.949247 12 8 8
0.023542 0.228167 1.781724 -0.316080 -0.075602 -0.945715 11 10 8
0.031913 0.227848 1.780408 -0.071965 0.030281 -0.996947 11 8 7
0.040323 0.227754 1.780826 -0.131242 0.058915 -0.989598 34 21 10
0.048624 0.227227 1.777899 -0.305425 0.316828 -0.897962 8 6 7
0.056896 0.226696 1.774942 -0.246653 0.477583 -0.843254 9 7 8
0.065127 0.226127 1.771680 -0.378048 0.490919 -0.784907 14 8 8
0.073206 0.225232 1.765896 -0.290472 0.373825 -0.880841 21 13 10
0.081481 0.224950 1.764854 0.184672 0.392709 -0.900931 10 6 5
0.090197 0.225678 1.771626 0.475351 0.535966 -0.697698 20 17 12
0.099139 0.226737 1.780982 0.252014 0.605526 -0.754869 27 22 17
0.107384 0.226286 1.778633 0.057313 0.682168 -0.728946 26 15 9
0.115957 0.226463 1.781148 0.153566 0.557279 -0.816001 17 11 8
0.124438 0.226443 1.782143 0.160138 0.456642 -0.875119 16 12 9
0.133063 0.226633 1.784780 0.485915 0.359038 -0.796855 28 17 10
0.142012 0.227270 1.790882 0.523070 0.142760 -0.840248 9 8 6
0.150873 0.227698 1.795372 0.240293 0.033429 -0.970125 7 5 6
0.159360 0.227567 1.795516 0.149658 -0.014207 -0.988636 6 4 6
0.167926 0.227533 1.796419 0.298764 0.013866 -0.954226 9 7 8
0.177064 0.228186 1.802672 0.604879 0.212955 -0.767315 6 4 6
0.188391 0.231315 1.828256 0.810364 0.418628 -0.409953 9 7 8
0.015336 0.237124 1.784513 -0.330432 0.119620 -0.936219 49 28 15
0.023677 0.236455 1.780643 -0.335074 0.207845 -0.918981 46 29 14
0.032038 0.236093 1.779054 -0.044229 -0.012866 -0.998939 46 28 12
0.040455 0.236059 1.779897 -0.028192 0.039322 -0.998829 41 21 11
0.048824 0.235800 1.779068 -0.128142 -0.096208 -0.987078 15 10 7
0.057201 0.235598 1.778665 -0.126944 -0.004306 -0.991901 20 12 9
0.065535 0.235274 1.777350 -0.267715 0.123274 -0.955579 16 8 6
0.073642 0.234351 1.771566 -0.205614 0.501363 -0.840451 23 15 11
0.082115 0.234491 1.773716 0.374933 0.532870 -0.758601 16 10 7
0.090846 0.235185 1.780001 0.488488 0.464370 -0.738742 37 22 9
0.099596 0.235789 1.785616 0.324105 0.383479 -0.864812 51 36 17
0.108108 0.235810 1.786884 0.015017 0.443810 -0.895995 24 13 7
0.116460 0.235510 1.785751 -0.040243 0.388618 -0.920520 29 16 9
0.168731 0.236867 1.802630 0.291039 0.512514 -0.807853 5 3 4
0.024075 0.246590 1.792877 -0.475054 0.699992 -0.533231 33 17 5
0.032225 0.244679 1.780223 -0.111974 0.543382 -0.831984 25 15 7
0.040761 0.245186 1.784927 -0.138388 0.640571 -0.755326 22 14 11
0.048893 0.243849 1.776377 -0.306003 0.164865 -0.937647 37 23 12
0.057262 0.243658 1.776065 -0.100921 0.008618 -0.994857 43 27 11
0.065582 0.243320 1.774689 -0.059675 0.036145 -0.997563 30 17 9
0.073974 0.243222 1.775046 0.111979 0.307649 -0.944888 15 11 8
0.082617 0.243774 1.780083 0.461713 0.459864 -0.758516 11 7 6
0.091307 0.244320 1.785090 0.357718 0.370844 -0.857037 14 8 8
0.099973 0.244706 1.788942 0.208208 0.235399 -0.949335 17 9 7
0.108430 0.244586 1.789146 -0.022903 0.212031 -0.976995 25 14 9
0.032757 0.255306 1.795464 -0.162040 0.812096 -0.560574 21 15 11
0.049387 0.253672 1.786177 -0.463455 0.661403 -0.589708 35 22 9
0.057528 0.252457 1.778754 -0.201018 0.581002 -0.788688 26 15 11
0.065905 0.252252 1.778350 -0.015110 0.457263 -0.889203 21 13 10
0.074327 0.252190 1.778950 0.376725 0.415012 -0.828157 29 16 7
0.083160 0.253224 1.787177 0.351324 0.442759 -0.824946 8 7 5
0.091618 0.253131 1.787564 0.240229 0.211397 -0.947418 8 7 5
0.100215 0.253348 1.790109 0.153632 0.128016 -0.979800 6 4 5
0.058195 0.262814 1.791743 -0.210059 0.769656 -0.602914 26 14 5
