ply
format ascii 1.0
element vertex 325
property float x
property float y
property float z
property float nx
property float ny
property float nz
property uchar red
property uchar green
property uchar blue
end_header
0.247327 0.104902 1.901377 -0.468906 -0.882975 -0.021940 39 24 13
0.249082 0.101897 1.850563 -0.459023 -0.847921 -0.265195 33 22 15
0.257467 0.101613 1.848269 -0.223854 -0.904947 -0.361884 65 47 30
0.265555 0.101226 1.844148 -0.206410 -0.920949 -0.330528 67 52 33
0.273727 0.100885 1.840819 -0.107943 -0.916619 -0.384914 89 63 34
0.282148 0.100640 1.839226 0.064637 -0.880257 -0.470074 80 53 28
0.291340 0.100660 1.842384 0.332090 -0.824076 -0.458929 77 49 25
0.301950 0.101130 1.853673 0.449723 -0.794886 -0.407314 76 52 28
0.312373 0.101505 1.863287 0.233406 -0.832041 -0.503218 58 37 19
0.321113 0.101333 1.863033 0.140729 -0.774441 -0.616795 33 26 21
0.224759 0.111883 1.863479 -0.436627 -0.803733 -0.404190 19 13 11
0.232581 0.111283 1.856221 -0.443476 -0.831270 -0.335141 30 21 13
0.239670 0.110391 1.844121 -0.582665 -0.751757 -0.308809 37 24 14
0.247103 0.109696 1.835250 -0.473627 -0.751242 -0.459688 42 26 11
0.254863 0.109173 1.829180 -0.367913 -0.814011 -0.449474 27 21 15
0.262810 0.108748 1.824725 -0.205788 -0.842358 -0.498081 38 27 17
0.271329 0.108562 1.824199 -0.025192 -0.821081 -0.570256 68 54 38
0.280049 0.108453 1.824951 0.118173 -0.801921 -0.585626 65 53 32
0.289135 0.108475 1.827865 0.258324 -0.801731 -0.538978 69 39 14
0.298934 0.108738 1.834799 0.411692 -0.792823 -0.449378 84 53 21
0.309606 0.109276 1.846329 0.411295 -0.803968 -0.429502 79 49 21
0.319407 0.109485 1.852409 0.310165 -0.752862 -0.580515 20 16 14
0.329018 0.109612 1.857150 0.429699 -0.671196 -0.604031 25 20 16
0.343663 0.111314 1.888196 0.178626 -0.957985 -0.224404 19 14 11
0.350372 0.110478 1.876890 -0.031528 -0.952359 -0.303347 27 19 16
0.223170 0.119758 1.849535 -0.419201 -0.760507 -0.495882 17 13 10
0.231177 0.119249 1.844166 -0.519728 -0.634196 -0.572432 21 17 13
0.238765 0.118566 1.836118 -0.664094 -0.542952 -0.513988 33 20 12
0.246143 0.117822 1.827126 -0.604019 -0.608114 -0.515130 12 9 8
0.253682 0.117189 1.819810 -0.457563 -0.677485 -0.575890 21 16 12
0.261664 0.116778 1.815873 -0.201539 -0.706959 -0.677932 50 37 21
0.270118 0.116581 1.815195 -0.048406 -0.715952 -0.696469 56 35 15
0.278747 0.116457 1.815643 0.083894 -0.741114 -0.666117 49 30 15
0.287644 0.116435 1.817674 0.213882 -0.737681 -0.640376 49 31 17
0.296867 0.116531 1.821501 0.301130 -0.759952 -0.576015 67 36 12
0.306490 0.116759 1.827398 0.404451 -0.790855 -0.459313 78 42 15
0.317228 0.117368 1.839171 0.494497 -0.745817 -0.446352 22 17 13
0.327927 0.117921 1.850121 0.436446 -0.660320 -0.611140 22 18 16
0.337488 0.118050 1.854525 0.231095 -0.804944 -0.546498 25 17 14
0.346778 0.118073 1.857316 0.220063 -0.774295 -0.593330 22 14 12
0.356126 0.118106 1.860259 0.190282 -0.715982 -0.671686 21 17 16
0.222273 0.127886 1.841014 -0.332271 -0.536553 -0.775698 19 14 11
0.230623 0.127556 1.838539 -0.552881 -0.511277 -0.657966 18 14 11
0.237876 0.126676 1.828239 -0.700481 -0.545603 -0.460048 20 15 12
0.245147 0.125856 1.818762 -0.613125 -0.586566 -0.529168 43 29 15
0.252718 0.125224 1.811934 -0.450446 -0.625319 -0.637240 13 9 8
0.260784 0.124850 1.808789 -0.219299 -0.674979 -0.704493 40 33 23
0.269105 0.124606 1.807472 -0.111677 -0.709750 -0.695545 47 43 34
0.277542 0.124416 1.806946 0.009691 -0.736710 -0.676140 60 47 31
0.286308 0.124367 1.808429 0.183115 -0.736928 -0.650697 40 20 8
0.295416 0.124452 1.811829 0.240350 -0.727667 -0.642443 63 37 17
0.304465 0.124500 1.814712 0.275522 -0.752431 -0.598276 64 30 5
0.314042 0.124740 1.820365 0.452798 -0.763223 -0.460940 53 27 10
0.325617 0.125709 1.836519 0.519056 -0.744365 -0.420121 36 26 17
0.336040 0.126198 1.845793 0.374216 -0.706470 -0.600718 19 15 12
0.345266 0.126227 1.848462 0.321092 -0.603171 -0.730127 21 16 13
0.355052 0.126441 1.853809 0.305972 -0.524999 -0.794202 15 11 10
0.364231 0.126431 1.855930 0.207569 -0.430122 -0.878584 13 11 9
0.222047 0.136331 1.837762 -0.501565 -0.406100 -0.763882 10 9 9
0.229846 0.135685 1.831239 -0.713024 -0.436150 -0.548972 19 14 11
0.236863 0.134648 1.819480 -0.728450 -0.495170 -0.473463 19 14 11
0.244349 0.133918 1.811800 -0.602430 -0.546035 -0.582172 69 54 31
0.251888 0.133254 1.804973 -0.474870 -0.593772 -0.649563 53 40 23
0.259796 0.132805 1.801007 -0.285095 -0.672050 -0.683425 43 30 14
0.268001 0.132516 1.799173 -0.128859 -0.697249 -0.705152 47 40 29
0.276311 0.132284 1.798099 -0.041309 -0.723328 -0.689268 63 51 39
0.284920 0.132191 1.798882 0.133890 -0.728584 -0.671743 50 34 21
0.293968 0.132286 1.802191 0.236937 -0.741606 -0.627600 58 40 20
0.303091 0.132399 1.805743 0.236050 -0.733062 -0.637888 48 26 10
0.312100 0.132450 1.808474 0.281307 -0.748000 -0.601134 56 33 16
0.321890 0.132803 1.815282 0.459871 -0.775973 -0.431722 24 16 11
0.333232 0.133735 1.829912 0.511209 -0.765716 -0.390313 37 24 15
0.344274 0.134498 1.842288 0.500317 -0.610813 -0.613669 41 27 14
0.354154 0.134783 1.848244 0.415623 -0.438689 -0.796749 23 17 17
0.363762 0.134948 1.852586 0.239810 -0.446850 -0.861868 18 17 16
0.372978 0.134960 1.854859 0.342286 -0.467809 -0.814859 12 11 9
0.221896 0.144794 1.835090 -0.674396 -0.423823 -0.604619 12 11 9
0.229375 0.143933 1.826254 -0.770671 -0.450681 -0.450504 26 20 14
0.236097 0.142682 1.812518 -0.717266 -0.500064 -0.485247 57 38 18
0.243637 0.141965 1.805449 -0.593423 -0.539974 -0.596889 39 29 19
0.251164 0.141279 1.798745 -0.512382 -0.567113 -0.644862 18 13 10
0.258881 0.140727 1.793715 -0.291233 -0.570826 -0.767685 39 19 8
0.267143 0.140476 1.792458 -0.213194 -0.589456 -0.779160 43 29 16
0.275108 0.140085 1.789437 -0.103103 -0.592459 -0.798975 50 31 16
0.283844 0.140077 1.791224 0.105347 -0.663271 -0.740928 78 57 36
0.292519 0.140031 1.792555 0.129770 -0.716129 -0.685798 68 56 35
0.301458 0.140099 1.795316 0.248292 -0.758027 -0.603113 65 43 19
0.310694 0.140284 1.799568 0.184591 -0.768362 -0.612818 48 29 14
0.319542 0.140286 1.801507 0.290750 -0.786339 -0.545102 31 22 17
0.329386 0.140694 1.808588 0.433192 -0.799552 -0.416007 33 23 15
0.341028 0.141800 1.824554 0.582330 -0.733728 -0.350050 40 24 13
0.353528 0.143182 1.844049 0.537320 -0.583214 -0.609219 22 18 13
0.363043 0.143340 1.848025 0.204086 -0.511832 -0.834492 42 30 16
0.371870 0.143224 1.848533 0.316335 -0.544326 -0.776944 20 16 13
0.382447 0.143749 1.857195 0.501391 -0.564176 -0.655981 16 12 12
0.228378 0.151801 1.817315 -0.747819 -0.519235 -0.413718 30 23 15
0.235337 0.150658 1.805620 -0.683770 -0.470481 -0.557769 41 25 12
0.242884 0.149931 1.798825 -0.608783 -0.492694 -0.621801 15 10 9
0.250456 0.149258 1.792640 -0.469295 -0.504606 -0.724662 18 13 9
0.258493 0.148875 1.789893 -0.251618 -0.462645 -0.850087 13 9 8
0.266551 0.148519 1.787450 -0.242759 -0.420507 -0.874209 14 8 8
0.274675 0.148209 1.785555 -0.184009 -0.385805 -0.904044 20 15 12
0.282994 0.148007 1.784939 -0.001008 -0.488684 -0.872460 15 10 8
0.291531 0.147915 1.785630 -0.003593 -0.586520 -0.809927 70 52 30
0.299835 0.147708 1.784953 0.077714 -0.677066 -0.731808 40 28 16
0.308978 0.147894 1.788961 0.206571 -0.739888 -0.640230 67 47 23
0.317580 0.147817 1.789835 0.165565 -0.750632 -0.639641 60 38 15
0.326994 0.148093 1.794938 0.314346 -0.776662 -0.545878 22 17 14
0.336315 0.148308 1.799310 0.434251 -0.790875 -0.431211 32 22 13
0.349529 0.150134 1.822971 0.606359 -0.732415 -0.309674 55 40 20
0.361981 0.151551 1.841793 0.386529 -0.702168 -0.597960 43 26 16
0.370806 0.151449 1.842422 0.214285 -0.588301 -0.779734 22 17 13
0.380730 0.151772 1.848163 0.387673 -0.641467 -0.661989 26 18 16
0.390644 0.152069 1.853598 0.343951 -0.719935 -0.602820 18 14 11
0.227467 0.159645 1.809047 -0.685680 -0.506439 -0.522840 39 23 10
0.234954 0.158815 1.801462 -0.624628 -0.445131 -0.641637 13 9 8
0.242287 0.157935 1.793299 -0.640126 -0.465103 -0.611489 9 8 6
0.249905 0.157276 1.787601 -0.369631 -0.487051 -0.791299 15 10 7
0.258076 0.156973 1.785889 -0.180691 -0.415044 -0.891678 20 12 9
0.266341 0.156733 1.784877 -0.199284 -0.364887 -0.909474 41 24 9
0.274326 0.156344 1.782192 -0.206062 -0.377861 -0.902640 32 23 12
0.282544 0.156093 1.781058 -0.106179 -0.436177 -0.893575 14 8 8
0.290798 0.155867 1.780198 -0.074253 -0.447825 -0.891033 15 9 9
0.299034 0.155636 1.779277 -0.043573 -0.439230 -0.897317 11 7 6
0.307509 0.155526 1.779726 0.167423 -0.537298 -0.826608 16 12 11
0.316524 0.155673 1.783064 0.179318 -0.585539 -0.790562 60 39 17
0.325121 0.155608 1.784029 0.227955 -0.604862 -0.763006 74 48 21
0.334421 0.155858 1.788553 0.295511 -0.700304 -0.649806 54 47 31
0.343740 0.156097 1.792956 0.467340 -0.756975 -0.456708 58 33 11
0.357377 0.158179 1.818255 0.593446 -0.747710 -0.297912 65 35 10
0.369740 0.159618 1.836313 0.402830 -0.706559 -0.581809 40 25 13
0.379090 0.159744 1.839498 0.250235 -0.652558 -0.715228 13 10 8
0.388365 0.159827 1.842196 0.263870 -0.725236 -0.635929 12 10 11
0.398176 0.160109 1.847174 0.303919 -0.751622 -0.585404 16 12 11
0.226523 0.167391 1.800538 -0.443925 -0.580348 -0.682734 28 19 11
0.234533 0.166910 1.797031 -0.543227 -0.468093 -0.696989 11 10 8
0.241597 0.165828 1.787136 -0.604959 -0.278360 -0.746016 28 19 14
0.249483 0.165331 1.783447 -0.349291 -0.302264 -0.886923 44 27 11
0.257695 0.165058 1.782130 -0.111561 -0.316093 -0.942146 30 17 8
0.265986 0.164839 1.781392 -0.229361 -0.364370 -0.902567 53 39 19
0.274044 0.164489 1.779255 -0.217481 -0.394301 -0.892877 42 26 11
0.282128 0.164165 1.777391 -0.090643 -0.398778 -0.912557 12 8 7
0.290621 0.164075 1.778022 -0.123751 -0.380595 -0.916424 11 9 8
0.298532 0.163672 1.775307 -0.049363 -0.375943 -0.925327 10 8 7
0.307253 0.163701 1.777215 0.097805 -0.375601 -0.921606 10 9 7
0.315717 0.163591 1.777633 0.186171 -0.435610 -0.880673 36 21 10
0.324630 0.163699 1.780393 0.175381 -0.458946 -0.870982 43 32 19
0.333309 0.163682 1.781814 0.186447 -0.528337 -0.828310 50 36 18
0.342136 0.163728 1.783904 0.272124 -0.629285 -0.727976 76 55 26
0.351437 0.163979 1.788215 0.537228 -0.687658 -0.488378 57 38 23
0.365399 0.166278 1.814574 0.611461 -0.724608 -0.317898 22 17 14
0.377670 0.167732 1.831870 0.393355 -0.723257 -0.567602 35 24 15
0.386723 0.167749 1.833716 0.164233 -0.674517 -0.719760 41 25 15
0.395944 0.167828 1.836231 0.232270 -0.731346 -0.641236 24 19 15
0.405579 0.168065 1.840448 0.256943 -0.766859 -0.588140 16 12 9
0.225829 0.175245 1.793918 -0.217047 -0.389563 -0.895059 40 27 13
0.234132 0.174980 1.792754 -0.464774 -0.270329 -0.843153 33 19 9
0.241889 0.174344 1.787848 -0.488002 0.000597 -0.872842 48 35 19
0.249307 0.173515 1.780966 -0.357921 -0.015765 -0.933619 40 30 18
0.257662 0.173334 1.780654 -0.195064 -0.144563 -0.970078 34 20 7
0.265555 0.172866 1.777422 -0.295853 -0.231946 -0.926646 21 12 7
0.273640 0.172534 1.775558 -0.294293 -0.339902 -0.893229 20 11 6
0.281732 0.172217 1.773847 -0.130442 -0.438688 -0.889122 18 11 8
0.290100 0.172067 1.773839 -0.081134 -0.464011 -0.882106 31 23 15
0.298383 0.171870 1.773345 -0.017683 -0.447092 -0.894313 10 6 5
0.306766 0.171729 1.773428 0.067821 -0.441924 -0.894485 24 18 13
0.315252 0.171643 1.774059 0.101089 -0.469428 -0.877165 38 29 19
0.323976 0.171675 1.775906 0.172928 -0.509349 -0.843006 58 46 26
0.332623 0.171660 1.777266 0.100562 -0.532283 -0.840573 36 18 5
0.341168 0.171587 1.778049 0.184688 -0.557995 -0.809032 42 30 18
0.350157 0.171723 1.780960 0.416261 -0.553122 -0.721653 56 39 21
0.360257 0.172363 1.789040 0.631081 -0.608141 -0.481562 38 19 8
0.373563 0.174427 1.811716 0.619831 -0.697465 -0.359656 72 47 20
0.385414 0.175742 1.826759 0.337600 -0.715994 -0.611047 23 15 9
0.394269 0.175689 1.827783 0.114131 -0.675525 -0.728450 31 22 15
0.403281 0.175697 1.829446 0.185594 -0.730358 -0.657368 11 9 10
0.412685 0.175862 1.832721 0.226527 -0.757420 -0.612373 19 15 14
0.225986 0.183702 1.793687 -0.501784 0.140911 -0.853439 41 28 13
0.233767 0.183040 1.788752 -0.354834 -0.001764 -0.934928 46 37 20
0.242150 0.182848 1.788348 -0.241948 0.090061 -0.966100 43 30 11
0.250003 0.182288 1.784386 -0.500484 0.231238 -0.834293 40 24 9
0.257753 0.181685 1.779999 -0.282051 0.098555 -0.954324 21 12 5
0.265850 0.181337 1.778075 -0.450851 0.002665 -0.892595 31 17 6
0.273190 0.180518 1.771589 -0.414529 -0.242960 -0.877004 46 28 11
0.281229 0.180171 1.769666 -0.246359 -0.376739 -0.892958 37 27 15
0.289323 0.179868 1.768168 -0.092841 -0.481763 -0.871370 30 20 11
0.297714 0.179748 1.768434 -0.007255 -0.500897 -0.865477 33 21 9
0.306069 0.179605 1.768486 0.035325 -0.500819 -0.864831 25 14 10
0.314573 0.179544 1.769330 0.055664 -0.516328 -0.854580 18 11 8
0.323079 0.179479 1.770143 0.118971 -0.564664 -0.816701 44 23 12
0.331723 0.179483 1.771625 0.129152 -0.551278 -0.824265 53 29 10
0.340212 0.179400 1.772256 0.163042 -0.492121 -0.855122 67 47 22
0.349119 0.179522 1.774893 0.381054 -0.465059 -0.799073 67 39 15
0.358854 0.180036 1.781361 0.593827 -0.438317 -0.674721 41 22 8
0.369505 0.180957 1.791811 0.718369 -0.473022 -0.510094 39 26 17
0.382257 0.182809 1.811382 0.649018 -0.569760 -0.504132 48 27 9
0.392927 0.183623 1.820828 0.240646 -0.621158 -0.745823 36 22 13
0.401705 0.183550 1.821609 0.120799 -0.604207 -0.787617 10 8 9
0.410662 0.183552 1.823120 0.168471 -0.646650 -0.743950 12 11 9
0.227430 0.193206 1.803095 -0.598839 0.335221 -0.727337 48 35 18
0.234424 0.191866 1.792140 -0.567950 0.412848 -0.712032 41 31 19
0.242372 0.191330 1.788574 -0.244807 0.123751 -0.961642 35 28 17
0.250532 0.190975 1.786680 -0.438117 0.154590 -0.885526 37 31 19
0.258105 0.190216 1.781046 -0.385818 0.164877 -0.907722 38 25 13
0.266193 0.189849 1.779032 -0.474533 0.142316 -0.868657 37 25 15
0.273469 0.188953 1.772121 -0.594377 0.037017 -0.803334 32 23 14
0.280867 0.188180 1.766336 -0.367256 -0.162870 -0.915749 44 28 13
0.288946 0.187870 1.764839 -0.137812 -0.244985 -0.959682 36 22 11
0.297017 0.187565 1.763372 -0.039390 -0.283542 -0.958150 18 9 5
0.305509 0.187518 1.764306 0.026844 -0.346712 -0.937587 11 10 8
0.313943 0.187432 1.764876 0.024292 -0.406812 -0.913189 10 8 9
0.322220 0.187254 1.764595 0.061879 -0.406902 -0.911374 9 6 5
0.330787 0.187236 1.765803 0.202000 -0.386022 -0.900102 7 5 6
0.339669 0.187382 1.768531 0.270792 -0.308294 -0.911935 50 34 18
0.348572 0.187523 1.771229 0.379778 -0.216315 -0.899431 53 32 13
0.358036 0.187938 1.776480 0.571855 -0.263560 -0.776864 54 37 21
0.368614 0.188884 1.786686 0.732844 -0.293221 -0.613971 63 47 27
0.380617 0.190475 1.802940 0.758227 -0.312302 -0.572329 57 42 23
0.391890 0.191640 1.815243 0.425623 -0.401076 -0.811162 38 23 10
0.400685 0.191592 1.816206 0.129289 -0.429902 -0.893571 12 10 10
0.409745 0.191659 1.818264 0.145228 -0.447146 -0.882592 11 9 10
0.227413 0.201561 1.801555 -0.245993 -0.325256 -0.913070 43 31 15
0.235629 0.201175 1.799479 -0.620832 0.010415 -0.783875 44 36 24
0.242672 0.199878 1.789346 -0.508587 0.096455 -0.855591 42 36 23
0.250874 0.199542 1.787696 -0.372972 0.021688 -0.927589 42 36 22
0.258479 0.198776 1.782246 -0.429626 0.067711 -0.900465 34 24 13
0.266641 0.198448 1.780657 -0.435645 0.062519 -0.897945 49 39 20
0.273817 0.197443 1.773079 -0.632662 0.175797 -0.754211 42 34 23
0.281216 0.196639 1.767264 -0.440135 0.236066 -0.866345 33 19 8
0.289050 0.196158 1.764308 -0.207547 0.214592 -0.954397 33 19 8
0.297216 0.195908 1.763388 -0.114057 0.118603 -0.986369 10 5 4
0.305224 0.195564 1.761647 -0.058802 0.060606 -0.996428 8 6 7
0.313686 0.195505 1.762430 -0.013437 0.012577 -0.999831 10 6 5
0.321831 0.195255 1.761510 0.100669 -0.000636 -0.994920 10 7 5
0.330705 0.195427 1.764360 0.211757 -0.034733 -0.976705 10 9 7
0.339497 0.195538 1.766662 0.322471 -0.055789 -0.944934 9 8 6
0.348723 0.195874 1.770971 0.388128 -0.073780 -0.918647 14 10 9
0.358079 0.196256 1.775704 0.523147 -0.098085 -0.846579 48 25 8
0.367892 0.196852 1.782352 0.692150 -0.171042 -0.701194 49 37 21
0.379770 0.198467 1.798118 0.758170 -0.294415 -0.581806 39 23 9
0.391370 0.199865 1.811969 0.530137 -0.373247 -0.761342 8 6 7
0.400352 0.199920 1.813814 0.139410 -0.315256 -0.938711 5 4 6
0.409154 0.199879 1.814808 0.113406 -0.342732 -0.932563 12 11 9
0.417813 0.199767 1.815164 0.032896 -0.385422 -0.922154 9 7 8
0.235227 0.209185 1.795204 -0.569144 -0.219413 -0.792422 43 31 15
0.242947 0.208414 1.789936 -0.439254 -0.054294 -0.896721 35 21 11
0.250859 0.207837 1.786310 -0.447403 -0.105733 -0.888060 27 15 6
0.258747 0.207268 1.782746 -0.375881 -0.063379 -0.924498 52 35 15
0.266597 0.206696 1.779150 -0.394695 -0.107094 -0.912550 41 28 15
0.274289 0.206035 1.774796 -0.556441 0.153018 -0.816675 39 25 10
0.281869 0.205325 1.770015 -0.346341 0.215358 -0.913055 44 27 11
0.289984 0.205012 1.768609 -0.179092 0.315473 -0.931881 51 35 15
0.298010 0.204649 1.766778 -0.121635 0.356527 -0.926333 8 5 4
0.306169 0.204383 1.765767 -0.070297 0.371456 -0.925786 8 6 7
0.314352 0.204139 1.764939 -0.054894 0.330970 -0.942043 10 9 7
0.322678 0.203987 1.764900 0.026175 0.271665 -0.962036 8 7 5
0.331034 0.203853 1.765014 0.167782 0.139123 -0.975958 7 6 4
0.339885 0.204007 1.767590 0.337075 0.205226 -0.918838 6 4 5
0.348793 0.204178 1.770317 0.272096 0.199054 -0.941457 24 17 14
0.357924 0.204459 1.773986 0.454469 0.043440 -0.889703 40 21 8
0.367979 0.205222 1.781788 0.642051 0.036076 -0.765813 33 17 8
0.378856 0.206381 1.792994 0.701775 -0.174062 -0.690807 10 8 7
0.389990 0.207615 1.804867 0.624734 -0.393740 -0.674297 11 9 7
0.399859 0.208147 1.810723 0.313740 -0.414747 -0.854138 6 4 7
0.242951 0.216727 1.788641 -0.455133 -0.021356 -0.890168 27 17 8
0.250863 0.216137 1.785047 -0.411822 0.075522 -0.908130 27 16 11
0.258792 0.215588 1.781786 -0.417771 0.059137 -0.906626 12 8 7
0.266452 0.214854 1.777006 -0.249117 0.087117 -0.964547 24 14 8
0.274905 0.214753 1.777393 -0.326480 0.290304 -0.899519 16 9 6
0.282259 0.213846 1.771186 -0.366062 0.248228 -0.896873 22 12 8
0.290454 0.213578 1.770205 -0.095286 0.218753 -0.971117 16 11 7
0.298682 0.213340 1.769468 -0.116050 0.251490 -0.960877 13 7 9
0.306948 0.213133 1.768974 -0.060746 0.219398 -0.973742 19 15 12
0.315244 0.212947 1.768662 -0.057654 0.251094 -0.966244 20 15 11
0.323392 0.212669 1.767590 -0.063022 0.285774 -0.956222 5 3 3
0.331655 0.212469 1.767157 0.214147 0.346274 -0.913365 5 3 4
0.341201 0.213050 1.773135 0.292441 0.465845 -0.835145 9 8 7
0.349661 0.212953 1.773553 0.186807 0.456338 -0.869977 18 10 8
0.358580 0.213118 1.776128 0.439122 0.302962 -0.845805 18 9 6
0.368764 0.213984 1.784475 0.626127 0.035306 -0.778921 14 8 8
0.378522 0.214569 1.790514 0.604169 -0.208276 -0.769156 19 15 12
0.389223 0.215631 1.800501 0.633478 -0.285824 -0.719034 9 7 7
0.251493 0.224966 1.788007 -0.451685 0.228853 -0.862327 27 17 8
0.259233 0.224231 1.783410 -0.355439 0.153798 -0.921959 34 21 8
0.267265 0.223768 1.780941 -0.125920 0.289268 -0.948930 26 14 8
0.275861 0.223766 1.782087 -0.204811 0.295289 -0.933197 17 11 8
0.282964 0.222619 1.774239 -0.389428 0.486286 -0.782222 22 14 11
0.291028 0.222239 1.772408 -0.107360 0.452682 -0.885185 7 5 4
0.299344 0.222052 1.772096 -0.154842 0.403104 -0.901960 7 5 6
0.307331 0.221637 1.769992 -0.122928 0.308771 -0.943159 13 9 8
0.315548 0.221393 1.769224 -0.027663 0.223691 -0.974267 23 14 8
0.323949 0.221275 1.769459 0.123042 0.375863 -0.918470 16 12 9
0.333110 0.221646 1.773553 0.383463 0.495713 -0.779246 35 22 9
0.342724 0.222278 1.779712 0.292885 0.503753 -0.812682 36 19 7
0.351573 0.222402 1.781861 0.196699 0.568504 -0.798819 31 18 10
0.259478 0.232723 1.783757 -0.312855 0.083218 -0.946148 11 8 6
0.267618 0.232337 1.781957 -0.079650 0.083641 -0.993308 7 5 6
0.276142 0.232276 1.782617 -0.074276 0.008746 -0.997199 8 7 5
0.284270 0.231898 1.780877 -0.251266 0.268174 -0.930026 17 9 5
0.292529 0.231633 1.779988 -0.168994 0.298980 -0.939176 7 5 6
0.300619 0.231247 1.778187 -0.214446 0.292379 -0.931948 7 6 4
0.308288 0.230570 1.774168 -0.178377 0.409980 -0.894482 15 9 8
0.316520 0.230318 1.773371 0.069559 0.446314 -0.892169 19 14 10
0.325559 0.230625 1.776826 0.306201 0.466360 -0.829909 24 14 9
0.334583 0.230899 1.780038 0.351927 0.422686 -0.835155 17 10 7
0.343913 0.231352 1.784617 0.318888 0.363913 -0.875144 41 25 12
0.268010 0.240951 1.783215 -0.150343 0.179282 -0.972242 42 28 12
0.276250 0.240648 1.782083 -0.107060 0.081983 -0.990867 39 25 10
0.284519 0.240378 1.781194 -0.177072 0.023092 -0.983927 26 15 9
0.292556 0.239930 1.778998 -0.176094 0.024128 -0.984078 31 18 7
0.300824 0.239678 1.778231 -0.131083 0.053231 -0.989941 27 14 6
0.308964 0.239334 1.776795 -0.124176 0.215945 -0.968477 28 15 8
0.317494 0.239285 1.777516 0.185655 0.364333 -0.912575 14 10 8
0.326612 0.239649 1.781274 0.319204 0.373034 -0.871180 14 8 7
0.335641 0.239926 1.784395 0.322421 0.331826 -0.886530 13 8 9
0.344621 0.240149 1.787120 0.276239 0.242424 -0.930012 7 5 6
0.268499 0.249666 1.785081 -0.138768 0.214752 -0.966760 28 14 6
0.276728 0.249340 1.783827 -0.178018 0.285697 -0.941640 25 15 6
0.284793 0.248886 1.781663 -0.149522 0.329877 -0.932108 16 11 7
0.292943 0.248518 1.780105 -0.159877 0.309538 -0.937350 22 18 12
0.301164 0.248218 1.779034 -0.119283 0.233810 -0.964938 17 9 6
0.318377 0.248225 1.781174 0.216876 0.351248 -0.910818 28 15 4
0.285888 0.258115 1.787021 -0.073930 0.549680 -0.832098 38 26 14
0.294290 0.257930 1.786769 -0.058884 0.576161 -0.815213 47 32 14
0.295821 0.267570 1.794494 -0.009536 0.626236 -0.779576 27 15 7
