ply
format ascii 1.0
element vertex 345
property float x
property float y
property float z
property float nx
property float ny
property float nz
property uchar red
property uchar green
property uchar blue
end_header
-0.318729 0.025660 1.907349 0.285559 -0.935221 -0.209325 59 38 20
-0.321832 0.034143 1.873151 0.183514 -0.890402 -0.416540 67 41 21
-0.313635 0.034052 1.876806 0.457167 -0.830044 -0.319413 79 68 49
-0.307461 0.034202 1.893471 0.472513 -0.825318 -0.309162 100 86 56
-0.299727 0.034179 1.901004 0.409416 -0.837194 -0.362609 57 29 13
-0.345378 0.043068 1.858189 0.006460 -0.708532 -0.705649 45 30 19
-0.336546 0.042895 1.857568 -0.075799 -0.659697 -0.747700 51 33 18
-0.327678 0.042717 1.856704 0.001654 -0.705388 -0.708819 81 57 29
-0.319098 0.042578 1.857519 0.280372 -0.765078 -0.579696 38 20 14
-0.311526 0.042585 1.864563 0.546415 -0.717608 -0.431821 87 76 55
-0.304920 0.042743 1.878142 0.579056 -0.708788 -0.402883 103 89 62
-0.297046 0.042726 1.884300 0.376369 -0.802167 -0.463546 123 98 58
-0.289617 0.042786 1.893847 0.493836 -0.801615 -0.336956 114 70 31
-0.274138 0.042845 1.910436 0.566101 -0.754117 -0.332922 52 38 24
-0.269814 0.043474 1.945018 0.632207 -0.770995 -0.076687 24 19 18
-0.343555 0.051532 1.848758 0.058029 -0.701913 -0.709895 76 50 26
-0.335080 0.051408 1.849909 0.020248 -0.665522 -0.746104 73 67 54
-0.326331 0.051240 1.849533 -0.001770 -0.576167 -0.817330 95 74 42
-0.317759 0.051101 1.850196 0.215042 -0.628208 -0.747737 79 53 24
-0.309866 0.051081 1.855072 0.563591 -0.630528 -0.533666 61 33 14
-0.303008 0.051252 1.866786 0.632111 -0.649110 -0.423193 79 56 32
-0.295551 0.051333 1.875325 0.361479 -0.721135 -0.591013 101 59 23
-0.287083 0.051237 1.877604 0.450433 -0.742354 -0.496005 117 74 29
-0.280051 0.051422 1.890020 0.558241 -0.726237 -0.401182 60 31 14
-0.272349 0.051496 1.898466 0.506457 -0.727997 -0.462084 94 61 27
-0.264566 0.051567 1.906912 0.530717 -0.794296 -0.295693 42 29 20
-0.259500 0.052233 1.936940 0.604516 -0.792296 -0.082633 42 32 22
-0.342133 0.059983 1.841529 -0.008922 -0.585226 -0.810821 106 83 49
-0.333529 0.059834 1.841764 0.135646 -0.636994 -0.758840 83 72 53
-0.325348 0.059767 1.844472 0.082212 -0.572248 -0.815949 98 80 54
-0.316671 0.059607 1.844371 0.137780 -0.541312 -0.829457 101 61 26
-0.308531 0.059556 1.847567 0.499791 -0.572402 -0.650050 87 45 18
-0.301262 0.059691 1.856471 0.624871 -0.601757 -0.497419 97 57 24
-0.293955 0.059835 1.865681 0.434434 -0.705088 -0.560463 108 84 48
-0.285681 0.059784 1.868968 0.377756 -0.708714 -0.595840 101 55 21
-0.278135 0.059904 1.877535 0.591917 -0.679269 -0.433852 104 68 29
-0.270651 0.060056 1.887140 0.545117 -0.694665 -0.469347 109 73 30
-0.262871 0.060157 1.895219 0.378392 -0.742217 -0.553112 24 19 14
-0.254380 0.060099 1.898413 0.477548 -0.803079 -0.356388 35 25 20
-0.249288 0.060926 1.929077 0.623695 -0.778118 -0.074407 42 27 19
-0.245891 0.062279 1.976282 0.636818 -0.770653 -0.023569 42 28 21
-0.369669 0.069443 1.850233 -0.622611 -0.316029 -0.715878 31 23 21
-0.359299 0.068950 1.841432 -0.516765 -0.049703 -0.854684 31 20 16
-0.349690 0.068597 1.836264 -0.200049 -0.320504 -0.925882 26 18 15
-0.340989 0.068425 1.835827 -0.072467 -0.504276 -0.860496 63 34 17
-0.332378 0.068271 1.835879 0.116171 -0.555456 -0.823391 100 69 37
-0.324182 0.068209 1.838343 0.172776 -0.568709 -0.804188 88 72 57
-0.315747 0.068097 1.839524 0.134796 -0.541571 -0.829777 86 64 42
-0.307450 0.068020 1.841621 0.425698 -0.543651 -0.723343 82 73 54
-0.300048 0.068160 1.849517 0.588655 -0.562518 -0.580569 75 39 19
-0.292413 0.068260 1.856375 0.450017 -0.648705 -0.613732 84 36 7
-0.284290 0.068253 1.860394 0.367964 -0.678852 -0.635423 100 46 14
-0.276378 0.068310 1.866153 0.568417 -0.653184 -0.500252 79 45 16
-0.269133 0.068559 1.877100 0.614084 -0.638133 -0.464420 53 33 18
-0.261464 0.068718 1.885665 0.436001 -0.678108 -0.591669 26 20 17
-0.253041 0.068683 1.889043 0.334838 -0.688309 -0.643517 23 18 15
-0.244890 0.068738 1.894861 0.545618 -0.753434 -0.366932 29 20 17
-0.239138 0.069546 1.921126 0.652473 -0.754826 -0.067208 42 27 19
-0.235520 0.071110 1.968079 0.653171 -0.756443 -0.034097 48 31 21
-0.368657 0.077946 1.845599 -0.403722 -0.102115 -0.909165 56 31 18
-0.359493 0.077678 1.842995 -0.437254 -0.031763 -0.898777 35 21 14
-0.349238 0.077154 1.834410 -0.483250 -0.111620 -0.868338 75 47 17
-0.339752 0.076793 1.829609 -0.170937 -0.347095 -0.922120 38 28 20
-0.331353 0.076685 1.830699 0.082498 -0.456837 -0.885717 89 41 18
-0.323143 0.076625 1.832948 0.162237 -0.536380 -0.828237 107 95 68
-0.314723 0.076518 1.834068 0.137774 -0.556026 -0.819667 85 73 49
-0.306455 0.076452 1.836195 0.376076 -0.557808 -0.739876 92 61 27
-0.298797 0.076556 1.842320 0.550013 -0.549823 -0.628634 68 42 19
-0.291156 0.076679 1.848933 0.479637 -0.575107 -0.662722 59 25 8
-0.283058 0.076689 1.852891 0.375716 -0.575866 -0.726096 77 33 10
-0.275089 0.076747 1.858008 0.532523 -0.607113 -0.589774 74 42 14
-0.267723 0.077002 1.867825 0.636132 -0.614641 -0.466425 45 32 22
-0.260206 0.077237 1.877213 0.511182 -0.650117 -0.562176 27 21 20
-0.251968 0.077266 1.881719 0.404869 -0.598853 -0.690982 28 20 16
-0.243695 0.077297 1.886286 0.452098 -0.534221 -0.714294 27 20 17
-0.235458 0.077355 1.891524 0.663684 -0.619200 -0.419661 30 21 16
-0.230004 0.078434 1.921354 0.668667 -0.738205 -0.089088 41 24 17
-0.225206 0.079861 1.959695 0.633109 -0.772385 -0.050943 43 27 20
-0.368279 0.086562 1.844201 -0.290762 -0.185301 -0.938680 91 72 39
-0.359051 0.086264 1.841232 -0.469455 -0.195655 -0.861006 81 45 18
-0.349219 0.085806 1.834875 -0.454609 -0.058418 -0.888774 97 73 37
-0.339486 0.085359 1.828732 -0.348997 -0.023143 -0.936838 32 23 16
-0.330539 0.085108 1.826709 -0.060438 -0.301029 -0.951698 36 22 15
-0.322158 0.085008 1.827860 0.093495 -0.454130 -0.886016 84 63 39
-0.313724 0.084896 1.828767 0.142854 -0.487850 -0.861159 82 66 41
-0.305326 0.084797 1.829948 0.381053 -0.443749 -0.811102 82 49 21
-0.297731 0.084940 1.836285 0.550594 -0.445504 -0.705955 56 27 9
-0.290046 0.085074 1.842440 0.547460 -0.491561 -0.677241 68 43 19
-0.282285 0.085201 1.848472 0.394316 -0.486672 -0.779529 51 28 11
-0.274046 0.085190 1.851575 0.410298 -0.549500 -0.727808 31 21 16
-0.266289 0.085350 1.858369 0.575338 -0.633490 -0.517374 44 28 15
-0.258815 0.085631 1.867756 0.613325 -0.607796 -0.504397 25 19 16
-0.250924 0.085792 1.874611 0.585292 -0.482418 -0.651695 31 21 17
-0.243044 0.085980 1.882076 0.586190 -0.331722 -0.739149 23 17 14
-0.234876 0.086083 1.887740 0.588229 -0.286693 -0.756171 31 20 16
-0.227044 0.086342 1.896791 0.631067 -0.628581 -0.454576 28 19 17
-0.220177 0.087040 1.915359 0.692181 -0.712812 -0.113069 24 19 17
-0.215159 0.088619 1.953114 0.732327 -0.677450 -0.068985 31 22 17
-0.376944 0.095425 1.844736 -0.413872 -0.079724 -0.906837 80 56 26
-0.367764 0.095131 1.842102 -0.372170 -0.204677 -0.905316 90 63 32
-0.358148 0.094710 1.837058 -0.453353 -0.274651 -0.847961 44 21 12
-0.348784 0.094349 1.833113 -0.272360 -0.216395 -0.937546 71 44 22
-0.339929 0.094123 1.831762 -0.373997 -0.084149 -0.923605 22 17 14
-0.330212 0.093640 1.825467 -0.275734 -0.017412 -0.961076 30 19 13
-0.321488 0.093440 1.824604 -0.045949 -0.130783 -0.990346 31 21 19
-0.312813 0.093254 1.823985 0.139741 -0.268024 -0.953224 75 48 22
-0.304789 0.093273 1.827332 0.390501 -0.211588 -0.895958 95 66 28
-0.297161 0.093433 1.833395 0.545882 -0.335218 -0.767882 92 60 27
-0.289255 0.093517 1.838023 0.497868 -0.405343 -0.766697 24 16 13
-0.281495 0.093667 1.843932 0.402741 -0.511065 -0.759350 35 26 18
-0.273210 0.093648 1.846577 0.277747 -0.544137 -0.791689 51 32 21
-0.264971 0.093654 1.849740 0.472206 -0.596790 -0.648740 72 49 26
-0.257291 0.093886 1.857296 0.697429 -0.550416 -0.458950 58 34 14
-0.250276 0.094409 1.870556 0.729113 -0.413010 -0.545725 21 16 14
-0.242591 0.094707 1.879453 0.695474 -0.307336 -0.649508 33 22 19
-0.234665 0.094936 1.887038 0.507052 -0.256046 -0.823006 31 21 16
-0.226280 0.094992 1.891268 0.320853 -0.469330 -0.822668 27 22 19
-0.217561 0.094912 1.892844 0.706037 -0.566141 -0.425437 18 16 17
-0.212292 0.096502 1.927239 0.879182 -0.463970 -0.108497 26 21 18
-0.387363 0.104784 1.853782 -0.654587 -0.170167 -0.736586 100 83 53
-0.376805 0.104098 1.844559 -0.465829 0.019298 -0.884664 78 67 47
-0.367195 0.103666 1.839729 -0.481125 -0.114150 -0.869188 64 43 22
-0.357421 0.103172 1.833801 -0.445542 -0.199730 -0.872697 83 46 17
-0.348316 0.102866 1.831169 -0.267309 -0.285881 -0.920227 83 54 22
-0.339231 0.102560 1.828505 -0.317313 -0.270690 -0.908867 38 20 12
-0.330213 0.102268 1.826086 -0.194592 -0.158162 -0.968049 25 17 14
-0.321412 0.102040 1.824796 -0.102174 -0.111973 -0.988444 26 16 14
-0.312766 0.101861 1.824360 0.119291 -0.139116 -0.983065 69 42 20
-0.304668 0.101873 1.827280 0.283343 -0.275716 -0.918530 89 54 21
-0.296437 0.101845 1.829528 0.437478 -0.355434 -0.826002 86 49 18
-0.288623 0.101980 1.834644 0.419983 -0.419760 -0.804622 41 25 14
-0.280511 0.102019 1.838082 0.305350 -0.514523 -0.801266 40 26 16
-0.272234 0.102006 1.840604 0.248624 -0.583998 -0.772743 31 18 12
-0.263959 0.102002 1.843310 0.427448 -0.563291 -0.707101 26 17 12
-0.256213 0.102231 1.850163 0.730325 -0.464469 -0.500894 36 22 13
-0.249451 0.102914 1.865129 0.780429 -0.415124 -0.467551 20 16 15
-0.241900 0.103304 1.874910 0.705274 -0.437270 -0.558018 27 23 20
-0.234190 0.103661 1.884141 0.463523 -0.458282 -0.758370 26 20 18
-0.225547 0.103607 1.886021 0.151483 -0.511646 -0.845737 16 12 11
-0.216718 0.103468 1.886377 0.625564 -0.488886 -0.607997 23 18 14
-0.211301 0.105130 1.919121 0.956758 -0.253971 -0.141816 24 19 15
-0.386235 0.113202 1.848784 -0.292981 -0.132285 -0.946923 91 71 38
-0.377401 0.113000 1.848043 -0.340335 -0.141488 -0.929598 90 73 47
-0.367218 0.112369 1.840376 -0.544655 0.023108 -0.838342 67 52 33
-0.356794 0.111636 1.831064 -0.473795 -0.118772 -0.872589 76 54 32
-0.347547 0.111268 1.827608 -0.355510 -0.221291 -0.908098 75 59 37
-0.338472 0.110948 1.824914 -0.254550 -0.319911 -0.912612 68 47 26
-0.329654 0.110709 1.823533 -0.146089 -0.333268 -0.931445 25 14 15
-0.320916 0.110494 1.822548 -0.055147 -0.296052 -0.953579 84 48 21
-0.312310 0.110325 1.822295 0.021153 -0.299932 -0.953726 74 58 35
-0.303894 0.110227 1.823202 0.221324 -0.364330 -0.904588 78 58 34
-0.295685 0.110212 1.825480 0.322443 -0.405789 -0.855199 56 38 21
-0.287837 0.110351 1.830260 0.386225 -0.490035 -0.781470 48 35 19
-0.279699 0.110388 1.833392 0.231260 -0.516889 -0.824223 58 46 33
-0.271242 0.110302 1.834511 0.201000 -0.541745 -0.816156 59 46 29
-0.263020 0.110323 1.837399 0.484788 -0.496775 -0.719858 58 39 18
-0.255321 0.110595 1.844404 0.742435 -0.366804 -0.560576 33 23 17
-0.248575 0.111346 1.859307 0.765598 -0.444383 -0.465171 33 23 17
-0.240963 0.111740 1.868385 0.665767 -0.525847 -0.529376 28 20 16
-0.233300 0.112151 1.877768 0.466267 -0.603704 -0.646635 21 17 16
-0.224731 0.112131 1.880045 0.133208 -0.613948 -0.778025 21 17 13
-0.215996 0.112030 1.881010 0.571024 -0.553164 -0.606581 17 13 12
-0.210055 0.113536 1.908565 0.925564 -0.340484 -0.165534 23 18 14
-0.385390 0.121667 1.845160 -0.189262 -0.449451 -0.873025 66 38 14
-0.376235 0.121350 1.842741 -0.271767 -0.387228 -0.881021 77 42 14
-0.367378 0.121127 1.841725 -0.360231 -0.262517 -0.895164 85 71 44
-0.356935 0.120346 1.832353 -0.557386 -0.024886 -0.829881 77 58 33
-0.347052 0.119736 1.825512 -0.486834 -0.171920 -0.856409 87 57 22
-0.337725 0.119308 1.821386 -0.294823 -0.285470 -0.911913 74 47 20
-0.328852 0.119036 1.819608 -0.147717 -0.378926 -0.913562 61 35 18
-0.320337 0.118897 1.819813 -0.023532 -0.414774 -0.909620 67 35 12
-0.311727 0.118720 1.819468 0.026535 -0.428831 -0.902995 96 75 44
-0.303244 0.118595 1.819887 0.161110 -0.398105 -0.903082 110 97 65
-0.295160 0.118638 1.822866 0.278818 -0.413622 -0.866705 76 52 24
-0.286936 0.118633 1.825114 0.272860 -0.467504 -0.840825 86 69 41
-0.278735 0.118647 1.827667 0.237354 -0.542532 -0.805805 90 57 24
-0.270444 0.118631 1.829762 0.196024 -0.519257 -0.831833 100 56 22
-0.262124 0.118611 1.831796 0.538773 -0.459786 -0.705918 86 62 32
-0.254911 0.119143 1.842245 0.744062 -0.323589 -0.584519 54 31 14
-0.247590 0.119668 1.852634 0.684747 -0.489153 -0.540233 29 22 17
-0.239894 0.120047 1.860795 0.605044 -0.609656 -0.512095 37 28 22
-0.232167 0.120450 1.869353 0.461644 -0.674483 -0.576158 22 18 17
-0.223808 0.120538 1.873124 0.187180 -0.690923 -0.698276 25 20 16
-0.215091 0.120435 1.873968 0.418816 -0.663565 -0.619899 18 14 15
-0.208286 0.121520 1.893043 0.819008 -0.529311 -0.221488 18 14 11
-0.384301 0.130015 1.840347 -0.278808 -0.448975 -0.848933 43 24 12
-0.375040 0.129641 1.837288 -0.218395 -0.480151 -0.849564 41 24 14
-0.366178 0.129403 1.836120 -0.315308 -0.420770 -0.850607 83 56 27
-0.356849 0.128986 1.832452 -0.494045 -0.255985 -0.830898 85 56 23
-0.346579 0.128196 1.823538 -0.504027 -0.201645 -0.839819 78 47 17
-0.337255 0.127746 1.819382 -0.376097 -0.216514 -0.900929 18 14 13
-0.327939 0.127284 1.815044 -0.249973 -0.393937 -0.884492 26 17 15
-0.319344 0.127104 1.814669 -0.059751 -0.509179 -0.858584 42 32 23
-0.310829 0.126958 1.814752 0.067273 -0.557415 -0.827504 96 57 21
-0.302565 0.126921 1.816390 0.146305 -0.514400 -0.844978 73 39 12
-0.294261 0.126873 1.817875 0.265109 -0.505475 -0.821104 63 42 23
-0.286175 0.126933 1.820885 0.227525 -0.486156 -0.843733 99 73 33
-0.277866 0.126900 1.822583 0.200903 -0.504927 -0.839456 77 51 25
-0.269602 0.126896 1.824709 0.288491 -0.469981 -0.834201 40 23 17
-0.261368 0.126918 1.827200 0.555646 -0.360046 -0.749416 24 15 13
-0.254297 0.127565 1.838563 0.717316 -0.370584 -0.590022 69 37 14
-0.246618 0.127937 1.846053 0.566153 -0.504114 -0.652180 24 16 13
-0.238550 0.128128 1.850982 0.515933 -0.617885 -0.593323 30 21 16
-0.230929 0.128609 1.860058 0.459928 -0.703468 -0.541847 29 19 16
-0.222627 0.128725 1.863950 0.225239 -0.745138 -0.627724 19 14 14
-0.214150 0.128753 1.866592 0.287745 -0.720415 -0.631034 23 18 15
-0.206058 0.129053 1.873136 0.739671 -0.501563 -0.448689 13 12 10
-0.383370 0.138378 1.836298 -0.334298 -0.399437 -0.853636 74 44 16
-0.374005 0.137944 1.832630 -0.258943 -0.396457 -0.880778 57 32 13
-0.364925 0.137607 1.830243 -0.311969 -0.456700 -0.833127 37 20 10
-0.355722 0.137213 1.827093 -0.409925 -0.382734 -0.827935 65 36 14
-0.346146 0.136655 1.821779 -0.403948 -0.175112 -0.897865 74 60 33
-0.336852 0.136195 1.817745 -0.453548 -0.142902 -0.879701 21 17 14
-0.327171 0.135553 1.811304 -0.369194 -0.236850 -0.898665 29 19 16
-0.318294 0.135241 1.809191 -0.174649 -0.427135 -0.887160 29 20 15
-0.309758 0.135074 1.809000 0.058150 -0.493710 -0.867680 27 16 14
-0.301456 0.135016 1.810241 0.196077 -0.494425 -0.846816 90 43 17
-0.293299 0.135033 1.812489 0.320389 -0.445039 -0.836237 102 76 44
-0.285359 0.135168 1.816291 0.303462 -0.363430 -0.880812 89 60 30
-0.277066 0.135141 1.817959 0.163375 -0.338205 -0.926783 85 45 20
-0.268770 0.135121 1.819718 0.415520 -0.366296 -0.832569 53 30 13
-0.261019 0.135405 1.825531 0.572265 -0.264986 -0.776077 67 41 16
-0.253607 0.135911 1.834302 0.655339 -0.410118 -0.634298 36 22 13
-0.245742 0.136200 1.840206 0.538989 -0.489371 -0.685570 27 16 12
-0.237718 0.136427 1.845287 0.459091 -0.491927 -0.739759 19 15 13
-0.229627 0.136641 1.850216 0.423415 -0.607074 -0.672445 13 11 12
-0.221496 0.136859 1.855205 0.230093 -0.708381 -0.667274 18 14 13
-0.212882 0.136779 1.856232 0.543379 -0.585990 -0.601128 22 18 17
-0.207002 0.138648 1.883348 0.976385 0.030775 -0.213833 12 11 10
-0.382420 0.146698 1.832159 -0.270865 -0.253569 -0.928620 19 14 11
-0.373392 0.146375 1.830077 -0.345309 -0.297858 -0.889968 22 17 14
-0.363822 0.145820 1.825129 -0.299655 -0.282104 -0.911386 24 14 12
-0.354823 0.145489 1.822925 -0.319815 -0.235808 -0.917667 64 39 12
-0.345844 0.145157 1.820721 -0.322983 -0.203059 -0.924364 31 18 10
-0.336598 0.144698 1.816932 -0.441243 -0.134400 -0.887266 17 13 12
-0.327001 0.144062 1.810948 -0.448917 -0.033691 -0.892938 26 18 15
-0.317497 0.143445 1.805178 -0.276041 -0.177434 -0.944626 28 19 14
-0.308917 0.143249 1.804621 0.086528 -0.322867 -0.942481 26 18 15
-0.300778 0.143268 1.806747 0.312405 -0.181409 -0.932467 74 40 17
-0.292718 0.143338 1.809512 0.382366 -0.072047 -0.921198 104 71 34
-0.284916 0.143558 1.814136 0.379066 -0.095726 -0.920405 77 50 23
-0.276803 0.143632 1.816962 0.174135 -0.120187 -0.977360 64 31 12
-0.268319 0.143513 1.817380 0.341434 -0.197907 -0.918834 48 22 9
-0.260754 0.143928 1.824473 0.563222 -0.278070 -0.778112 70 38 19
-0.252714 0.144098 1.828518 0.566150 -0.325406 -0.757354 50 30 15
-0.244867 0.144411 1.834361 0.547121 -0.408478 -0.730620 27 18 16
-0.237069 0.144791 1.841056 0.497789 -0.453980 -0.738991 39 27 19
-0.228924 0.144980 1.845375 0.292345 -0.498482 -0.816119 19 15 14
-0.220486 0.144994 1.847499 0.229123 -0.608066 -0.760104 19 15 12
-0.211971 0.144967 1.849104 0.372205 -0.608408 -0.700930 19 15 13
-0.382121 0.155254 1.831191 -0.459218 0.008649 -0.888282 81 59 31
-0.372486 0.154659 1.826061 -0.325849 -0.102373 -0.939863 84 53 23
-0.363750 0.154440 1.825290 -0.253349 -0.052499 -0.965949 36 20 11
-0.354203 0.153852 1.820221 -0.359693 -0.048836 -0.931792 16 12 12
-0.345134 0.153464 1.817469 -0.261577 -0.050484 -0.963861 18 14 13
-0.336184 0.153120 1.815235 -0.382497 0.042281 -0.922989 37 25 16
-0.326992 0.152649 1.811508 -0.302580 0.127079 -0.944614 45 29 19
-0.317751 0.152137 1.807293 -0.409868 0.274535 -0.869850 21 16 13
-0.308586 0.151644 1.803292 0.097604 0.143537 -0.984820 27 20 17
-0.300970 0.151947 1.808617 0.426495 0.262606 -0.865529 42 28 21
-0.292934 0.152048 1.811595 0.369883 0.264542 -0.890620 92 68 33
-0.284836 0.152132 1.814360 0.217772 0.158642 -0.963020 108 86 49
-0.276577 0.152136 1.816210 0.179508 0.022090 -0.983508 95 75 43
-0.268151 0.152053 1.817024 0.217053 0.094752 -0.971550 71 58 39
-0.260013 0.152151 1.819972 0.454750 -0.048216 -0.889313 88 53 23
-0.252212 0.152480 1.825661 0.593806 -0.107758 -0.797360 70 36 9
-0.244506 0.152906 1.832509 0.575673 -0.057911 -0.815627 48 30 17
-0.236368 0.153081 1.836400 0.420557 -0.192228 -0.886668 24 17 14
-0.228280 0.153317 1.841023 0.275084 -0.435797 -0.856977 18 14 13
-0.219620 0.153165 1.841044 0.147603 -0.497838 -0.854618 22 17 14
-0.211274 0.153253 1.843929 0.242729 -0.517731 -0.820388 24 16 13
-0.383151 0.164392 1.836715 -0.678601 0.323059 -0.659646 76 39 14
-0.372635 0.163386 1.827319 -0.488702 0.172937 -0.855139 69 43 17
-0.363369 0.162920 1.823866 -0.285976 -0.091577 -0.953851 74 37 14
-0.354542 0.162648 1.822546 -0.217100 -0.001873 -0.976148 21 16 12
-0.345256 0.162147 1.818697 -0.197376 0.244234 -0.949417 27 17 15
-0.336526 0.161906 1.817713 -0.295873 0.307405 -0.904412 68 43 20
-0.326940 0.161222 1.811823 -0.261030 0.266522 -0.927809 39 27 13
-0.318481 0.161102 1.812180 -0.213984 0.437593 -0.873340 22 18 15
-0.309088 0.160480 1.806960 0.042202 0.435110 -0.899388 38 31 26
-0.301320 0.160733 1.811462 0.393454 0.372227 -0.840619 53 26 12
-0.293455 0.160956 1.815628 0.233315 0.412283 -0.880674 100 60 25
-0.284942 0.160819 1.815802 0.098429 0.235673 -0.966835 108 59 18
-0.276544 0.160754 1.816768 0.208812 0.295647 -0.932196 93 76 47
-0.268498 0.160915 1.820264 0.263188 0.336809 -0.904042 111 92 53
-0.260090 0.160863 1.821382 0.352881 0.239991 -0.904367 89 65 31
-0.252293 0.161227 1.827163 0.596425 0.170374 -0.784379 59 33 15
-0.244527 0.161651 1.833613 0.498050 0.109577 -0.860197 12 10 12
-0.236284 0.161774 1.836712 0.154176 -0.065193 -0.985890 13 11 12
-0.227742 0.161695 1.837555 0.071926 -0.306460 -0.949162 17 13 12
-0.218975 0.161447 1.836510 0.198227 -0.278270 -0.939825 20 16 13
-0.210750 0.161632 1.840309 0.376774 -0.290259 -0.879654 21 17 14
-0.386040 0.174453 1.851320 -0.731429 0.487081 -0.477245 35 23 16
-0.372803 0.172136 1.828668 -0.660187 0.238144 -0.712348 54 36 17
-0.362762 0.171279 1.821284 -0.275693 -0.104108 -0.955591 49 33 19
-0.354218 0.171137 1.821397 0.035106 0.099572 -0.994411 64 36 15
-0.345651 0.170983 1.821388 -0.071028 0.155281 -0.985314 63 35 12
-0.337138 0.170859 1.821684 -0.123494 0.270184 -0.954856 31 18 14
-0.327827 0.170306 1.817470 -0.149610 0.484934 -0.861659 25 17 14
-0.319497 0.170275 1.818741 -0.069380 0.550886 -0.831692 91 67 34
-0.309905 0.169532 1.812517 -0.061502 0.588120 -0.806432 99 63 27
-0.301792 0.169622 1.815068 0.350740 0.581360 -0.734168 61 36 12
-0.294331 0.170118 1.821914 0.137493 0.584776 -0.799458 72 38 15
-0.285396 0.169740 1.819529 0.016396 0.486222 -0.873681 50 28 17
-0.277096 0.169754 1.821287 0.191366 0.423209 -0.885592 90 54 24
-0.268887 0.169839 1.823807 0.149028 0.298881 -0.942582 77 43 14
-0.260368 0.169728 1.824255 0.291621 0.210925 -0.932989 24 16 13
-0.252434 0.170034 1.829120 0.507841 0.067649 -0.858791 25 20 16
-0.244551 0.170411 1.834747 0.293870 -0.173104 -0.940040 16 14 15
-0.236018 0.170334 1.835560 0.005274 -0.275219 -0.961367 18 14 15
-0.227302 0.170119 1.834912 -0.052505 -0.328894 -0.942906 22 17 14
-0.218665 0.169964 1.834902 0.338148 0.238730 -0.910310 20 16 15
-0.210640 0.170333 1.840468 0.510375 0.126595 -0.850583 22 17 14
-0.375657 0.182247 1.843453 -0.723488 0.496760 -0.479368 64 39 15
-0.362773 0.179932 1.821872 -0.300406 0.259102 -0.917945 90 68 33
-0.354609 0.179993 1.823996 0.091751 0.284118 -0.954389 65 40 19
-0.345920 0.179781 1.823408 -0.062243 0.240657 -0.968613 43 25 12
-0.337115 0.179503 1.822150 -0.014205 0.052589 -0.998515 39 24 16
-0.328575 0.179368 1.822324 0.020415 0.210205 -0.977444 34 22 14
-0.320230 0.179348 1.823656 0.083260 0.318726 -0.944183 41 22 14
-0.311660 0.179201 1.823708 0.010962 0.590961 -0.806626 109 67 27
-0.303256 0.179157 1.824795 0.255605 0.557457 -0.789879 74 38 15
-0.295133 0.179297 1.827741 0.048631 0.421060 -0.905728 74 52 21
-0.286235 0.178949 1.825783 -0.104360 0.445682 -0.889088 44 26 16
-0.277467 0.178678 1.824586 0.028232 0.333664 -0.942269 41 23 15
-0.269020 0.178621 1.825552 0.051315 0.202989 -0.977836 28 20 17
-0.260411 0.178455 1.825421 0.258902 0.287395 -0.922157 46 32 21
-0.252429 0.178754 1.829981 0.351999 -0.036303 -0.935296 23 18 15
-0.244035 0.178769 1.831677 0.350813 0.135387 -0.926607 16 14 15
-0.235432 0.178630 1.831821 0.015484 0.308596 -0.951067 21 17 16
-0.226631 0.178328 1.830319 0.392490 0.361476 -0.845746 36 25 20
-0.220571 0.180380 1.852666 0.280958 0.837994 -0.467791 36 24 17
-0.211221 0.179659 1.846931 -0.022514 0.766369 -0.642006 21 16 13
-0.328291 0.187867 1.821327 0.087484 -0.118898 -0.989045 26 16 14
-0.312189 0.188212 1.827554 0.122711 0.427690 -0.895558 21 16 13
-0.303968 0.188303 1.829890 0.186642 0.414803 -0.890563 50 32 17
-0.295389 0.188172 1.830095 -0.086693 0.252993 -0.963576 27 18 15
-0.277991 0.187744 1.828919 -0.106548 0.423779 -0.899477 20 16 15
-0.269221 0.187473 1.827783 0.150501 0.427222 -0.891533 41 26 16
-0.261955 0.188325 1.837459 0.055341 0.775605 -0.628788 43 29 18
-0.252123 0.187250 1.828587 0.315557 0.299540 -0.900389 18 14 13
-0.245715 0.188872 1.845694 0.371977 0.798672 -0.473029 18 14 13
-0.237825 0.189386 1.852141 0.134382 0.882259 -0.451178 21 16 13
-0.228998 0.189138 1.851248 0.233255 0.872871 -0.428589 18 14 15
-0.212748 0.189944 1.862040 -0.282874 0.779355 -0.559096 19 15 12
