ply
format ascii 1.0
element vertex 284
property float x
property float y
property float z
property float nx
property float ny
property float nz
property uchar red
property uchar green
property uchar blue
end_header
0.445184 0.074659 1.906574 0.337268 -0.908445 -0.246936 39 26 19
0.458840 0.075251 1.925507 0.268621 -0.938864 -0.215355 30 21 16
0.389930 0.082284 1.858290 -0.523803 -0.833330 -0.176610 66 44 20
0.396338 0.081651 1.847713 -0.144278 -0.893381 -0.425504 68 53 31
0.405304 0.081544 1.848830 0.038950 -0.882709 -0.468304 82 56 30
0.414268 0.081434 1.849886 0.126851 -0.871856 -0.473050 85 67 41
0.423804 0.081431 1.853318 0.351989 -0.845652 -0.401219 78 47 19
0.436354 0.081977 1.869083 0.423316 -0.842281 -0.333715 63 36 16
0.448154 0.082358 1.881193 0.397530 -0.844946 -0.357822 26 18 15
0.459205 0.082584 1.889861 0.414536 -0.729607 -0.543907 22 17 14
0.469645 0.082687 1.895819 0.242633 -0.620512 -0.745717 25 17 14
0.479198 0.082630 1.898153 0.117931 -0.671730 -0.731349 21 15 13
0.362059 0.093433 1.893294 -0.643154 -0.687063 -0.338078 13 9 6
0.368709 0.092712 1.882107 -0.670253 -0.677625 -0.302629 21 10 5
0.374689 0.091858 1.868210 -0.756925 -0.527683 -0.385506 15 10 7
0.380166 0.090919 1.852578 -0.841504 -0.481919 -0.244184 59 41 18
0.385283 0.089935 1.835973 -0.582720 -0.716781 -0.382965 22 15 9
0.393504 0.089682 1.834014 -0.130207 -0.753413 -0.644527 30 23 17
0.402075 0.089509 1.833670 -0.001637 -0.771250 -0.636530 35 23 15
0.410882 0.089388 1.834361 0.103174 -0.798113 -0.593608 47 34 20
0.420303 0.089393 1.837610 0.238117 -0.805456 -0.542717 63 41 22
0.430771 0.089605 1.845061 0.430202 -0.795192 -0.427313 78 44 17
0.443442 0.090243 1.861158 0.560144 -0.726157 -0.398665 74 44 18
0.456550 0.090933 1.878381 0.588876 -0.605981 -0.534801 22 17 14
0.467967 0.091264 1.888358 0.332389 -0.583128 -0.741269 40 26 17
0.477303 0.091184 1.889991 0.105977 -0.628998 -0.770149 23 15 13
0.486453 0.091066 1.890864 0.055030 -0.629601 -0.774968 21 17 17
0.359796 0.101680 1.880838 -0.698733 -0.626787 -0.344832 10 9 7
0.366220 0.100863 1.868831 -0.712182 -0.481962 -0.510401 13 11 9
0.373508 0.100304 1.861513 -0.810857 -0.254568 -0.526979 41 24 9
0.378824 0.099258 1.845275 -0.958319 -0.052449 -0.280844 19 14 10
0.383985 0.098215 1.829037 -0.608808 -0.341784 -0.715916 17 13 12
0.392100 0.097935 1.826744 -0.261936 -0.561025 -0.785265 10 7 6
0.400602 0.097754 1.826248 -0.025064 -0.673025 -0.739195 50 38 22
0.409263 0.097610 1.826452 0.035773 -0.687099 -0.725682 60 40 17
0.418200 0.097529 1.827813 0.120259 -0.728463 -0.674447 50 33 16
0.427275 0.097476 1.829692 0.252688 -0.779902 -0.572626 72 42 17
0.437653 0.097704 1.836776 0.484643 -0.765285 -0.423628 81 46 18
0.452829 0.098947 1.862673 0.623705 -0.684119 -0.378117 55 31 11
0.466513 0.099819 1.881781 0.466377 -0.647272 -0.602936 36 24 18
0.475819 0.099748 1.883414 0.101042 -0.609252 -0.786513 22 17 14
0.484939 0.099635 1.884287 0.056528 -0.612151 -0.788718 20 15 12
0.493969 0.099503 1.884794 0.044800 -0.608463 -0.792317 18 14 15
0.358447 0.110086 1.872983 -0.698424 -0.357676 -0.619897 13 9 8
0.365970 0.109544 1.866549 -0.683386 -0.292089 -0.669079 13 12 10
0.373031 0.108889 1.858197 -0.688728 -0.345351 -0.637484 21 17 14
0.380501 0.108371 1.852129 -0.856713 -0.139797 -0.496487 11 7 6
0.384480 0.106920 1.830323 -0.903152 -0.100373 -0.417422 19 11 8
0.390606 0.106099 1.819081 -0.484656 -0.533635 -0.693067 12 6 6
0.399156 0.105937 1.818950 -0.077339 -0.632967 -0.770306 35 26 17
0.407663 0.105765 1.818637 -0.014980 -0.673478 -0.739056 37 34 27
0.416348 0.105638 1.819085 -0.000765 -0.760716 -0.649084 70 58 35
0.425067 0.105517 1.819654 0.085401 -0.784631 -0.614053 59 38 21
0.434257 0.105508 1.822111 0.268066 -0.808145 -0.524444 53 27 11
0.444994 0.105854 1.830624 0.479783 -0.794922 -0.371358 56 28 11
0.460557 0.107284 1.857643 0.556832 -0.766504 -0.320014 33 18 11
0.474216 0.108225 1.876383 0.329952 -0.743704 -0.581409 36 26 17
0.483312 0.108119 1.877285 0.069319 -0.652024 -0.755023 37 23 15
0.492400 0.108009 1.878127 0.066338 -0.633629 -0.770788 18 14 11
0.501489 0.107898 1.878939 0.060335 -0.623291 -0.779659 23 17 14
0.357897 0.118679 1.869148 -0.622316 -0.403394 -0.670818 11 7 6
0.365352 0.118091 1.862471 -0.675348 -0.399324 -0.620037 15 10 7
0.372287 0.117364 1.853604 -0.691224 -0.445226 -0.569196 12 11 9
0.379476 0.116739 1.846319 -0.830935 -0.396826 -0.389971 11 7 6
0.383779 0.115289 1.826129 -0.896111 -0.317055 -0.310582 58 46 23
0.389994 0.114446 1.815376 -0.539793 -0.476919 -0.693665 50 34 18
0.397765 0.114070 1.811897 -0.231859 -0.606498 -0.760527 36 25 13
0.406218 0.113891 1.811493 -0.161664 -0.684626 -0.710741 50 44 30
0.413743 0.113463 1.807193 -0.182873 -0.765974 -0.616313 47 37 27
0.422650 0.113411 1.808767 0.049853 -0.795685 -0.603655 68 55 39
0.431263 0.113279 1.809093 0.090409 -0.803623 -0.588232 66 44 22
0.440432 0.113286 1.811610 0.261244 -0.824576 -0.501823 59 40 16
0.451124 0.113663 1.819971 0.465781 -0.809981 -0.356339 36 19 10
0.467190 0.115323 1.848598 0.549040 -0.779774 -0.300844 24 16 13
0.481416 0.116475 1.869282 0.217236 -0.864602 -0.453070 33 23 15
0.490566 0.116394 1.870489 0.095191 -0.848020 -0.521344 46 33 17
0.499796 0.116327 1.871940 0.149679 -0.748151 -0.646425 31 21 14
0.508844 0.116216 1.872691 0.054485 -0.646425 -0.761030 23 18 14
0.356988 0.127114 1.863518 -0.546820 -0.562604 -0.620052 9 7 7
0.364585 0.126551 1.857665 -0.659291 -0.538441 -0.524801 9 8 6
0.371129 0.125660 1.847033 -0.668376 -0.559363 -0.490293 12 8 7
0.378222 0.124981 1.839446 -0.806312 -0.501571 -0.313508 23 14 6
0.382299 0.123374 1.818376 -0.811176 -0.467568 -0.351246 32 22 12
0.389259 0.122722 1.811125 -0.534362 -0.532570 -0.656373 30 23 15
0.396643 0.122219 1.806034 -0.317347 -0.621942 -0.715876 33 19 13
0.404828 0.121968 1.804595 -0.304886 -0.647611 -0.698316 38 22 10
0.412039 0.121439 1.799109 -0.267475 -0.666184 -0.696173 29 19 11
0.420415 0.121256 1.798644 0.023491 -0.675769 -0.736739 43 26 12
0.429102 0.121159 1.799457 0.044082 -0.684886 -0.727316 82 67 44
0.437851 0.121078 1.800483 0.117709 -0.718001 -0.686017 38 29 20
0.446977 0.121093 1.802939 0.304051 -0.759858 -0.574603 58 39 19
0.457574 0.121486 1.810933 0.481344 -0.781443 -0.397058 62 35 13
0.473843 0.123307 1.839952 0.296279 -0.920533 -0.254633 35 23 15
0.482435 0.123128 1.839607 0.099482 -0.968728 -0.227307 32 25 19
0.493288 0.123507 1.847478 0.354193 -0.883059 -0.307823 64 41 18
0.507015 0.124561 1.865328 0.306187 -0.754006 -0.581141 51 33 15
0.516028 0.124452 1.866049 0.049770 -0.666927 -0.743459 16 12 11
0.362767 0.134588 1.847717 -0.625347 -0.619289 -0.474786 10 7 6
0.369716 0.133807 1.839248 -0.692305 -0.579215 -0.430376 24 20 13
0.375816 0.132763 1.827188 -0.814107 -0.527367 -0.243132 25 16 9
0.380758 0.131368 1.810352 -0.731069 -0.470281 -0.494342 27 15 7
0.388061 0.130808 1.804805 -0.566316 -0.529352 -0.631722 26 16 9
0.395270 0.130234 1.799076 -0.294052 -0.545684 -0.784706 12 8 7
0.403594 0.130031 1.798368 -0.394423 -0.559943 -0.728625 11 7 6
0.410393 0.129359 1.791270 -0.206245 -0.413101 -0.887023 15 10 7
0.419403 0.129376 1.793574 0.036680 -0.517170 -0.855096 20 15 11
0.427631 0.129156 1.792623 -0.022274 -0.477834 -0.878168 19 12 10
0.436449 0.129108 1.794044 0.093939 -0.545004 -0.833155 16 9 8
0.445038 0.128992 1.794523 0.192309 -0.548234 -0.813915 15 9 9
0.454467 0.129108 1.798195 0.339665 -0.625560 -0.702355 31 21 15
0.464467 0.129370 1.803876 0.329263 -0.770171 -0.546280 76 51 20
0.473778 0.129432 1.806818 0.193536 -0.866484 -0.460163 42 33 19
0.484369 0.129823 1.814293 0.396797 -0.838456 -0.373556 69 49 25
0.499929 0.131479 1.839229 0.551338 -0.767114 -0.327968 47 26 12
0.514078 0.132712 1.858384 0.307430 -0.762670 -0.569053 23 17 14
0.523045 0.132603 1.859044 0.044913 -0.689582 -0.722814 46 31 16
0.361588 0.142780 1.840906 -0.748142 -0.451610 -0.486140 8 7 5
0.368173 0.141835 1.830856 -0.811049 -0.466941 -0.352373 18 14 10
0.373681 0.140531 1.816212 -0.814682 -0.471946 -0.336989 18 11 8
0.380240 0.139656 1.807015 -0.689629 -0.395541 -0.606596 11 7 6
0.386896 0.138848 1.798640 -0.593023 -0.473684 -0.651113 10 6 5
0.394764 0.138484 1.795923 -0.245368 -0.462380 -0.852056 13 7 7
0.402521 0.138092 1.792842 -0.354960 -0.372898 -0.857292 21 13 9
0.410509 0.137786 1.790857 -0.102792 -0.112760 -0.988291 41 26 10
0.418914 0.137620 1.790666 -0.072849 -0.261182 -0.962537 33 18 7
0.427092 0.137383 1.789562 -0.091157 -0.338049 -0.936703 16 10 10
0.435482 0.137215 1.789341 0.075532 -0.358730 -0.930380 17 12 9
0.444293 0.137175 1.790763 0.179543 -0.358301 -0.916179 13 7 7
0.453435 0.137229 1.793401 0.280027 -0.358354 -0.890599 13 9 8
0.462546 0.137266 1.795826 0.267633 -0.443439 -0.855415 43 27 14
0.471961 0.137383 1.799285 0.214169 -0.583354 -0.783472 67 56 36
0.481175 0.137433 1.801892 0.302927 -0.680266 -0.667438 46 31 15
0.491438 0.137765 1.808149 0.494978 -0.738929 -0.457144 74 51 20
0.506979 0.139508 1.832686 0.560776 -0.755423 -0.338918 42 25 11
0.520936 0.140763 1.850956 0.303725 -0.765078 -0.567809 61 36 16
0.529872 0.140658 1.851615 0.078182 -0.681148 -0.727959 25 16 10
0.539116 0.140630 1.853278 0.078066 -0.682110 -0.727071 14 9 9
0.548006 0.140508 1.853725 0.084568 -0.660408 -0.746130 12 10 9
0.361129 0.151203 1.837625 -0.855193 -0.366705 -0.366296 9 8 6
0.366719 0.149820 1.822892 -0.859197 -0.425055 -0.284796 37 25 13
0.372202 0.148453 1.808311 -0.744254 -0.438590 -0.503712 32 23 13
0.379676 0.147897 1.803466 -0.667888 -0.377611 -0.641354 10 6 5
0.385771 0.146847 1.792658 -0.532215 -0.351316 -0.770275 21 15 11
0.394090 0.146645 1.792042 -0.256087 -0.409555 -0.875605 38 24 11
0.402085 0.146330 1.790056 -0.086978 -0.304805 -0.948435 27 16 9
0.410582 0.146196 1.790261 -0.142034 -0.297421 -0.944122 44 26 11
0.418425 0.145838 1.787758 -0.172891 -0.356107 -0.918312 41 24 8
0.426620 0.145607 1.786777 -0.054748 -0.317430 -0.946700 12 8 7
0.435059 0.145458 1.786799 0.061883 -0.316405 -0.946603 10 9 7
0.443890 0.145435 1.788342 0.193875 -0.334274 -0.922320 14 7 8
0.452864 0.145452 1.790371 0.260344 -0.339729 -0.903773 27 19 12
0.462254 0.145591 1.793891 0.181377 -0.383562 -0.905529 47 36 24
0.470960 0.145512 1.794765 0.088476 -0.486936 -0.868945 60 45 22
0.479515 0.145385 1.795060 0.106621 -0.603893 -0.789902 28 12 5
0.488663 0.145431 1.797454 0.355490 -0.651662 -0.670047 50 37 22
0.499120 0.145845 1.804349 0.521786 -0.692177 -0.498628 60 27 11
0.514136 0.147526 1.826722 0.592288 -0.714916 -0.371605 37 20 12
0.527867 0.148788 1.844016 0.332034 -0.707429 -0.623937 53 31 11
0.536940 0.148731 1.845223 0.098736 -0.630257 -0.770083 29 17 11
0.545978 0.148662 1.846278 0.116101 -0.613367 -0.781218 15 11 12
0.555243 0.148650 1.848032 0.149628 -0.588618 -0.794443 16 12 10
0.365410 0.157794 1.815630 -0.890129 -0.266435 -0.369705 36 29 17
0.371444 0.156599 1.803789 -0.633534 -0.156510 -0.757720 34 21 10
0.379077 0.156093 1.799766 -0.694438 0.108914 -0.711262 27 18 10
0.385788 0.155241 1.791789 -0.606845 0.058926 -0.792633 47 32 13
0.393048 0.154630 1.786549 -0.228092 -0.221530 -0.948103 33 24 15
0.401798 0.154599 1.787909 -0.054872 -0.162647 -0.985157 30 17 8
0.409692 0.154249 1.785620 -0.227118 -0.284428 -0.931406 21 12 9
0.417994 0.154053 1.785095 -0.123603 -0.271502 -0.954468 39 25 12
0.426110 0.153793 1.783840 -0.045645 -0.261807 -0.964040 44 26 12
0.434659 0.153687 1.784349 0.018732 -0.270889 -0.962428 45 30 15
0.443081 0.153537 1.784340 0.105985 -0.337379 -0.935383 31 18 9
0.452228 0.153627 1.787099 0.224466 -0.396325 -0.890248 29 16 7
0.461223 0.153659 1.789189 0.142637 -0.446740 -0.883221 17 11 8
0.469652 0.153503 1.789120 -0.020253 -0.547012 -0.836880 39 22 10
0.478107 0.153354 1.789142 0.028446 -0.547521 -0.836309 57 35 14
0.486544 0.153200 1.789104 0.264584 -0.506707 -0.820514 51 32 19
0.496911 0.153632 1.795815 0.448876 -0.533071 -0.717180 66 38 16
0.507129 0.154000 1.801797 0.665140 -0.510850 -0.544628 59 44 28
0.523276 0.156089 1.827663 0.674133 -0.506189 -0.537883 65 49 26
0.535364 0.156932 1.839177 0.294125 -0.571488 -0.766088 45 25 9
0.544394 0.156874 1.840292 0.140917 -0.526104 -0.838664 10 8 9
0.553792 0.156915 1.842563 0.189477 -0.509305 -0.839468 9 8 6
0.365775 0.166445 1.816369 -0.916052 -0.015440 -0.400763 32 19 7
0.371220 0.164936 1.801762 -0.180796 0.085091 -0.979833 31 23 13
0.380356 0.165052 1.804643 -0.372670 0.405502 -0.834677 29 20 9
0.387043 0.164142 1.796454 -0.673300 0.423922 -0.605770 35 26 11
0.393631 0.163225 1.788174 -0.355077 0.310229 -0.881861 38 24 11
0.401893 0.163003 1.787405 -0.264031 0.100352 -0.959280 24 14 5
0.409606 0.162571 1.784356 -0.215693 0.040662 -0.975614 29 16 7
0.417688 0.162292 1.782949 -0.177324 -0.026941 -0.983784 40 26 13
0.425900 0.162066 1.782120 -0.032941 -0.096060 -0.994830 42 30 14
0.434397 0.161946 1.782446 -0.005593 -0.142621 -0.989762 32 23 14
0.442647 0.161737 1.781800 0.005678 -0.058773 -0.998255 38 21 10
0.451393 0.161704 1.783068 0.217079 -0.243750 -0.945231 10 9 7
0.460305 0.161724 1.784915 0.046454 -0.327296 -0.943779 11 7 6
0.468377 0.161453 1.783599 -0.096545 -0.364776 -0.926076 15 9 9
0.476764 0.161292 1.783470 0.136358 -0.299182 -0.944403 8 7 5
0.485945 0.161389 1.786167 0.275513 -0.308167 -0.910563 11 10 8
0.495639 0.161642 1.790567 0.393004 -0.376790 -0.838795 26 17 12
0.505472 0.161925 1.795301 0.646524 -0.379286 -0.661928 55 31 10
0.521896 0.164232 1.822197 0.756307 -0.310070 -0.576070 58 35 12
0.533724 0.165058 1.832920 0.501402 -0.424413 -0.753969 10 8 7
0.543244 0.165161 1.835737 0.204027 -0.487412 -0.849001 7 5 6
0.381902 0.174179 1.810734 -0.583967 0.335154 -0.739361 38 30 17
0.388292 0.173087 1.801087 -0.739253 0.287573 -0.608939 31 23 10
0.395098 0.172213 1.793659 -0.514947 0.320697 -0.794973 36 28 20
0.402706 0.171704 1.789972 -0.303969 0.362307 -0.881100 37 27 16
0.410344 0.171222 1.786558 -0.213346 0.365382 -0.906079 33 24 15
0.418468 0.170947 1.785273 -0.299293 0.342447 -0.890592 32 25 16
0.426143 0.170501 1.782225 -0.136633 0.077804 -0.987562 36 24 12
0.434557 0.170351 1.782217 0.053577 0.016797 -0.998422 38 20 6
0.443378 0.170354 1.783789 -0.014813 0.149645 -0.988629 22 11 5
0.451218 0.169989 1.781562 0.068048 0.047771 -0.996538 8 6 7
0.460571 0.170180 1.785080 -0.010138 0.055754 -0.998393 13 9 8
0.467802 0.169603 1.780664 -0.147053 0.052014 -0.987760 11 7 6
0.476832 0.169670 1.782905 0.107688 0.010955 -0.994124 8 7 5
0.485696 0.169672 1.784478 0.245215 -0.031111 -0.968969 8 6 7
0.494992 0.169815 1.787509 0.269925 -0.167253 -0.948244 16 12 11
0.504123 0.169892 1.789872 0.568769 -0.125105 -0.812927 43 22 8
0.519429 0.171972 1.813056 0.749719 -0.392743 -0.532611 19 10 8
0.532493 0.173259 1.828032 0.581314 -0.449539 -0.678225 7 6 4
0.382103 0.182738 1.810683 -0.756871 -0.052432 -0.651457 32 23 14
0.388902 0.181786 1.802861 -0.790327 0.027084 -0.612086 31 27 18
0.395390 0.180731 1.794006 -0.620541 -0.032878 -0.783484 41 33 20
0.403568 0.180452 1.792751 -0.240124 0.012527 -0.970661 41 32 15
0.411468 0.180060 1.790371 -0.176544 0.111769 -0.977926 41 31 18
0.420069 0.179971 1.790971 -0.283082 0.150130 -0.947273 49 36 18
0.426656 0.179052 1.783424 -0.396478 0.260414 -0.880335 48 32 15
0.434701 0.178751 1.781926 0.078203 0.096074 -0.992297 44 28 11
0.443921 0.178919 1.785049 0.034805 0.146173 -0.988647 34 17 7
0.451832 0.178568 1.783065 0.049345 0.149742 -0.987493 9 8 7
0.461145 0.178757 1.786400 0.079438 0.115616 -0.990112 13 9 8
0.469143 0.178443 1.784781 -0.133461 0.242762 -0.960861 10 6 5
0.477211 0.178160 1.783466 0.060478 0.158817 -0.985454 7 5 4
0.486198 0.178213 1.785463 0.159906 0.082449 -0.983683 8 7 5
0.494866 0.178145 1.786276 0.340617 0.112554 -0.933441 18 14 11
0.505999 0.178931 1.795537 0.589743 0.224845 -0.775660 21 13 10
0.516816 0.179578 1.803430 0.701830 -0.110195 -0.703770 13 9 8
0.529362 0.180778 1.816824 0.704419 -0.356358 -0.613842 14 10 8
0.388797 0.190164 1.801442 -0.801881 -0.008470 -0.597424 39 27 15
0.395195 0.189027 1.792224 -0.507782 -0.042634 -0.860430 39 23 9
0.403395 0.188756 1.791091 -0.209754 -0.252535 -0.944579 20 11 5
0.411396 0.188401 1.789167 -0.150830 -0.303874 -0.940697 41 26 12
0.419667 0.188173 1.788430 -0.219637 -0.436547 -0.872460 43 27 15
0.427434 0.187730 1.785686 -0.349099 -0.206125 -0.914135 28 16 8
0.435352 0.187363 1.783641 0.037032 -0.048385 -0.998142 27 14 6
0.444441 0.187488 1.786216 0.016518 -0.115770 -0.993139 34 18 9
0.452367 0.187131 1.784263 0.034931 -0.036389 -0.998727 8 7 6
0.461516 0.187268 1.786960 0.087710 -0.148689 -0.984986 21 14 11
0.469717 0.187024 1.786070 -0.054085 -0.097479 -0.993767 11 6 5
0.478145 0.186870 1.786031 0.038039 0.045460 -0.998242 17 13 12
0.486658 0.186749 1.786297 0.161211 0.065699 -0.984731 33 26 17
0.496027 0.186943 1.789540 0.428779 0.142781 -0.892055 34 20 11
0.517042 0.188110 1.803410 0.663258 -0.019324 -0.748141 13 11 10
0.396273 0.197930 1.796004 -0.697324 0.402972 -0.592750 20 10 5
0.402879 0.196884 1.787972 -0.514029 -0.035343 -0.857044 31 18 9
0.410714 0.196449 1.785411 -0.249739 -0.436965 -0.864114 13 7 7
0.418584 0.196041 1.783093 -0.228491 -0.457967 -0.859103 25 14 8
0.426810 0.195803 1.782295 -0.122891 -0.351488 -0.928092 29 16 7
0.435151 0.195619 1.781983 0.063495 -0.325533 -0.943396 40 25 11
0.443857 0.195595 1.783099 0.088544 -0.377406 -0.921805 7 5 4
0.452543 0.195556 1.784094 0.055747 -0.307280 -0.949985 7 6 4
0.460905 0.195379 1.783842 0.024309 -0.306005 -0.951720 15 10 8
0.469390 0.195252 1.784047 0.026476 -0.316024 -0.948382 27 15 8
0.477894 0.195133 1.784312 0.064852 -0.268711 -0.961035 38 28 14
0.486691 0.195127 1.785610 0.247996 -0.101257 -0.963455 50 32 12
0.404596 0.206095 1.794396 -0.709709 0.527293 -0.467200 31 19 10
0.410148 0.204520 1.782142 -0.529038 0.128477 -0.838816 37 23 10
0.417923 0.204063 1.779491 -0.239103 -0.034222 -0.970391 17 11 7
0.442646 0.203392 1.777552 0.137827 -0.472534 -0.870468 7 5 6
0.451443 0.203419 1.779063 0.153124 -0.395282 -0.905707 10 6 5
0.460205 0.203424 1.780392 0.064562 -0.340759 -0.937931 14 8 8
0.468724 0.203320 1.780779 0.154118 -0.022776 -0.987790 21 15 11
0.477263 0.203223 1.781226 0.226199 0.206655 -0.951907 17 9 7
0.487793 0.203940 1.788722 0.505684 0.424586 -0.751007 12 8 7
0.412826 0.214206 1.792455 -0.454687 0.705033 -0.544231 10 7 5
0.451020 0.211547 1.776616 0.206673 0.110216 -0.972182 33 17 8
0.459999 0.211662 1.778795 0.327666 0.384491 -0.863019 29 15 7
0.471778 0.213006 1.791181 0.291118 0.760479 -0.580450 18 12 9
0.480605 0.213013 1.792478 0.201626 0.774497 -0.599584 11 7 6
0.455594 0.222041 1.793184 0.234264 0.821065 -0.520550 22 12 5
0.466661 0.223105 1.802864 0.404103 0.781665 -0.475079 24 13 8
0.479344 0.224868 1.818133 0.261403 0.854256 -0.449350 30 17 10
