ply
format ascii 1.0
element vertex 285
property float x
property float y
property float z
property float nx
property float ny
property float nz
property uchar red
property uchar green
property uchar blue
end_header
-0.678446 -0.023435 2.018833 -0.211647 -0.960776 -0.179205 65 59 55
-0.643563 -0.023211 1.969611 -0.222942 -0.943438 -0.245402 28 14 10
-0.624359 -0.023016 1.938393 0.034953 -0.930677 -0.364169 37 21 13
-0.619571 -0.023343 1.952027 0.308083 -0.931217 -0.194728 63 41 23
-0.648605 -0.013372 1.929641 -0.217575 -0.931687 -0.290898 44 28 18
-0.633967 -0.013423 1.912622 -0.023071 -0.916077 -0.400337 35 23 17
-0.626502 -0.013618 1.917230 0.138430 -0.906336 -0.399241 89 74 45
-0.618926 -0.013813 1.921624 0.151553 -0.816642 -0.556891 85 73 52
-0.610112 -0.013981 1.922225 0.237923 -0.856019 -0.458938 101 81 48
-0.603399 -0.014199 1.929617 0.402483 -0.840503 -0.362714 95 62 27
-0.597092 -0.014428 1.938568 0.550341 -0.769995 -0.322852 83 50 25
-0.601887 -0.015332 2.016173 0.399043 -0.916431 -0.030303 31 22 19
-0.655336 -0.003936 1.896776 0.020157 -0.674968 -0.737572 72 56 32
-0.646728 -0.004100 1.897591 0.068543 -0.788526 -0.611170 64 48 33
-0.638408 -0.004266 1.899294 -0.006233 -0.817540 -0.575838 83 69 49
-0.629760 -0.004430 1.900048 0.109008 -0.749476 -0.652995 72 40 14
-0.621798 -0.004598 1.902944 0.363719 -0.789388 -0.494545 57 35 17
-0.615381 -0.004778 1.910763 0.353598 -0.756730 -0.549844 71 51 27
-0.607273 -0.004948 1.913444 0.197531 -0.697876 -0.688440 105 79 43
-0.599376 -0.005120 1.916889 0.356839 -0.754643 -0.550617 97 60 23
-0.592669 -0.005302 1.924341 0.493093 -0.790834 -0.362548 86 53 22
-0.587307 -0.005498 1.936502 0.564744 -0.806244 -0.176167 82 55 26
-0.584299 -0.005717 1.957011 0.657309 -0.753116 -0.027592 31 23 16
-0.584578 -0.005973 1.989476 0.786959 -0.616179 0.031911 25 20 16
-0.661435 0.005097 1.888956 -0.054407 -0.647359 -0.760241 51 36 25
-0.652552 0.004935 1.888854 0.016746 -0.654902 -0.755528 79 60 34
-0.643856 0.004775 1.889303 0.076955 -0.644728 -0.760529 67 60 42
-0.635267 0.004616 1.890088 0.131528 -0.638407 -0.758378 85 70 47
-0.627194 0.004460 1.892463 0.103021 -0.639495 -0.761862 94 70 44
-0.618612 0.004301 1.893340 0.348861 -0.674424 -0.650729 88 57 24
-0.612122 0.004158 1.900792 0.512381 -0.671855 -0.534861 75 46 20
-0.604993 0.004009 1.906438 0.270608 -0.663626 -0.697404 101 67 30
-0.596749 0.003852 1.908660 0.235153 -0.672372 -0.701868 107 69 30
-0.588707 0.003695 1.911616 0.365174 -0.731386 -0.575954 98 63 25
-0.581849 0.003547 1.918608 0.614012 -0.727368 -0.306472 71 31 12
-0.577639 0.003417 1.934772 0.766505 -0.635553 -0.092425 84 57 24
-0.578962 0.003324 1.970474 0.893398 -0.444511 0.065192 51 33 19
-0.583851 0.003251 2.019812 0.774292 -0.573404 -0.267732 47 32 22
-0.576054 0.003089 2.025761 0.291310 -0.737775 -0.608955 35 25 16
-0.668185 0.014072 1.883188 -0.170104 -0.585597 -0.792553 36 27 22
-0.658701 0.013897 1.881282 -0.115071 -0.606620 -0.786620 29 18 14
-0.649895 0.013736 1.881302 0.015950 -0.650255 -0.759549 61 35 15
-0.641399 0.013583 1.882240 0.159505 -0.652847 -0.740506 88 67 40
-0.633454 0.013442 1.884860 0.173076 -0.581848 -0.794668 81 69 57
-0.625123 0.013292 1.886379 0.130313 -0.536885 -0.833530 79 58 37
-0.616430 0.013135 1.886828 0.295767 -0.542994 -0.785926 80 63 38
-0.609636 0.013020 1.893238 0.544577 -0.590934 -0.595174 75 37 16
-0.602734 0.012904 1.899496 0.316915 -0.636245 -0.703390 88 47 15
-0.594255 0.012751 1.900862 0.199170 -0.655511 -0.728448 101 47 13
-0.586370 0.012612 1.904215 0.312588 -0.658373 -0.684714 99 61 23
-0.578618 0.012477 1.908118 0.605498 -0.632397 -0.483162 101 59 23
-0.573840 0.012410 1.922201 0.782761 -0.584944 -0.212429 33 20 12
-0.570876 0.012386 1.942979 0.857102 -0.514497 0.025873 30 22 20
-0.580949 0.012667 2.009980 0.690323 -0.715139 -0.109680 28 19 17
-0.573136 0.012533 2.015715 0.263697 -0.860826 -0.435250 32 21 17
-0.564355 0.012377 2.018147 0.261619 -0.871804 -0.414142 38 24 16
-0.665859 0.022826 1.876768 -0.284652 -0.500593 -0.817545 31 21 15
-0.656212 0.022636 1.874312 -0.126673 -0.552264 -0.823989 52 34 18
-0.647281 0.022470 1.873875 -0.031684 -0.616525 -0.786697 34 24 16
-0.638777 0.022321 1.874690 0.197663 -0.676847 -0.709089 93 54 23
-0.631224 0.022206 1.878380 0.275713 -0.637779 -0.719180 101 89 65
-0.623213 0.022075 1.880785 0.192111 -0.582380 -0.789890 84 73 53
-0.615100 0.021941 1.882946 0.263033 -0.547753 -0.794217 86 59 29
-0.607621 0.021831 1.887155 0.480648 -0.573859 -0.663071 58 37 17
-0.600524 0.021736 1.892709 0.313478 -0.620962 -0.718427 66 28 8
-0.592029 0.021589 1.893921 0.146105 -0.636483 -0.757326 74 32 10
-0.583951 0.021458 1.896540 0.336197 -0.658584 -0.673230 74 38 10
-0.576472 0.021352 1.901237 0.595969 -0.585724 -0.549317 61 35 13
-0.570910 0.021321 1.912568 0.808814 -0.490582 -0.324267 24 19 15
-0.565730 0.021307 1.925579 0.873706 -0.470557 -0.123346 24 19 16
-0.569823 0.021666 1.971418 0.614482 -0.787830 -0.041668 27 18 15
-0.564042 0.021637 1.983725 0.231179 -0.958274 -0.168130 29 22 16
-0.557898 0.021596 1.995144 0.384515 -0.906471 -0.174523 44 25 16
-0.552435 0.021585 2.009466 0.506361 -0.840933 -0.190867 49 30 17
-0.675271 0.031827 1.878676 -0.552661 -0.267399 -0.789344 83 52 22
-0.663857 0.031538 1.871268 -0.382973 -0.378963 -0.842448 72 41 16
-0.654331 0.031341 1.869088 -0.182542 -0.465175 -0.866193 84 66 32
-0.644846 0.031146 1.866969 -0.141362 -0.523484 -0.840227 31 21 15
-0.636074 0.030985 1.866898 0.150752 -0.617993 -0.771595 51 29 15
-0.628699 0.030896 1.871015 0.362218 -0.633984 -0.683273 72 58 40
-0.621194 0.030802 1.874857 0.252472 -0.584426 -0.771171 80 60 35
-0.612999 0.030673 1.876681 0.224479 -0.576193 -0.785882 74 50 20
-0.605254 0.030568 1.879973 0.422646 -0.614373 -0.666270 60 35 11
-0.598305 0.030507 1.885893 0.320305 -0.623579 -0.713129 67 38 14
-0.589888 0.030369 1.887258 0.127593 -0.603037 -0.787443 56 31 15
-0.581467 0.030231 1.888654 0.321413 -0.621914 -0.714084 52 32 16
-0.574373 0.030166 1.894512 0.623495 -0.574470 -0.530320 44 26 16
-0.568624 0.030178 1.905107 0.817765 -0.471186 -0.330520 30 22 19
-0.564117 0.030262 1.920317 0.851111 -0.457378 -0.257713 53 32 19
-0.561232 0.030444 1.941700 0.665446 -0.713740 -0.218531 44 32 18
-0.553438 0.030353 1.946365 0.294970 -0.854712 -0.427154 27 19 16
-0.545583 0.030261 1.950968 0.396996 -0.867537 -0.299620 43 27 15
-0.546030 0.030656 1.986254 0.571683 -0.815586 -0.089426 35 24 20
-0.540604 0.030716 2.000819 0.513665 -0.837170 -0.187868 39 29 22
-0.686285 0.040945 1.884955 -0.609592 -0.154448 -0.777524 80 67 41
-0.674052 0.040574 1.875438 -0.581385 -0.186487 -0.791969 71 48 24
-0.662287 0.040227 1.866992 -0.401381 -0.203450 -0.893030 49 26 12
-0.652727 0.040017 1.864659 -0.281545 -0.296792 -0.912495 54 38 20
-0.642958 0.039793 1.861654 -0.171838 -0.404592 -0.898208 26 16 14
-0.634055 0.039623 1.861125 0.179202 -0.393747 -0.901582 27 16 14
-0.626502 0.039541 1.864630 0.385204 -0.477073 -0.789949 44 27 18
-0.619247 0.039480 1.869144 0.323281 -0.539863 -0.777199 87 54 22
-0.611275 0.039373 1.871580 0.209530 -0.526949 -0.823664 85 59 26
-0.603133 0.039257 1.873556 0.397881 -0.540871 -0.741046 85 52 22
-0.596193 0.039223 1.879415 0.348030 -0.561574 -0.750673 27 18 13
-0.587872 0.039096 1.880994 0.162965 -0.563324 -0.810005 36 27 19
-0.579675 0.038979 1.883031 0.305777 -0.557940 -0.771494 33 20 14
-0.572276 0.038920 1.887789 0.620406 -0.540180 -0.568597 56 33 16
-0.566475 0.038976 1.898108 0.822856 -0.454773 -0.340718 37 23 14
-0.561883 0.039126 1.912918 0.795239 -0.478931 -0.371779 41 29 17
-0.555733 0.039169 1.922778 0.758715 -0.585069 -0.286435 20 16 13
-0.550951 0.039318 1.937832 0.556893 -0.661187 -0.502695 33 20 13
-0.543371 0.039266 1.943290 0.324915 -0.646661 -0.690116 26 18 15
-0.535008 0.039158 1.946059 0.508221 -0.770995 -0.383768 25 20 17
-0.534449 0.039651 1.978131 0.610167 -0.790558 -0.052093 25 19 17
-0.673369 0.049333 1.873699 -0.555218 -0.096329 -0.826107 64 48 25
-0.662258 0.048996 1.867087 -0.429584 -0.080912 -0.899395 76 42 15
-0.651719 0.048700 1.861943 -0.387173 -0.195684 -0.901002 73 47 22
-0.641836 0.048452 1.858572 -0.156900 -0.223627 -0.961963 39 23 14
-0.633163 0.048297 1.858685 0.158761 -0.256489 -0.953419 24 16 14
-0.625650 0.048234 1.862281 0.380526 -0.312218 -0.870471 34 18 13
-0.617702 0.048138 1.864656 0.237716 -0.334130 -0.912057 78 45 17
-0.609591 0.048031 1.866602 0.272475 -0.413541 -0.868759 87 57 21
-0.601520 0.047928 1.868731 0.374598 -0.373477 -0.848641 84 45 16
-0.594592 0.047922 1.874558 0.361534 -0.469490 -0.805526 34 24 16
-0.586236 0.047799 1.875954 0.154029 -0.490679 -0.857618 35 22 14
-0.578015 0.047688 1.877838 0.272922 -0.534681 -0.799769 34 21 12
-0.570464 0.047637 1.882015 0.567461 -0.554208 -0.608968 33 24 16
-0.564399 0.047718 1.891354 0.815315 -0.465667 -0.344115 55 37 17
-0.560041 0.047956 1.906865 0.780422 -0.482416 -0.397764 20 15 12
-0.553463 0.048006 1.915135 0.766868 -0.513796 -0.384613 30 22 19
-0.548715 0.048228 1.930187 0.730397 -0.536149 -0.423161 22 17 14
-0.541414 0.048225 1.936530 0.360221 -0.592629 -0.720439 21 16 13
-0.532974 0.048120 1.938902 0.285539 -0.620823 -0.730100 21 16 14
-0.525106 0.048072 1.943504 0.710451 -0.648061 -0.274365 22 17 14
-0.523520 0.048630 1.972210 0.783979 -0.620000 -0.031253 35 26 20
-0.672479 0.058059 1.871379 -0.384309 -0.191220 -0.903184 76 60 32
-0.661959 0.057744 1.866419 -0.439640 -0.118407 -0.890335 75 55 29
-0.650923 0.057378 1.859839 -0.387608 -0.101577 -0.916211 76 62 36
-0.641374 0.057144 1.857416 -0.164215 -0.151542 -0.974715 58 40 24
-0.632530 0.056974 1.857009 0.024659 -0.273323 -0.961606 35 17 10
-0.624290 0.056860 1.858405 0.397192 -0.369653 -0.839997 93 67 41
-0.617162 0.056852 1.863224 0.293290 -0.222751 -0.929711 66 44 22
-0.608354 0.056687 1.863000 0.222035 -0.181542 -0.957989 72 57 33
-0.601099 0.056672 1.867635 0.348216 -0.304034 -0.886741 51 35 20
-0.593299 0.056608 1.870680 0.275268 -0.412986 -0.868142 60 45 28
-0.584856 0.056482 1.871740 0.096268 -0.467658 -0.878652 58 45 31
-0.576457 0.056361 1.872983 0.178253 -0.541196 -0.821786 62 45 25
-0.568469 0.056283 1.875631 0.469828 -0.598803 -0.648611 64 42 20
-0.562089 0.056373 1.883808 0.788861 -0.506476 -0.348110 37 25 14
-0.557977 0.056708 1.900051 0.761853 -0.512863 -0.395667 27 20 16
-0.551229 0.056777 1.907616 0.757124 -0.511854 -0.405918 37 27 17
-0.546247 0.057042 1.921719 0.794699 -0.464685 -0.390541 28 21 17
-0.539763 0.057155 1.930873 0.417836 -0.551403 -0.722058 20 16 15
-0.531198 0.057046 1.932694 0.203554 -0.583835 -0.785941 21 16 14
-0.522966 0.056976 1.935830 0.628188 -0.571387 -0.528107 25 20 16
-0.519890 0.057497 1.958727 0.974851 -0.214004 -0.062191 25 20 16
-0.680708 0.066961 1.870047 -0.158588 -0.392010 -0.906189 77 40 15
-0.671393 0.066747 1.868510 -0.238609 -0.325166 -0.915059 98 83 50
-0.661467 0.066468 1.865201 -0.389104 -0.197613 -0.899749 75 60 34
-0.650765 0.066106 1.859569 -0.379593 -0.108980 -0.918712 82 56 25
-0.640546 0.065790 1.855191 -0.247334 -0.179546 -0.952150 55 38 18
-0.631556 0.065601 1.854326 -0.073696 -0.319124 -0.944843 47 25 14
-0.622981 0.065457 1.854683 0.299615 -0.442185 -0.845401 66 41 18
-0.616170 0.065505 1.860417 0.497277 -0.447761 -0.743119 94 75 42
-0.608621 0.065477 1.864043 0.196002 -0.244442 -0.949648 97 84 53
-0.600140 0.065349 1.864858 0.158814 -0.298049 -0.941246 81 55 23
-0.591738 0.065229 1.865948 0.152131 -0.461365 -0.874070 90 72 40
-0.583419 0.065121 1.867344 0.073296 -0.472088 -0.878499 93 64 29
-0.574649 0.064961 1.867304 0.060889 -0.493409 -0.867664 96 63 22
-0.566338 0.064855 1.868791 0.418403 -0.563860 -0.712040 75 56 27
-0.559610 0.064940 1.875684 0.772367 -0.490854 -0.403127 57 33 12
-0.555862 0.065392 1.893055 0.776431 -0.529536 -0.341680 32 23 15
-0.548961 0.065475 1.899978 0.656369 -0.593650 -0.465574 32 25 21
-0.544641 0.065886 1.916309 0.847132 -0.406490 -0.342246 23 18 15
-0.538307 0.066059 1.925919 0.453010 -0.523809 -0.721391 23 18 14
-0.529548 0.065932 1.926946 0.108503 -0.573013 -0.812332 20 15 12
-0.520877 0.065816 1.928340 0.809106 -0.413309 -0.417760 16 12 11
-0.522993 0.067130 1.970903 0.997392 0.053973 0.047923 25 19 16
-0.678759 0.075534 1.864827 -0.085535 -0.451058 -0.888387 45 25 13
-0.669860 0.075358 1.864389 -0.162836 -0.409459 -0.897679 84 59 29
-0.660233 0.075097 1.861875 -0.285827 -0.296753 -0.911175 90 66 32
-0.650416 0.074811 1.858749 -0.360286 -0.204932 -0.910053 72 45 19
-0.640012 0.074452 1.853821 -0.312139 -0.209981 -0.926540 20 16 13
-0.630252 0.074166 1.850666 -0.220036 -0.345784 -0.912150 26 17 15
-0.621571 0.074009 1.850656 0.125941 -0.491955 -0.861463 63 32 13
-0.614105 0.074002 1.854343 0.472447 -0.576162 -0.666957 83 54 22
-0.607157 0.074064 1.859740 0.329508 -0.547776 -0.769004 80 54 25
-0.598968 0.073974 1.861411 0.100357 -0.454546 -0.885052 81 55 29
-0.590273 0.073821 1.861523 0.049394 -0.433971 -0.899571 87 59 23
-0.581851 0.073703 1.862522 0.095963 -0.495137 -0.863499 46 29 14
-0.573392 0.073582 1.863428 0.074857 -0.431732 -0.898890 54 33 19
-0.564657 0.073425 1.863449 0.443385 -0.353347 -0.823745 28 16 13
-0.558187 0.073575 1.871136 0.813897 -0.274361 -0.512150 69 40 15
-0.553215 0.073939 1.884228 0.825737 -0.442244 -0.350113 27 17 15
-0.527724 0.074740 1.920558 0.080852 -0.605568 -0.791676 24 16 14
-0.518927 0.074609 1.921372 0.579121 -0.564390 -0.588287 19 15 12
-0.521232 0.076149 1.964540 0.985127 -0.162128 0.056919 15 12 11
-0.686104 0.084289 1.861174 -0.084713 -0.321821 -0.943003 64 34 15
-0.677109 0.084097 1.860432 -0.074613 -0.351994 -0.933024 54 33 14
-0.668153 0.083910 1.859781 -0.162631 -0.371358 -0.914136 48 26 12
-0.658923 0.083687 1.858336 -0.206919 -0.331948 -0.920323 71 39 17
-0.649091 0.083382 1.855119 -0.320871 -0.255954 -0.911883 58 50 29
-0.639320 0.083083 1.851994 -0.360486 -0.230871 -0.903741 22 17 14
-0.628722 0.082668 1.846334 -0.269165 -0.363851 -0.891719 25 16 14
-0.619867 0.082485 1.845745 0.029450 -0.498332 -0.866486 30 21 16
-0.611810 0.082411 1.847568 0.425302 -0.562978 -0.708642 60 29 12
-0.605140 0.082534 1.853728 0.410772 -0.544258 -0.731471 92 59 22
-0.597192 0.082483 1.856070 0.177053 -0.523871 -0.833193 103 84 44
-0.589040 0.082406 1.857832 0.078417 -0.466965 -0.880792 80 40 15
-0.580303 0.082245 1.857762 0.057551 -0.421408 -0.905043 54 28 11
-0.571837 0.082125 1.858577 0.233154 -0.410976 -0.881328 56 33 15
-0.563976 0.082096 1.861438 0.509814 -0.303836 -0.804844 78 47 18
-0.557947 0.082348 1.870589 0.816521 -0.226400 -0.531071 36 22 13
-0.552123 0.082644 1.880748 0.870066 -0.236124 -0.432700 29 18 13
-0.525761 0.083467 1.913653 0.109877 -0.618346 -0.778187 21 16 15
-0.517125 0.083363 1.914956 0.385278 -0.605259 -0.696579 17 12 11
-0.676399 0.092754 1.858634 -0.181792 -0.250030 -0.951019 23 14 14
-0.666643 0.092449 1.855723 -0.123167 -0.192055 -0.973625 33 17 11
-0.657883 0.092284 1.855561 -0.202339 -0.176545 -0.963271 54 37 18
-0.648169 0.091980 1.852651 -0.274532 -0.145701 -0.950475 29 18 15
-0.638347 0.091657 1.849343 -0.418466 -0.119135 -0.900385 22 15 13
-0.627492 0.091176 1.842890 -0.322155 -0.186112 -0.928213 26 16 14
-0.618071 0.090903 1.840560 -0.035402 -0.264528 -0.963728 24 17 14
-0.610007 0.090834 1.842292 0.449861 -0.361605 -0.816619 32 21 17
-0.603578 0.091021 1.849123 0.491705 -0.384003 -0.781517 87 58 26
-0.595797 0.091004 1.851923 0.176251 -0.391220 -0.903262 82 51 23
-0.587366 0.090888 1.852738 0.168756 -0.405366 -0.898443 75 54 25
-0.579134 0.090806 1.854224 0.165225 -0.271816 -0.948060 61 33 11
-0.570776 0.090705 1.855345 0.270703 -0.201580 -0.941321 38 20 10
-0.563443 0.090774 1.859915 0.526268 -0.236204 -0.816854 70 42 16
-0.556435 0.090906 1.865737 0.731185 -0.046205 -0.680613 35 22 14
-0.515325 0.092058 1.908541 0.111596 -0.604817 -0.788506 17 13 12
-0.675479 0.101363 1.856257 -0.077226 -0.181606 -0.980334 95 62 25
-0.666878 0.101223 1.856553 -0.102033 -0.148375 -0.983653 44 23 10
-0.657210 0.100915 1.853826 -0.180263 -0.146083 -0.972710 17 13 13
-0.648129 0.100697 1.852717 -0.265552 -0.037584 -0.963364 25 15 14
-0.637876 0.100290 1.848158 -0.393245 -0.057187 -0.917653 31 19 15
-0.627820 0.099908 1.844057 -0.411584 -0.022393 -0.911097 23 18 15
-0.617244 0.099434 1.838277 -0.218194 -0.179183 -0.959315 20 16 13
-0.609630 0.099448 1.841352 0.469572 -0.183678 -0.863576 31 18 16
-0.602828 0.099603 1.847022 0.475140 -0.226219 -0.850334 84 53 25
-0.594939 0.099580 1.849455 0.176112 -0.261423 -0.949022 91 52 22
-0.586316 0.099433 1.849629 0.166661 -0.270633 -0.948147 88 62 29
-0.578580 0.099443 1.852672 0.395770 -0.114857 -0.911139 87 68 36
-0.570944 0.099476 1.856143 0.282991 0.025962 -0.958771 74 54 30
-0.562762 0.099415 1.857905 0.652897 0.216993 -0.725699 78 44 16
-0.558242 0.100030 1.872121 0.445876 0.816044 -0.367785 67 41 16
-0.549763 0.099929 1.873180 0.081364 0.814692 -0.574157 23 18 14
-0.665522 0.109739 1.852925 -0.081254 -0.284452 -0.955240 75 35 9
-0.656837 0.109584 1.852946 -0.063166 -0.078793 -0.994888 36 23 15
-0.647940 0.109392 1.852356 -0.233480 -0.035263 -0.971722 36 18 11
-0.637761 0.108976 1.848011 -0.394268 -0.021998 -0.918732 57 31 14
-0.627602 0.108556 1.843606 -0.440116 -0.035702 -0.897231 32 23 15
-0.602137 0.108179 1.845105 0.385197 0.005795 -0.922816 54 28 12
-0.594100 0.108139 1.847049 0.172695 0.040165 -0.984156 90 49 15
-0.585785 0.108050 1.848169 0.301172 0.049403 -0.952289 76 47 17
-0.578838 0.108224 1.853746 0.463497 0.139564 -0.875038 85 66 33
-0.570917 0.108219 1.856301 0.581682 0.349557 -0.734476 92 66 31
-0.566479 0.108905 1.870546 0.774556 0.622942 -0.109577 78 54 24
-0.572397 0.111687 1.920320 0.418327 0.871774 -0.254975 29 20 15
-0.559936 0.110826 1.908466 -0.114464 0.934667 -0.336594 12 10 11
-0.603522 0.117152 1.849598 0.076836 0.477708 -0.875152 48 24 12
-0.594839 0.116995 1.849589 0.079596 0.448072 -0.890447 49 27 13
-0.586520 0.116913 1.850739 0.305343 0.453734 -0.837192 49 26 14
-0.579181 0.117036 1.855094 0.489553 0.368959 -0.790068 36 20 12
-0.573252 0.117463 1.864210 0.816403 0.541632 -0.200302 31 21 13
-0.578873 0.120367 1.912116 0.846989 0.530727 -0.030624 18 13 13
-0.576000 0.121525 1.932797 0.698641 0.003250 -0.715465 16 14 15
-0.568206 0.121643 1.937211 0.159872 0.143208 -0.976695 13 11 12
-0.559383 0.121541 1.938176 0.083293 -0.224269 -0.970961 21 14 12
-0.597378 0.126267 1.857773 0.029640 0.642769 -0.765486 42 25 15
-0.588616 0.126102 1.857641 0.105223 0.511036 -0.853095 44 26 13
-0.580043 0.125978 1.858120 0.688337 0.413251 -0.596167 19 14 11
-0.583098 0.128479 1.896774 0.907634 0.418987 0.025496 24 18 14
-0.582079 0.130124 1.923067 0.915580 0.127326 -0.381446 24 16 14
-0.574404 0.130277 1.927664 0.228326 -0.585248 -0.778043 13 11 12
-0.565728 0.130204 1.928965 0.144619 -0.678080 -0.720620 19 15 14
-0.557074 0.130139 1.930388 0.071195 -0.700399 -0.710192 16 12 11
-0.548157 0.130013 1.930926 -0.014750 -0.719505 -0.694331 29 20 16
-0.599701 0.135570 1.865283 0.000177 0.628190 -0.778060 38 23 16
-0.580914 0.134954 1.861176 0.740035 0.279990 -0.611518 17 13 12
-0.563340 0.138712 1.921026 0.079897 -0.691958 -0.717503 14 12 13
-0.554547 0.138609 1.921839 0.021765 -0.724489 -0.688943 16 12 13
-0.545147 0.138351 1.920516 -0.111034 -0.759761 -0.640652 21 17 18
