ply
format ascii 1.0
element vertex 270
property float x
property float y
property float z
property float nx
property float ny
property float nz
property uchar red
property uchar green
property uchar blue
end_header
0.502253 0.019972 1.923387 0.118058 -0.936028 -0.331534 33 24 19
0.513857 0.019906 1.932642 0.430318 -0.824752 -0.366894 34 20 16
0.465161 0.031154 1.994252 -0.479893 -0.877245 0.012005 31 23 17
0.458964 0.029225 1.894410 -0.073825 -0.742566 -0.665692 14 10 9
0.471461 0.029284 1.908389 -0.008348 -0.941243 -0.337625 36 26 15
0.477293 0.028929 1.896218 -0.180122 -0.913242 -0.365438 26 21 17
0.487479 0.028841 1.900931 -0.056893 -0.944892 -0.322400 60 40 18
0.495387 0.028618 1.897020 -0.016339 -0.938917 -0.343755 57 32 14
0.506341 0.028569 1.904354 0.388395 -0.851324 -0.352699 45 26 18
0.521846 0.028766 1.927747 0.525259 -0.748820 -0.404194 22 17 15
0.533372 0.028733 1.936330 0.354367 -0.720757 -0.595763 23 17 14
0.543661 0.028628 1.940341 0.183732 -0.718178 -0.671166 23 17 14
0.448883 0.039121 1.925727 -0.580229 -0.814412 0.008212 36 27 18
0.449622 0.038252 1.891798 -0.463607 -0.750029 -0.471726 33 18 12
0.457461 0.038002 1.887491 -0.347026 -0.607907 -0.714158 66 44 24
0.465679 0.037786 1.884830 -0.253491 -0.810032 -0.528763 77 50 24
0.473309 0.037526 1.880005 -0.270782 -0.846569 -0.458255 86 62 32
0.481669 0.037327 1.878105 -0.051833 -0.888311 -0.456307 67 53 34
0.490578 0.037171 1.878309 -0.121915 -0.888029 -0.443330 86 66 40
0.498435 0.036937 1.874672 0.099848 -0.898649 -0.427154 88 53 21
0.512612 0.037162 1.893797 0.516977 -0.786913 -0.336903 78 46 18
0.529532 0.037565 1.921940 0.478688 -0.763502 -0.433501 41 27 17
0.540933 0.037562 1.930034 0.240580 -0.778765 -0.579350 26 19 15
0.550551 0.037432 1.931790 0.107702 -0.874717 -0.472515 17 13 11
0.561004 0.037356 1.936288 0.142856 -0.858882 -0.491848 18 14 14
0.570366 0.037206 1.937038 -0.013987 -0.852824 -0.522011 26 21 17
0.439744 0.047198 1.886871 -0.407979 -0.582011 -0.703432 41 27 16
0.448247 0.046996 1.885276 -0.310055 -0.494022 -0.812286 28 15 10
0.456017 0.046722 1.880817 -0.474814 -0.503336 -0.721945 62 48 25
0.463084 0.046383 1.873769 -0.577115 -0.632486 -0.516623 35 19 10
0.470068 0.046044 1.866660 -0.343312 -0.758432 -0.554001 40 29 20
0.478591 0.045858 1.865614 -0.149780 -0.815782 -0.558628 39 26 18
0.486620 0.045628 1.862771 -0.165189 -0.833526 -0.527207 27 18 14
0.495041 0.045436 1.861451 -0.065987 -0.822652 -0.564703 56 31 14
0.503976 0.045292 1.862020 0.251448 -0.850233 -0.462468 78 45 20
0.518698 0.045652 1.882940 0.520674 -0.791598 -0.319798 67 29 11
0.536223 0.046232 1.912876 0.216249 -0.908706 -0.357056 52 31 15
0.544027 0.045966 1.908722 0.082042 -0.959114 -0.270868 30 23 17
0.555862 0.046037 1.918215 0.261452 -0.882290 -0.391416 37 24 16
0.566302 0.045985 1.922804 0.059388 -0.890911 -0.450278 32 23 16
0.575164 0.045804 1.922123 0.031486 -0.901037 -0.432598 26 18 15
0.585610 0.045747 1.926528 0.066713 -0.919653 -0.387025 26 19 16
0.594667 0.045581 1.926426 -0.029936 -0.923276 -0.382968 15 11 11
0.431229 0.056268 1.887520 -0.435968 -0.395659 -0.808323 11 8 6
0.439133 0.055982 1.883397 -0.257864 -0.294887 -0.920080 33 22 13
0.447591 0.055769 1.881681 -0.325703 -0.210238 -0.921801 20 12 9
0.455452 0.055488 1.877649 -0.681412 -0.162730 -0.713580 55 33 13
0.461437 0.054990 1.866428 -0.783278 -0.288280 -0.550790 22 14 9
0.468141 0.054589 1.858376 -0.586425 -0.479116 -0.653111 12 11 9
0.475827 0.054309 1.854315 -0.330756 -0.699345 -0.633654 9 7 5
0.484082 0.054098 1.852508 -0.189803 -0.758112 -0.623892 46 34 25
0.492087 0.053861 1.849848 -0.124248 -0.751715 -0.647679 48 40 29
0.500790 0.053701 1.849778 -0.046212 -0.788304 -0.613548 72 44 22
0.509407 0.053532 1.849403 0.233935 -0.837397 -0.494005 68 51 33
0.524426 0.054018 1.871202 0.237041 -0.929377 -0.282966 74 46 21
0.533142 0.053847 1.870827 0.101605 -0.954616 -0.279973 41 24 14
0.545254 0.054011 1.881843 0.344040 -0.890747 -0.296995 30 20 17
0.559992 0.054415 1.901173 0.218914 -0.919633 -0.326115 28 21 14
0.569484 0.054303 1.902868 0.067562 -0.933476 -0.352220 54 42 27
0.579021 0.054192 1.904654 0.103285 -0.916361 -0.386801 65 42 19
0.588565 0.054081 1.906410 0.017265 -0.916328 -0.400056 28 19 15
0.597410 0.053905 1.905942 0.135982 -0.880919 -0.453310 46 29 14
0.609010 0.053972 1.913911 0.348492 -0.811839 -0.468477 19 15 14
0.621212 0.054083 1.923462 0.359815 -0.811743 -0.460007 18 14 13
0.430423 0.065009 1.883163 -0.197806 -0.146536 -0.969226 9 8 6
0.439161 0.064828 1.882574 -0.122392 -0.061267 -0.990589 18 12 8
0.447736 0.064625 1.881346 -0.341839 -0.098984 -0.934531 30 20 13
0.455497 0.064310 1.876919 -0.627537 -0.135040 -0.766786 24 13 6
0.462133 0.063849 1.868258 -0.819865 0.075898 -0.567504 12 8 7
0.467363 0.063212 1.854511 -0.840750 -0.183179 -0.509495 11 8 7
0.473989 0.062777 1.846521 -0.426094 -0.630422 -0.648854 14 9 6
0.481897 0.062517 1.843557 -0.243476 -0.661232 -0.709571 19 12 9
0.490194 0.062311 1.842117 -0.171605 -0.678109 -0.714647 47 41 31
0.498045 0.062051 1.839123 -0.155135 -0.697676 -0.699415 46 38 27
0.506837 0.061909 1.839540 -0.040282 -0.719987 -0.692818 67 57 41
0.515299 0.061727 1.838799 0.143969 -0.787161 -0.599709 70 58 41
0.526340 0.061846 1.846861 0.174081 -0.875437 -0.450895 45 29 14
0.535412 0.061730 1.848069 0.272562 -0.843780 -0.462326 68 51 27
0.549577 0.062183 1.866027 0.371044 -0.857510 -0.356375 64 42 21
0.560376 0.062244 1.872504 0.239322 -0.898446 -0.368131 61 43 24
0.571847 0.062369 1.880929 0.231069 -0.885753 -0.402554 59 48 28
0.582624 0.062411 1.886917 0.146289 -0.891706 -0.428322 68 44 20
0.592202 0.062321 1.889008 0.177013 -0.861256 -0.476346 40 25 14
0.603156 0.062369 1.895240 0.353998 -0.784596 -0.509014 50 33 16
0.614907 0.062491 1.903694 0.401038 -0.754957 -0.518852 44 28 16
0.626903 0.062627 1.912635 0.401014 -0.749596 -0.526587 13 11 12
0.422124 0.074107 1.884696 -0.201079 0.026014 -0.979230 13 7 6
0.430598 0.073878 1.882950 -0.154242 -0.002576 -0.988030 13 7 7
0.439248 0.073679 1.881995 -0.188955 -0.086713 -0.978150 17 12 9
0.447513 0.073421 1.879518 -0.431964 -0.197850 -0.879922 11 8 6
0.455236 0.073081 1.874970 -0.617013 -0.248915 -0.746549 13 12 10
0.462643 0.072699 1.869356 -0.678162 -0.258613 -0.687906 16 11 9
0.469227 0.072201 1.860788 -0.897636 -0.040457 -0.438878 27 19 16
0.472700 0.071255 1.840801 -0.762395 -0.324053 -0.560128 49 32 16
0.480392 0.070954 1.837137 -0.251649 -0.390106 -0.885714 44 32 18
0.488577 0.070729 1.835392 -0.326332 -0.507645 -0.797373 43 29 17
0.496481 0.070468 1.832703 -0.148888 -0.557054 -0.817021 66 52 34
0.504872 0.070277 1.831811 -0.071450 -0.548100 -0.833356 41 25 13
0.513421 0.070109 1.831497 0.000199 -0.504764 -0.863258 36 19 11
0.522219 0.069975 1.832036 0.269347 -0.597680 -0.755137 50 38 26
0.532814 0.070073 1.838574 0.258539 -0.673100 -0.692889 32 18 10
0.542501 0.070046 1.841914 0.417858 -0.690340 -0.590615 19 14 11
0.554660 0.070325 1.853170 0.401142 -0.761531 -0.509073 46 33 18
0.566270 0.070520 1.862325 0.339556 -0.798004 -0.497887 63 51 35
0.577028 0.070601 1.868526 0.200450 -0.858061 -0.472811 45 26 12
0.587070 0.070587 1.872322 0.255325 -0.839119 -0.480300 65 50 30
0.598285 0.070707 1.879589 0.431116 -0.719883 -0.543974 50 28 15
0.610489 0.070931 1.889625 0.541198 -0.570382 -0.617875 66 37 15
0.622820 0.071156 1.899752 0.528053 -0.544770 -0.651449 40 21 11
0.430960 0.082782 1.883528 -0.229552 0.049638 -0.972030 14 10 7
0.439356 0.082532 1.881508 -0.317778 -0.043783 -0.947154 10 6 5
0.447103 0.082168 1.876930 -0.606101 -0.236439 -0.759432 13 9 8
0.454118 0.081683 1.869611 -0.645649 -0.358831 -0.674075 10 9 7
0.461384 0.081255 1.863541 -0.670412 -0.364104 -0.646511 6 5 3
0.468227 0.080766 1.856071 -0.855890 -0.213999 -0.470804 12 8 6
0.472153 0.079804 1.837884 -0.549416 0.272405 -0.789897 27 19 11
0.480548 0.079604 1.836869 -0.502330 0.129802 -0.854877 25 20 14
0.487351 0.079150 1.830101 -0.418615 -0.283384 -0.862818 16 9 10
0.495615 0.078936 1.828782 -0.161689 -0.262996 -0.951152 23 15 10
0.504092 0.078758 1.828256 -0.080803 -0.297748 -0.951219 15 11 10
0.512406 0.078555 1.827181 0.012386 -0.219717 -0.975485 27 20 13
0.521399 0.078456 1.828451 0.104892 -0.351494 -0.930296 25 16 11
0.530950 0.078436 1.831547 0.251888 -0.516834 -0.818190 26 16 14
0.540282 0.078379 1.833821 0.345408 -0.574837 -0.741792 18 10 9
0.551420 0.078573 1.841879 0.429925 -0.626225 -0.650390 22 17 14
0.562072 0.078688 1.848141 0.306457 -0.759133 -0.574284 59 49 32
0.572581 0.078774 1.853764 0.188115 -0.839360 -0.509988 72 45 18
0.581552 0.078647 1.854454 0.169080 -0.874791 -0.454040 52 42 27
0.593541 0.078915 1.864338 0.500252 -0.714868 -0.488582 78 48 20
0.607475 0.079421 1.879791 0.673847 -0.458334 -0.579535 75 57 33
0.621926 0.079972 1.896340 0.695615 -0.253925 -0.672043 30 15 11
0.431251 0.091679 1.883801 -0.254078 -0.257500 -0.932276 8 7 5
0.439605 0.091410 1.881599 -0.413233 -0.231559 -0.880692 6 5 2
0.446752 0.090905 1.874586 -0.659771 -0.198045 -0.724900 7 6 4
0.453742 0.090383 1.867207 -0.689079 -0.127089 -0.713455 12 8 7
0.460856 0.089899 1.860591 -0.737390 -0.139536 -0.660897 12 8 7
0.467265 0.089296 1.851508 -0.648237 -0.021984 -0.761121 29 17 8
0.474574 0.088876 1.846140 -0.541282 0.290013 -0.789244 26 16 7
0.482812 0.088634 1.844395 -0.578659 0.420008 -0.699105 19 11 9
0.487717 0.087804 1.830595 -0.627701 0.186465 -0.755793 29 17 10
0.495404 0.087484 1.827207 -0.206372 -0.081336 -0.975087 12 10 9
0.503901 0.087308 1.826771 -0.026207 -0.112919 -0.993258 49 30 13
0.512658 0.087176 1.827250 -0.063158 -0.173029 -0.982890 56 37 17
0.520650 0.086917 1.825110 -0.103202 -0.340873 -0.934427 33 16 9
0.529559 0.086811 1.826105 0.129563 -0.431526 -0.892748 17 13 12
0.538552 0.086715 1.827344 0.262922 -0.494337 -0.828555 22 14 11
0.548975 0.086842 1.833179 0.380968 -0.549290 -0.743737 19 15 12
0.558787 0.086864 1.836884 0.228030 -0.653826 -0.721467 46 24 13
0.567850 0.086768 1.838122 0.000276 -0.815305 -0.579032 52 27 12
0.576022 0.086537 1.836561 0.055691 -0.813990 -0.578203 24 13 11
0.586701 0.086675 1.842700 0.592161 -0.613329 -0.522660 49 38 24
0.602962 0.087606 1.865456 0.779427 -0.313128 -0.542627 61 40 22
0.621666 0.088847 1.894816 0.822624 -0.081089 -0.562773 21 12 11
0.430220 0.100279 1.878503 -0.193214 -0.499263 -0.844633 12 10 8
0.438749 0.100045 1.877123 -0.415453 -0.328360 -0.848280 6 5 3
0.446792 0.099708 1.873825 -0.627054 -0.044689 -0.777693 11 7 6
0.453955 0.099189 1.867148 -0.711411 -0.035464 -0.701881 7 6 4
0.460773 0.098611 1.859375 -0.734719 -0.113880 -0.668745 9 8 6
0.467844 0.098103 1.852851 -0.620468 -0.106567 -0.776957 20 12 7
0.475839 0.097795 1.850041 -0.460211 -0.001277 -0.887809 25 16 9
0.483109 0.097348 1.844644 -0.649163 -0.063282 -0.758013 12 8 7
0.489037 0.096652 1.834559 -0.774676 0.090256 -0.625885 12 7 7
0.495807 0.096136 1.827823 -0.473874 0.140551 -0.869304 31 18 10
0.503857 0.095874 1.825805 -0.118381 -0.115463 -0.986232 43 25 13
0.512214 0.095671 1.824913 -0.232966 -0.274647 -0.932896 53 31 10
0.520071 0.095380 1.822348 -0.132324 -0.266156 -0.954805 38 20 9
0.528704 0.095232 1.822460 0.028011 -0.321916 -0.946354 42 27 14
0.537552 0.095120 1.823273 0.171304 -0.404250 -0.898463 55 37 18
0.547121 0.095131 1.826399 0.376402 -0.429715 -0.820772 56 34 14
0.557198 0.095222 1.831046 0.106095 -0.532322 -0.839867 16 13 12
0.564937 0.094917 1.828207 -0.122292 -0.482854 -0.867120 25 20 17
0.573613 0.094770 1.828350 -0.008801 -0.431379 -0.902128 25 16 13
0.582191 0.094606 1.828189 0.454271 -0.344736 -0.821459 14 13 11
0.604295 0.096581 1.868714 0.856482 0.039495 -0.514663 24 18 18
0.623644 0.098059 1.899925 0.837222 0.149223 -0.526110 31 22 17
0.454006 0.107959 1.866450 -0.764244 -0.024367 -0.644466 5 4 3
0.460534 0.107279 1.857552 -0.777779 -0.048519 -0.626663 13 7 7
0.467231 0.106658 1.849629 -0.508288 -0.198771 -0.837934 25 14 8
0.475293 0.106354 1.847124 -0.511457 -0.300130 -0.805192 21 12 5
0.482517 0.105876 1.841605 -0.686613 -0.309864 -0.657683 13 9 10
0.489126 0.105279 1.834048 -0.637895 -0.213755 -0.739864 36 25 17
0.496509 0.104859 1.829504 -0.553181 -0.058788 -0.830984 45 30 17
0.503753 0.104421 1.824626 -0.343866 -0.037831 -0.938256 36 22 10
0.511621 0.104117 1.822060 -0.258755 -0.151229 -0.954031 29 15 11
0.519787 0.103878 1.820591 -0.168120 -0.159278 -0.972814 58 37 17
0.528359 0.103719 1.820521 -0.065939 -0.267484 -0.961304 54 38 23
0.536690 0.103516 1.819660 0.099984 -0.261259 -0.960076 48 33 15
0.545849 0.103468 1.821507 0.349165 -0.216952 -0.911601 36 18 8
0.556515 0.103694 1.828102 0.165200 -0.202394 -0.965270 16 12 11
0.564551 0.103432 1.826236 0.032037 0.088569 -0.995555 16 12 11
0.573562 0.103347 1.827444 0.167538 0.238381 -0.956612 18 12 11
0.583125 0.103356 1.830295 0.598011 0.323250 -0.733412 13 9 8
0.607146 0.105850 1.876535 0.868890 0.113111 -0.481909 19 15 14
0.461129 0.116138 1.858985 -0.818456 0.065541 -0.570819 26 21 17
0.467444 0.115385 1.849572 -0.706284 -0.079919 -0.703403 25 19 13
0.474366 0.114798 1.842776 -0.604625 -0.235447 -0.760917 24 16 12
0.481536 0.114286 1.837137 -0.663661 -0.103832 -0.740792 24 13 8
0.488587 0.113760 1.831255 -0.530929 -0.088992 -0.842731 50 30 13
0.496229 0.113380 1.827685 -0.334886 -0.005427 -0.942243 47 35 19
0.504246 0.113091 1.825546 -0.284172 0.198380 -0.938025 56 33 14
0.511970 0.112743 1.822464 -0.386779 0.119384 -0.914412 31 18 10
0.519467 0.112353 1.818712 -0.269070 -0.092583 -0.958660 56 41 22
0.527630 0.112111 1.817304 -0.101777 -0.219514 -0.970286 44 28 14
0.536141 0.111944 1.817082 0.268651 0.046743 -0.962103 54 27 8
0.546408 0.112132 1.822550 0.414582 0.130713 -0.900575 52 28 13
0.556537 0.112281 1.827409 0.322129 0.269765 -0.907447 13 11 12
0.566547 0.112397 1.831750 0.330977 0.549738 -0.766969 17 13 10
0.576874 0.112565 1.836944 0.144205 0.578793 -0.802623 13 12 10
0.585595 0.112419 1.837086 0.579385 0.375948 -0.723171 10 9 7
0.608429 0.114905 1.879638 0.872675 0.113493 -0.474929 43 25 11
0.467315 0.124025 1.848207 -0.754241 -0.113706 -0.646678 30 20 10
0.474069 0.123365 1.840804 -0.411205 -0.083737 -0.907689 33 26 18
0.482237 0.123079 1.838877 -0.443313 0.179056 -0.878301 49 31 16
0.489070 0.122468 1.832174 -0.558688 0.346483 -0.753536 39 26 13
0.496488 0.122016 1.827784 -0.308357 0.246199 -0.918859 46 29 11
0.504975 0.121828 1.827288 -0.153565 0.210261 -0.965509 51 35 20
0.513051 0.121546 1.825393 -0.343884 0.357102 -0.868459 53 38 19
0.520025 0.121015 1.819816 -0.369448 0.431671 -0.822903 52 42 30
0.527785 0.120674 1.817039 0.006489 0.316163 -0.948683 58 45 26
0.537935 0.120868 1.822202 0.366893 0.445162 -0.816835 55 34 13
0.547861 0.121002 1.826482 0.417856 0.417247 -0.807032 73 49 23
0.558878 0.121360 1.834108 0.467990 0.430220 -0.771943 17 10 8
0.570153 0.121756 1.842312 0.250857 0.287176 -0.924446 29 22 16
0.578526 0.121532 1.841299 0.168985 0.284813 -0.943571 18 14 11
0.589245 0.121789 1.847465 0.614129 0.331196 -0.716348 58 35 14
0.474097 0.132004 1.840048 -0.263190 0.084812 -0.961009 27 16 8
0.482814 0.131857 1.840160 -0.151824 0.223918 -0.962710 50 37 21
0.490971 0.131562 1.838235 -0.460999 0.361669 -0.810355 49 41 23
0.498145 0.131018 1.832871 -0.404715 0.400921 -0.821869 46 37 21
0.505833 0.130618 1.829485 -0.219585 0.325281 -0.919769 51 43 30
0.514107 0.130372 1.828229 -0.146974 0.284051 -0.947477 52 39 23
0.522190 0.130083 1.826364 -0.215779 0.467386 -0.857316 52 42 24
0.530510 0.129856 1.825352 0.107549 0.572305 -0.812958 48 34 18
0.540117 0.129936 1.828597 0.304856 0.520258 -0.797743 56 37 20
0.550255 0.130132 1.833455 0.379514 0.417202 -0.825780 28 15 9
0.560496 0.130340 1.838494 0.270942 0.055868 -0.960973 15 11 10
0.569806 0.130326 1.840462 0.227503 -0.111367 -0.967388 17 11 10
0.579362 0.130362 1.843129 0.343412 0.137959 -0.928997 52 33 16
0.484027 0.140832 1.843785 -0.190992 0.289962 -0.937787 47 30 14
0.492009 0.140473 1.841160 -0.432814 0.248421 -0.866579 49 33 19
0.498899 0.139821 1.834733 -0.478238 0.315435 -0.819628 30 20 12
0.506970 0.139506 1.832655 -0.281485 0.482727 -0.829302 61 41 17
0.514854 0.139146 1.830000 -0.133601 0.383762 -0.913716 30 16 7
0.523494 0.138991 1.829991 0.045748 0.479406 -0.876400 32 16 11
0.532999 0.139059 1.832871 0.227347 0.560552 -0.796300 46 27 12
0.542459 0.139107 1.835508 0.204655 0.465743 -0.860929 40 24 12
0.551775 0.139113 1.837597 0.173680 0.276220 -0.945271 31 17 8
0.560614 0.138997 1.838104 -0.001340 0.148422 -0.988923 11 9 10
0.569187 0.138816 1.837761 0.241226 -0.034175 -0.969867 17 12 11
0.579982 0.139160 1.844289 0.437958 0.011611 -0.898920 18 14 11
0.492426 0.149229 1.841834 -0.502814 0.090126 -0.859683 41 34 22
0.509506 0.148828 1.840720 -0.315605 0.643679 -0.697188 43 26 11
0.516829 0.148286 1.835997 -0.128357 0.602350 -0.787844 29 16 12
0.525929 0.148250 1.837448 0.153222 0.536626 -0.829792 26 14 7
0.535280 0.148279 1.839689 0.081536 0.397277 -0.914069 33 20 12
0.543949 0.148118 1.839618 0.068893 0.282514 -0.956786 17 13 10
0.552891 0.148029 1.840430 0.020448 0.204231 -0.978709 31 19 11
0.561468 0.147844 1.840056 -0.025141 0.183453 -0.982707 22 13 10
0.570120 0.147678 1.839925 0.204791 0.279929 -0.937923 49 28 11
0.518937 0.157525 1.842449 -0.088130 0.555962 -0.826523 25 19 13
0.527674 0.157380 1.842561 -0.016803 0.277431 -0.960599 40 23 11
0.536003 0.157116 1.841305 -0.026408 0.078317 -0.996579 14 6 6
0.544783 0.156984 1.841569 0.032172 0.107455 -0.993689 39 29 19
0.553490 0.156831 1.841590 -0.006460 0.051632 -0.998645 39 20 9
0.562122 0.156657 1.841368 0.203744 0.227102 -0.952320 48 31 16
0.574070 0.157379 1.851543 0.584001 0.387573 -0.713253 34 17 11
0.536096 0.165780 1.840824 -0.037281 -0.055064 -0.997787 17 12 10
0.545005 0.165688 1.841513 0.029552 -0.017410 -0.999412 49 30 15
0.553732 0.165541 1.841595 0.095818 0.104153 -0.989935 39 19 8
0.563455 0.165681 1.844838 0.471767 0.254886 -0.844079 32 23 14
