ply
format ascii 1.0
element vertex 305
property float x
property float y
property float z
property float nx
property float ny
property float nz
property uchar red
property uchar green
property uchar blue
end_header
-0.498953 -0.007188 1.946052 -0.113711 -0.969128 -0.218771 35 20 15
-0.485790 -0.007298 1.929806 0.156003 -0.938546 -0.307886 59 31 15
-0.494525 0.002036 1.893870 0.226324 -0.833264 -0.504429 60 43 27
-0.487130 0.001882 1.899730 0.267372 -0.907559 -0.323805 96 69 37
-0.480826 0.001732 1.910205 0.426062 -0.840860 -0.333806 87 75 49
-0.473707 0.001577 1.917745 0.303610 -0.870580 -0.387185 107 89 53
-0.466524 0.001422 1.925316 0.397477 -0.866882 -0.300879 72 39 17
-0.452256 0.001107 1.941831 0.574853 -0.714110 -0.399488 89 55 30
-0.499728 0.010999 1.880216 0.248241 -0.657393 -0.711485 95 81 58
-0.492259 0.010870 1.885434 0.169787 -0.721608 -0.671159 80 48 19
-0.483502 0.010711 1.885760 0.293817 -0.779194 -0.553649 78 48 23
-0.476746 0.010600 1.894155 0.528775 -0.761422 -0.375011 102 86 60
-0.470036 0.010491 1.903070 0.343428 -0.791399 -0.505712 125 104 70
-0.461781 0.010345 1.905872 0.314164 -0.833589 -0.454346 133 101 57
-0.455453 0.010246 1.917017 0.571679 -0.770413 -0.282220 122 79 36
-0.449391 0.010154 1.929782 0.548671 -0.748320 -0.372797 90 54 24
-0.442019 0.010030 1.937259 0.475611 -0.754643 -0.452005 53 39 25
-0.524776 0.020251 1.875480 -0.310491 -0.490170 -0.814450 79 71 55
-0.506907 0.019919 1.874421 -0.025153 -0.585357 -0.810386 98 84 55
-0.497996 0.019754 1.873953 0.067677 -0.593647 -0.801875 87 76 60
-0.489830 0.019621 1.876358 0.162281 -0.668494 -0.725797 111 83 53
-0.481075 0.019462 1.876531 0.210130 -0.673409 -0.708778 97 69 36
-0.473564 0.019358 1.881717 0.593763 -0.652535 -0.470790 74 47 25
-0.467633 0.019324 1.893595 0.469433 -0.689299 -0.551814 122 85 41
-0.459443 0.019192 1.896488 0.200737 -0.714027 -0.670724 129 83 34
-0.451183 0.019059 1.899197 0.512425 -0.739038 -0.437314 129 92 41
-0.445658 0.019050 1.913947 0.584058 -0.750988 -0.308049 95 53 25
-0.439211 0.019002 1.925212 0.525746 -0.763710 -0.374617 106 83 38
-0.432078 0.018926 1.933849 0.496973 -0.771916 -0.396439 35 24 21
-0.426205 0.018911 1.948719 0.617751 -0.763036 -0.190156 38 25 19
-0.533498 0.029215 1.875523 -0.388919 -0.465201 -0.795192 46 36 30
-0.523060 0.028961 1.869584 -0.339993 -0.484015 -0.806309 37 23 18
-0.513843 0.028775 1.867924 -0.095932 -0.539764 -0.836333 91 52 23
-0.505025 0.028612 1.867701 -0.009621 -0.595920 -0.802986 106 89 60
-0.496409 0.028461 1.868241 0.031565 -0.571740 -0.819827 112 93 76
-0.487748 0.028308 1.868629 0.130209 -0.585925 -0.799836 122 84 45
-0.479439 0.028177 1.870422 0.249023 -0.572066 -0.781491 101 55 22
-0.471704 0.028082 1.874599 0.546135 -0.576076 -0.608172 102 62 28
-0.465582 0.028091 1.885558 0.541084 -0.648827 -0.535025 122 87 44
-0.457487 0.027978 1.888696 0.206463 -0.662469 -0.720075 121 76 35
-0.449040 0.027844 1.890458 0.375718 -0.685241 -0.623924 138 87 36
-0.442686 0.027848 1.901417 0.575367 -0.724402 -0.379730 98 49 15
-0.435575 0.027807 1.909472 0.531438 -0.771441 -0.349932 105 71 31
-0.429334 0.027829 1.921836 0.511946 -0.763632 -0.393418 48 29 21
-0.421648 0.027757 1.928027 0.625124 -0.710998 -0.322028 47 32 23
-0.416809 0.027888 1.948027 0.783301 -0.601747 -0.156012 44 30 20
-0.541321 0.038117 1.872418 -0.251982 -0.536106 -0.805665 46 39 33
-0.531739 0.037898 1.869567 -0.327998 -0.462145 -0.823917 37 24 16
-0.521321 0.037615 1.863599 -0.287555 -0.403971 -0.868401 54 35 20
-0.512338 0.037438 1.862703 -0.170454 -0.526021 -0.833215 53 34 17
-0.503078 0.037239 1.860738 -0.011385 -0.630579 -0.776042 117 74 35
-0.494686 0.037107 1.862012 0.117370 -0.592424 -0.797031 123 99 68
-0.486274 0.036973 1.863255 0.155533 -0.533975 -0.831072 111 102 85
-0.478074 0.036858 1.865384 0.266528 -0.516448 -0.813784 106 97 72
-0.470263 0.036775 1.869163 0.478232 -0.519424 -0.708161 70 37 18
-0.463011 0.036741 1.875386 0.522679 -0.593933 -0.611596 114 75 31
-0.455641 0.036702 1.881364 0.308249 -0.663077 -0.682137 123 61 18
-0.447342 0.036586 1.883615 0.271668 -0.627293 -0.729863 101 48 16
-0.439505 0.036512 1.887973 0.517295 -0.663458 -0.540582 79 43 20
-0.432476 0.036513 1.896120 0.552649 -0.696978 -0.456948 41 26 19
-0.425766 0.036547 1.906068 0.649701 -0.673093 -0.353320 31 23 23
-0.419356 0.036616 1.917849 0.624145 -0.665143 -0.409913 31 21 19
-0.413700 0.036763 1.933753 0.721082 -0.664373 -0.196595 45 28 20
-0.409967 0.037103 1.959738 0.707833 -0.699830 -0.095971 48 30 20
-0.539309 0.046738 1.865669 -0.118317 -0.504197 -0.855445 92 58 21
-0.530437 0.046568 1.865232 -0.251665 -0.432702 -0.865698 82 52 23
-0.520444 0.046295 1.860731 -0.342897 -0.378314 -0.859825 111 76 33
-0.510112 0.045986 1.854825 -0.311958 -0.494438 -0.811303 52 39 27
-0.501108 0.045800 1.853685 0.036593 -0.547782 -0.835820 98 57 28
-0.492957 0.045694 1.855753 0.202625 -0.560359 -0.803082 123 116 85
-0.484872 0.045597 1.858157 0.199838 -0.539233 -0.818103 96 80 52
-0.476819 0.045504 1.860775 0.234305 -0.555326 -0.797944 106 73 37
-0.468762 0.045414 1.863484 0.458719 -0.554514 -0.694328 110 77 34
-0.461669 0.045424 1.870256 0.471075 -0.529518 -0.705478 89 46 19
-0.453797 0.045358 1.874034 0.325606 -0.602250 -0.728887 102 53 18
-0.445724 0.045275 1.877109 0.295402 -0.623232 -0.724099 94 49 15
-0.437769 0.045206 1.880826 0.510679 -0.576153 -0.638165 68 39 16
-0.430765 0.045245 1.888941 0.609029 -0.541014 -0.579988 31 22 22
-0.423456 0.045258 1.896017 0.728816 -0.523582 -0.441237 33 23 20
-0.417662 0.045448 1.910454 0.649991 -0.546374 -0.528192 33 24 19
-0.409855 0.045419 1.915971 0.510898 -0.705284 -0.491486 35 24 18
-0.403377 0.045552 1.928208 0.584402 -0.787899 -0.194135 54 30 19
-0.399279 0.045982 1.952874 0.604880 -0.790727 -0.094186 54 34 20
-0.537770 0.055347 1.860571 -0.105541 -0.349006 -0.931159 87 61 32
-0.528706 0.055153 1.859370 -0.266416 -0.347771 -0.898932 78 48 21
-0.519323 0.054923 1.856978 -0.395677 -0.392245 -0.830412 113 85 42
-0.508800 0.054564 1.850309 -0.283237 -0.344875 -0.894896 46 28 20
-0.499661 0.054355 1.848590 0.006398 -0.367866 -0.929857 38 24 16
-0.491613 0.054269 1.850963 0.196956 -0.477794 -0.856108 55 30 19
-0.483573 0.054187 1.853458 0.179774 -0.537636 -0.823789 108 77 37
-0.475177 0.054064 1.854640 0.166927 -0.565498 -0.807680 91 62 28
-0.466952 0.053964 1.856555 0.431576 -0.588159 -0.683967 73 39 16
-0.460209 0.054045 1.864639 0.488227 -0.568240 -0.662373 61 35 17
-0.452267 0.053987 1.868020 0.269563 -0.574561 -0.772797 64 32 14
-0.444007 0.053891 1.870178 0.293233 -0.597097 -0.746652 45 26 17
-0.436202 0.053857 1.874414 0.538760 -0.564612 -0.625260 53 31 20
-0.429377 0.053955 1.883200 0.666500 -0.464684 -0.582964 35 26 21
-0.422006 0.053989 1.889878 0.761647 -0.386973 -0.519756 43 28 18
-0.416252 0.054251 1.904374 0.709907 -0.428084 -0.559264 45 26 18
-0.408383 0.054236 1.909463 0.398258 -0.503409 -0.766792 32 23 18
-0.400088 0.054168 1.912720 0.496015 -0.629907 -0.597651 44 26 18
-0.393221 0.054309 1.923244 0.586604 -0.762210 -0.273735 37 25 19
-0.388553 0.054785 1.945494 0.610169 -0.784424 -0.111237 41 31 23
-0.537787 0.064102 1.860912 -0.449116 0.003011 -0.893469 76 52 26
-0.527517 0.063753 1.855435 -0.407984 -0.258767 -0.875550 84 44 14
-0.517459 0.063424 1.850538 -0.376150 -0.261801 -0.888804 50 27 16
-0.508344 0.063211 1.848941 -0.246478 -0.250260 -0.936279 32 22 19
-0.498811 0.062942 1.845725 -0.071965 -0.319053 -0.945001 49 31 21
-0.490663 0.062853 1.847670 0.128867 -0.401501 -0.906747 43 24 17
-0.481968 0.062693 1.847569 0.069598 -0.494843 -0.866191 105 65 26
-0.473645 0.062583 1.848934 0.239933 -0.483340 -0.841911 116 77 34
-0.465445 0.062492 1.850849 0.443457 -0.348906 -0.825597 114 73 32
-0.458520 0.062584 1.858077 0.482465 -0.475615 -0.735539 32 21 16
-0.450753 0.062563 1.862068 0.279649 -0.590005 -0.757423 39 30 20
-0.442577 0.062487 1.864471 0.267370 -0.589666 -0.762107 62 36 19
-0.434629 0.062448 1.867973 0.552981 -0.547598 -0.627971 74 45 20
-0.427950 0.062606 1.877277 0.729134 -0.449942 -0.515670 72 43 19
-0.421195 0.062764 1.886641 0.778719 -0.372911 -0.504514 45 31 17
-0.415159 0.063048 1.899761 0.722612 -0.431064 -0.540385 23 18 15
-0.407406 0.063074 1.905308 0.435614 -0.463902 -0.771386 42 27 16
-0.399148 0.063025 1.908656 0.389279 -0.439894 -0.809293 25 20 16
-0.391146 0.063023 1.913439 0.483245 -0.566769 -0.667268 26 21 18
-0.383343 0.063063 1.919473 0.685661 -0.628636 -0.366996 25 21 19
-0.539341 0.073078 1.866627 -0.554668 0.034823 -0.831343 105 77 42
-0.527308 0.072456 1.854982 -0.585312 0.062221 -0.808417 111 76 36
-0.516787 0.072038 1.848407 -0.377262 -0.231416 -0.896727 111 87 48
-0.507224 0.071751 1.845130 -0.272917 -0.293861 -0.916058 115 100 57
-0.498198 0.071540 1.843746 -0.124319 -0.304385 -0.944402 38 22 15
-0.489417 0.071364 1.843249 -0.001843 -0.396203 -0.918161 62 32 19
-0.480750 0.071205 1.843178 0.113680 -0.332959 -0.936064 101 54 21
-0.472230 0.071069 1.843688 0.346029 -0.246522 -0.905257 132 100 48
-0.465265 0.071179 1.850488 0.493318 -0.148929 -0.857005 117 70 25
-0.457872 0.071230 1.855792 0.368642 -0.321041 -0.872374 65 42 21
-0.449262 0.071089 1.856210 0.115069 -0.455326 -0.882857 72 50 25
-0.440997 0.071006 1.858124 0.280677 -0.578679 -0.765736 42 25 17
-0.433043 0.070978 1.861473 0.558999 -0.521322 -0.644781 35 22 13
-0.426646 0.071225 1.871905 0.743201 -0.462423 -0.483546 49 31 16
-0.420063 0.071454 1.881940 0.757914 -0.446820 -0.475310 25 18 17
-0.413561 0.071714 1.892798 0.684076 -0.520034 -0.511473 37 28 25
-0.406159 0.071825 1.899871 0.495907 -0.561226 -0.662647 27 21 18
-0.398145 0.071834 1.904287 0.397817 -0.497296 -0.770998 25 18 14
-0.390046 0.071833 1.908489 0.362538 -0.509113 -0.780622 23 18 14
-0.381804 0.071812 1.912173 0.768695 -0.459479 -0.444958 25 20 16
-0.379445 0.072972 1.946810 0.964990 -0.255984 -0.057151 40 28 19
-0.548519 0.082090 1.868350 -0.395641 -0.208890 -0.894334 94 55 21
-0.538510 0.081737 1.864004 -0.413023 -0.244064 -0.877408 107 90 54
-0.528507 0.081381 1.859537 -0.583178 -0.099603 -0.806215 93 70 41
-0.516064 0.080625 1.846092 -0.552126 -0.147857 -0.820546 106 86 49
-0.506279 0.080286 1.841961 -0.287221 -0.281408 -0.915595 88 48 21
-0.497136 0.080047 1.840089 -0.098756 -0.304284 -0.947448 66 30 16
-0.488411 0.079876 1.839744 -0.039007 -0.306231 -0.951158 79 47 23
-0.479681 0.079704 1.839369 0.318718 -0.156073 -0.934912 112 96 63
-0.472614 0.079820 1.845557 0.500174 -0.021810 -0.865650 99 77 51
-0.465048 0.079858 1.849975 0.268082 -0.200547 -0.942291 61 40 21
-0.456652 0.079753 1.851156 0.256538 -0.336851 -0.905936 95 77 47
-0.448449 0.079686 1.853192 0.039918 -0.342276 -0.938751 83 67 40
-0.439455 0.079474 1.851931 0.170109 -0.379014 -0.909622 102 80 42
-0.431906 0.079535 1.856928 0.588860 -0.448482 -0.672390 77 53 25
-0.425214 0.079770 1.865955 0.775483 -0.378254 -0.505520 41 29 18
-0.418462 0.080009 1.875103 0.733919 -0.386280 -0.558704 40 26 20
-0.411931 0.080309 1.885685 0.660857 -0.537728 -0.523562 34 24 17
-0.404504 0.080443 1.892482 0.561392 -0.564359 -0.605259 27 20 17
-0.396905 0.080554 1.898760 0.453047 -0.533868 -0.713956 24 19 16
-0.388892 0.080587 1.903267 0.278305 -0.560835 -0.779750 24 19 16
-0.380416 0.080528 1.905637 0.625637 -0.534930 -0.567827 30 23 17
-0.377378 0.081694 1.936576 0.963114 -0.258238 -0.075664 30 22 18
-0.547828 0.090773 1.866247 -0.406268 -0.438773 -0.801514 55 26 12
-0.537452 0.090336 1.860589 -0.388006 -0.397346 -0.831606 97 68 36
-0.527250 0.089921 1.855358 -0.578174 -0.291903 -0.761910 102 83 43
-0.515334 0.089192 1.843748 -0.522884 -0.115130 -0.844593 100 64 28
-0.505517 0.088826 1.839464 -0.281828 -0.210284 -0.936137 32 21 19
-0.496385 0.088579 1.837593 -0.099973 -0.214696 -0.971551 31 21 19
-0.487903 0.088450 1.838134 0.124308 -0.207020 -0.970407 82 51 29
-0.479902 0.088413 1.840567 0.452349 -0.073294 -0.888824 130 101 53
-0.472565 0.088509 1.845716 0.373560 -0.251703 -0.892804 98 70 34
-0.464399 0.088450 1.847722 0.211623 -0.264513 -0.940876 98 63 26
-0.455834 0.088316 1.848170 0.169148 -0.295447 -0.940266 118 94 50
-0.447774 0.088285 1.850756 0.099555 -0.271380 -0.957309 104 71 30
-0.438998 0.088110 1.850380 0.161302 -0.186280 -0.969165 113 75 27
-0.430938 0.088086 1.853118 0.538743 -0.289263 -0.791254 82 58 27
-0.423926 0.088292 1.860647 0.802765 -0.327162 -0.498532 65 38 15
-0.418048 0.088762 1.873670 0.708023 -0.283293 -0.646875 34 23 18
-0.410387 0.088859 1.878971 0.614729 -0.419987 -0.667622 38 30 25
-0.403035 0.089036 1.885981 0.626282 -0.488227 -0.607787 25 20 16
-0.395741 0.089242 1.893601 0.458410 -0.516725 -0.723087 28 22 16
-0.387665 0.089277 1.897680 0.200989 -0.599559 -0.774682 20 16 12
-0.378760 0.089118 1.897730 0.335522 -0.621372 -0.708041 22 17 14
-0.555123 0.099456 1.861558 -0.344116 -0.532215 -0.773519 85 48 21
-0.545177 0.099073 1.857397 -0.281348 -0.523821 -0.804024 52 30 14
-0.536038 0.098837 1.855922 -0.321836 -0.468594 -0.822704 58 29 11
-0.525814 0.098389 1.850540 -0.466570 -0.306288 -0.829759 113 76 32
-0.515565 0.097927 1.844884 -0.488326 -0.093794 -0.867606 96 58 22
-0.505013 0.097396 1.837915 -0.356926 -0.034304 -0.933503 28 19 20
-0.495871 0.097137 1.835983 -0.206336 -0.208007 -0.956116 36 22 17
-0.486883 0.096906 1.834570 0.129078 -0.451058 -0.883111 46 26 18
-0.479510 0.097009 1.839383 0.380955 -0.395861 -0.835564 100 58 23
-0.471498 0.096985 1.841846 0.299285 -0.395851 -0.868177 113 80 36
-0.463409 0.096950 1.844096 0.206765 -0.446040 -0.870802 105 81 45
-0.455217 0.096896 1.846009 0.200438 -0.386715 -0.900153 109 81 38
-0.446999 0.096840 1.847892 0.211485 -0.311682 -0.926352 50 26 14
-0.438570 0.096741 1.848951 0.147801 -0.214409 -0.965497 64 43 22
-0.430396 0.096702 1.851170 0.469978 -0.217291 -0.855515 43 23 17
-0.423083 0.096872 1.857325 0.762048 -0.258910 -0.593506 71 41 17
-0.417259 0.097414 1.870529 0.751342 -0.316610 -0.579002 33 22 18
-0.409402 0.097484 1.874853 0.545060 -0.276905 -0.791349 37 24 18
-0.401907 0.097655 1.881099 0.631323 -0.245382 -0.735676 41 25 18
-0.394760 0.097930 1.889328 0.400604 -0.493728 -0.771848 24 19 16
-0.386066 0.097818 1.890233 0.146178 -0.549025 -0.822924 25 20 17
-0.377303 0.097689 1.890833 0.031237 -0.561400 -0.826955 18 14 12
-0.543697 0.107530 1.852579 -0.299214 -0.425387 -0.854118 35 21 15
-0.533943 0.107156 1.848876 -0.313637 -0.397991 -0.862111 56 28 13
-0.524627 0.106866 1.846609 -0.329221 -0.300465 -0.895173 62 35 15
-0.514928 0.106491 1.842876 -0.389971 -0.204806 -0.897762 56 40 25
-0.505321 0.106129 1.839357 -0.379120 -0.135177 -0.915421 29 19 17
-0.494843 0.105570 1.832450 -0.342041 -0.182434 -0.921806 33 21 18
-0.485735 0.105302 1.830519 0.016322 -0.336827 -0.941425 38 23 18
-0.477830 0.105304 1.833195 0.409904 -0.438524 -0.799797 108 68 32
-0.470378 0.105415 1.837764 0.271365 -0.461372 -0.844688 116 80 35
-0.462254 0.105379 1.839799 0.201734 -0.483761 -0.851633 117 89 44
-0.453969 0.105308 1.841255 0.262042 -0.460378 -0.848167 96 44 14
-0.446085 0.105338 1.844450 0.323832 -0.394696 -0.859853 63 32 14
-0.438113 0.105353 1.847401 0.246626 -0.255829 -0.934734 72 46 18
-0.429799 0.105289 1.848978 0.477408 -0.160751 -0.863852 85 50 15
-0.422604 0.105516 1.855621 0.713919 -0.103670 -0.692512 54 34 18
-0.415774 0.105855 1.864215 0.812449 -0.167787 -0.558368 34 23 16
-0.409105 0.106258 1.873939 0.711975 -0.178131 -0.679235 19 15 14
-0.402010 0.106568 1.882076 0.450810 -0.279290 -0.847801 18 14 13
-0.393567 0.106520 1.884018 0.246995 -0.400787 -0.882249 18 14 13
-0.384841 0.106397 1.884649 0.147175 -0.487230 -0.860783 24 19 15
-0.376509 0.106391 1.887324 0.199622 -0.444958 -0.873020 17 13 12
-0.533150 0.115700 1.846380 -0.311182 -0.203157 -0.928382 69 46 24
-0.523553 0.115334 1.843075 -0.304466 -0.113001 -0.945796 19 15 13
-0.513801 0.114926 1.839098 -0.373011 -0.114919 -0.920683 31 20 17
-0.504527 0.114622 1.836740 -0.347260 -0.185758 -0.919187 49 30 21
-0.494989 0.114250 1.833313 -0.387027 -0.132535 -0.912493 30 20 16
-0.484532 0.113649 1.826255 -0.119047 -0.152143 -0.981163 31 21 19
-0.477054 0.113764 1.830518 0.362443 -0.228466 -0.903570 31 21 20
-0.469513 0.113873 1.834689 0.305159 -0.349947 -0.885672 118 81 37
-0.460895 0.113718 1.834680 0.138156 -0.325159 -0.935513 109 82 46
-0.452893 0.113721 1.837204 0.378171 -0.339798 -0.861118 101 78 46
-0.445158 0.113802 1.840947 0.414249 -0.236689 -0.878849 96 57 27
-0.437393 0.113883 1.844721 0.364811 -0.197779 -0.909833 58 30 18
-0.429404 0.113912 1.847672 0.525451 -0.058569 -0.848805 80 49 22
-0.422597 0.114278 1.856022 0.759619 0.025742 -0.649858 25 17 14
-0.415770 0.114660 1.864646 0.803930 0.028631 -0.594034 27 19 14
-0.400838 0.115114 1.876982 0.318964 -0.530596 -0.785321 23 18 15
-0.392461 0.115090 1.879138 0.234880 -0.509246 -0.827949 25 17 14
-0.384015 0.115050 1.881050 0.184277 -0.416363 -0.890328 18 15 13
-0.523490 0.124016 1.843142 -0.145066 -0.079049 -0.986259 23 17 15
-0.514716 0.123831 1.842706 -0.307997 0.078548 -0.948139 52 26 14
-0.503700 0.123083 1.834001 -0.400856 0.096819 -0.911011 54 29 16
-0.494328 0.122735 1.831154 -0.330026 0.164443 -0.929538 26 19 16
-0.484816 0.122344 1.827667 0.079274 0.266292 -0.960627 30 22 20
-0.476812 0.122342 1.829916 0.075239 0.237652 -0.968432 84 41 23
-0.468301 0.122210 1.830243 0.280776 -0.172415 -0.944160 120 70 27
-0.460618 0.122306 1.833925 0.281061 0.020896 -0.959462 109 57 17
-0.452159 0.122194 1.834557 0.330117 0.054170 -0.942385 116 88 44
-0.445139 0.122492 1.841259 0.521020 0.106398 -0.846887 111 89 49
-0.437108 0.122515 1.843904 0.387466 0.143478 -0.910651 105 62 28
-0.429750 0.122744 1.849599 0.714450 0.308133 -0.628184 93 59 22
-0.399674 0.123616 1.871920 0.079819 -0.467566 -0.880347 22 17 14
-0.391170 0.123554 1.873343 0.372381 -0.450406 -0.811460 26 18 15
-0.383231 0.123685 1.877665 0.376583 -0.315895 -0.870859 21 17 13
-0.514011 0.132346 1.840455 -0.101153 -0.149139 -0.983629 42 24 15
-0.505067 0.132111 1.839347 -0.212056 0.221163 -0.951903 102 68 30
-0.495231 0.131629 1.834854 -0.194476 0.523295 -0.829663 60 35 19
-0.486171 0.131352 1.833167 -0.023322 0.568857 -0.822106 96 66 31
-0.477881 0.131288 1.834409 -0.062665 0.569077 -0.819893 77 46 27
-0.468446 0.130898 1.831166 0.190797 0.426910 -0.883937 72 38 16
-0.461339 0.131181 1.837197 0.220585 0.435153 -0.872917 104 54 17
-0.452811 0.131057 1.837615 0.398280 0.403320 -0.823836 81 49 24
-0.445949 0.131439 1.845048 0.393953 0.295244 -0.870421 120 89 44
-0.437500 0.131352 1.845984 0.585907 0.458329 -0.668316 110 81 37
-0.433227 0.132584 1.865221 0.728361 0.635866 -0.255274 89 56 23
-0.398882 0.132200 1.868628 -0.032896 -0.038676 -0.998710 23 18 14
-0.390041 0.132023 1.868344 0.381861 -0.185976 -0.905315 23 18 14
-0.383176 0.132551 1.877910 0.794877 0.112433 -0.596263 24 19 15
-0.505110 0.140812 1.839812 0.175742 0.117605 -0.977386 68 39 26
-0.497189 0.140868 1.842517 0.096416 0.368939 -0.924440 91 54 23
-0.488700 0.140762 1.843148 0.048522 0.611301 -0.789910 131 92 39
-0.479678 0.140497 1.841736 -0.051145 0.649460 -0.758674 90 44 16
-0.470800 0.140273 1.840842 0.029494 0.627551 -0.778016 75 44 20
-0.462210 0.140137 1.841077 0.071456 0.488694 -0.869524 48 27 14
-0.453958 0.140108 1.842715 0.421859 0.359987 -0.832132 84 38 18
-0.446170 0.140235 1.846365 0.546501 0.326151 -0.771338 42 23 16
-0.440447 0.141053 1.859012 0.873501 0.374502 -0.311038 38 25 18
-0.436730 0.142584 1.880960 0.880154 0.334935 -0.336373 21 17 16
-0.429895 0.143114 1.889915 0.653897 0.551559 -0.517882 19 17 18
-0.390482 0.141032 1.870999 0.683571 0.496670 -0.534836 23 16 13
-0.387027 0.142912 1.897670 0.784272 0.556455 -0.274365 27 20 16
-0.497675 0.149727 1.844658 0.295702 0.365755 -0.882487 42 25 18
-0.490412 0.150013 1.850016 0.172972 0.479521 -0.860314 57 33 17
-0.481733 0.149862 1.850068 -0.072639 0.466860 -0.881343 115 80 32
-0.472637 0.149576 1.848473 -0.079073 0.536136 -0.840420 69 37 15
-0.446797 0.149185 1.849390 0.757336 0.226576 -0.612458 24 19 16
-0.440766 0.149961 1.860784 0.966758 -0.061556 -0.248174 39 27 18
-0.436856 0.151532 1.881936 0.949052 -0.094449 -0.300632 28 20 17
-0.432001 0.152828 1.899763 0.810219 -0.051616 -0.583850 16 12 13
-0.423956 0.152998 1.903808 0.262199 -0.404475 -0.876157 22 17 14
-0.395015 0.151691 1.893623 0.768381 0.542974 -0.338778 22 14 12
-0.388171 0.152367 1.903918 0.737685 0.432083 -0.518773 25 20 16
-0.482077 0.158731 1.851750 -0.078040 0.182860 -0.980037 25 20 18
-0.434250 0.159459 1.870961 0.852730 -0.498116 -0.157263 22 17 15
-0.421637 0.161105 1.893683 0.122417 -0.788222 -0.603092 18 14 13
-0.412619 0.160900 1.893155 -0.054571 -0.773298 -0.631689 18 14 13
