ply
format ascii 1.0
element vertex 339
property float x
property float y
property float z
property float nx
property float ny
property float nz
property uchar red
property uchar green
property uchar blue
end_header
-0.048777 0.083457 1.904205 0.016125 -0.991555 -0.128678 64 46 25
-0.047619 0.089962 1.854231 0.021043 -0.958989 -0.282660 21 11 8
-0.038920 0.089887 1.855898 0.004878 -0.964592 -0.263701 20 10 7
-0.012771 0.091726 1.903062 0.164620 -0.982235 -0.090083 60 31 14
0.005051 0.090868 1.892097 0.138597 -0.969483 -0.202220 21 16 13
-0.055670 0.097711 1.833149 -0.018607 -0.903545 -0.428090 44 30 16
-0.047040 0.097542 1.832896 -0.010930 -0.911677 -0.410762 31 22 15
-0.038436 0.097458 1.834197 0.012930 -0.923546 -0.383270 44 31 21
-0.029797 0.097254 1.833304 -0.014319 -0.913820 -0.405867 50 32 21
-0.021195 0.097330 1.837593 0.222592 -0.924923 -0.308173 72 64 45
-0.012551 0.097394 1.841669 0.272161 -0.922601 -0.273379 85 68 43
-0.003814 0.098231 1.860162 0.169528 -0.958529 -0.229092 100 66 29
0.004923 0.097958 1.858018 0.208464 -0.935333 -0.285822 74 44 19
0.013850 0.098528 1.871603 0.347222 -0.889598 -0.296735 64 48 28
0.022723 0.098555 1.875067 0.248952 -0.869611 -0.426380 37 24 18
-0.055156 0.105476 1.818342 -0.023282 -0.779578 -0.625872 25 17 14
-0.046607 0.105341 1.818669 -0.043511 -0.829798 -0.556365 40 26 17
-0.038031 0.105117 1.817471 -0.019963 -0.812968 -0.581966 56 45 30
-0.029492 0.105038 1.818743 -0.034049 -0.853011 -0.520782 60 33 13
-0.020925 0.104796 1.817240 0.230705 -0.819440 -0.524684 48 29 13
-0.012382 0.105247 1.827564 0.358719 -0.799047 -0.482540 49 33 19
-0.003764 0.105347 1.831913 0.333173 -0.838316 -0.431533 70 37 12
0.004919 0.105606 1.839005 0.297262 -0.872579 -0.387611 90 55 21
0.013697 0.105977 1.848047 0.480541 -0.803583 -0.351190 39 21 12
0.022593 0.106451 1.858886 0.369527 -0.824225 -0.429073 52 32 14
0.031494 0.106671 1.865368 0.204765 -0.835181 -0.510435 26 19 16
0.040277 0.106514 1.865388 0.259516 -0.772266 -0.579876 28 20 16
0.049249 0.106693 1.871199 0.431401 -0.713109 -0.552602 26 18 13
-0.063341 0.113713 1.810741 -0.122028 -0.708212 -0.695374 38 24 16
-0.054794 0.113490 1.809636 -0.059384 -0.719453 -0.691997 65 42 20
-0.046281 0.113344 1.809749 -0.027389 -0.726165 -0.686975 54 37 20
-0.037762 0.113180 1.809557 -0.053199 -0.705649 -0.706562 46 42 35
-0.029236 0.112966 1.808604 -0.017456 -0.700486 -0.713453 64 49 33
-0.020726 0.112834 1.808931 0.299797 -0.668512 -0.680598 67 52 30
-0.012219 0.113177 1.816754 0.474945 -0.683676 -0.554089 62 37 14
-0.003648 0.113329 1.821590 0.318568 -0.716596 -0.620487 76 51 26
0.004960 0.113421 1.825482 0.340267 -0.753601 -0.562409 65 33 12
0.013649 0.113716 1.832603 0.550127 -0.720269 -0.422579 82 47 19
0.022523 0.114410 1.846092 0.548571 -0.685093 -0.479289 42 25 15
0.031357 0.114642 1.852268 0.268157 -0.752397 -0.601657 19 15 14
0.040138 0.114619 1.854391 0.294110 -0.729413 -0.617621 22 17 14
0.049070 0.114848 1.860536 0.491373 -0.618207 -0.613493 20 12 11
0.058118 0.115171 1.868205 0.432774 -0.593346 -0.678710 41 27 18
-0.071498 0.121961 1.804331 -0.161187 -0.604260 -0.780313 47 33 22
-0.062962 0.121702 1.802768 -0.179128 -0.660252 -0.729370 58 43 25
-0.054445 0.121458 1.801419 -0.071436 -0.705431 -0.705169 66 49 31
-0.045970 0.121314 1.801532 -0.010006 -0.711717 -0.702395 70 52 27
-0.037491 0.121161 1.801524 0.004933 -0.690682 -0.723142 56 47 34
-0.029018 0.121048 1.802094 0.070876 -0.634276 -0.769851 62 47 32
-0.020538 0.120918 1.802421 0.201258 -0.575129 -0.792920 53 26 10
-0.012057 0.121044 1.806495 0.466058 -0.587090 -0.661903 49 34 21
-0.003525 0.121369 1.813525 0.397368 -0.633410 -0.663996 64 39 18
0.005047 0.121482 1.817446 0.267984 -0.657435 -0.704247 74 38 14
0.013640 0.121512 1.820149 0.467309 -0.685579 -0.558214 52 22 9
0.022482 0.122365 1.835008 0.627890 -0.660464 -0.411755 49 29 12
0.031343 0.122856 1.844565 0.358429 -0.698507 -0.619368 21 17 16
0.040062 0.122778 1.845713 0.382780 -0.622717 -0.682424 42 29 19
0.049025 0.123183 1.854020 0.566855 -0.503181 -0.652292 20 16 13
0.058060 0.123572 1.862114 0.434134 -0.530570 -0.728027 24 17 14
0.066931 0.123574 1.864480 0.352051 -0.493217 -0.795485 18 14 12
-0.071187 0.130107 1.799406 -0.330118 -0.511226 -0.793518 40 28 17
-0.062593 0.129640 1.795102 -0.283775 -0.522443 -0.804068 49 30 13
-0.054106 0.129372 1.793509 -0.156636 -0.594023 -0.789051 22 14 12
-0.045666 0.129227 1.793592 -0.008693 -0.660525 -0.750754 31 18 13
-0.037225 0.129082 1.793675 0.027236 -0.672856 -0.739272 57 38 21
-0.028792 0.128997 1.794581 0.148540 -0.666744 -0.730335 70 51 31
-0.020358 0.129039 1.797223 0.299670 -0.570666 -0.764551 79 70 51
-0.011901 0.129186 1.801327 0.405585 -0.503626 -0.762799 60 43 23
-0.003397 0.129450 1.807046 0.425978 -0.570058 -0.702550 57 33 14
0.005143 0.129559 1.810632 0.242476 -0.618055 -0.747806 53 28 12
0.013699 0.129567 1.812847 0.343538 -0.639813 -0.687475 47 25 11
0.022358 0.129899 1.819540 0.628840 -0.614088 -0.476923 37 22 13
0.031245 0.130740 1.833269 0.516297 -0.680592 -0.519838 36 26 17
0.040020 0.130950 1.838316 0.531293 -0.574299 -0.622823 18 13 12
0.049020 0.131549 1.848755 0.587336 -0.406181 -0.700038 16 12 10
0.057973 0.131865 1.855294 0.450826 -0.536755 -0.713197 27 18 13
0.066898 0.132024 1.859670 0.432611 -0.542376 -0.720192 17 13 12
0.076015 0.132412 1.867244 0.553293 -0.532837 -0.640274 17 13 14
-0.070913 0.138294 1.795580 -0.399871 -0.341514 -0.850571 18 14 11
-0.062356 0.137859 1.791946 -0.361040 -0.342250 -0.867476 23 16 13
-0.053811 0.137354 1.787399 -0.227959 -0.389157 -0.892520 29 20 14
-0.045393 0.137186 1.787177 -0.066478 -0.445086 -0.893017 23 13 10
-0.036981 0.137038 1.787200 0.000028 -0.538713 -0.842489 28 22 16
-0.028573 0.136929 1.787740 0.157805 -0.577140 -0.801253 43 24 14
-0.020171 0.136993 1.790504 0.361500 -0.574712 -0.734182 78 65 41
-0.011745 0.137327 1.796740 0.355223 -0.583680 -0.730160 47 31 16
-0.003272 0.137411 1.799777 0.358399 -0.632298 -0.686840 65 41 16
0.005244 0.137622 1.804459 0.254619 -0.638711 -0.726097 48 29 15
0.013755 0.137549 1.805487 0.253017 -0.631054 -0.733316 29 18 11
0.022357 0.137813 1.810869 0.573389 -0.605867 -0.551498 20 15 12
0.031196 0.138689 1.824200 0.596186 -0.621589 -0.508123 33 19 11
0.039952 0.138986 1.830039 0.634192 -0.554190 -0.539142 46 27 14
0.049088 0.140043 1.845775 0.604092 -0.409229 -0.683816 18 14 13
0.057916 0.140159 1.849298 0.352602 -0.479445 -0.803619 18 12 11
0.066777 0.140271 1.852791 0.405957 -0.546382 -0.732574 17 13 11
0.075798 0.140591 1.858994 0.516705 -0.558948 -0.648532 12 10 8
0.084947 0.141010 1.866506 0.535645 -0.572871 -0.620405 19 14 11
-0.070659 0.146493 1.792302 -0.376770 -0.199508 -0.904567 44 27 14
-0.062143 0.146117 1.789583 -0.364948 -0.190968 -0.911232 69 43 19
-0.053643 0.145709 1.786468 -0.248802 -0.076067 -0.965563 62 33 14
-0.045171 0.145296 1.783293 -0.152577 -0.097053 -0.983515 66 42 18
-0.036779 0.145171 1.783589 -0.038843 -0.208562 -0.977237 37 27 17
-0.028376 0.144972 1.783002 0.095113 -0.296132 -0.950400 21 13 11
-0.019995 0.145033 1.785553 0.293254 -0.412979 -0.862236 33 18 13
-0.011589 0.145220 1.789656 0.283174 -0.564767 -0.775146 27 18 14
-0.003154 0.145217 1.791445 0.267009 -0.651750 -0.709879 68 42 18
0.005325 0.145459 1.796218 0.325603 -0.676663 -0.660386 64 42 18
0.013828 0.145565 1.799346 0.236751 -0.649413 -0.722642 20 13 11
0.022361 0.145672 1.802505 0.464635 -0.629353 -0.622920 13 12 10
0.031089 0.146356 1.812697 0.624780 -0.610292 -0.487025 49 30 19
0.039870 0.146908 1.821306 0.692810 -0.525504 -0.493822 34 22 15
0.049045 0.148235 1.839416 0.643604 -0.518917 -0.562583 14 12 12
0.057902 0.148493 1.844461 0.346950 -0.554511 -0.756402 19 15 14
0.066707 0.148558 1.847162 0.334995 -0.531770 -0.777816 19 13 13
0.075665 0.148841 1.852541 0.477058 -0.562522 -0.675266 16 12 11
0.084743 0.149230 1.859230 0.629496 -0.510260 -0.585977 11 10 8
-0.079104 0.155445 1.796222 -0.495786 0.034334 -0.867766 58 33 12
-0.070481 0.154860 1.791280 -0.382986 0.018598 -0.923567 73 52 27
-0.061936 0.154373 1.787434 -0.297727 0.010452 -0.954594 59 43 27
-0.053512 0.154193 1.787091 -0.153722 -0.063938 -0.986043 54 28 10
-0.045053 0.153842 1.784799 -0.204774 0.015794 -0.978682 70 44 21
-0.036635 0.153609 1.783847 -0.075463 0.026461 -0.996797 26 16 12
-0.028224 0.153355 1.782651 -0.026618 0.038743 -0.998895 19 13 12
-0.019834 0.153285 1.783557 0.090386 -0.182652 -0.979014 25 15 13
-0.011435 0.153240 1.784767 0.165178 -0.367374 -0.915288 15 11 11
-0.003027 0.153153 1.785489 0.139425 -0.489206 -0.860952 46 29 14
0.005408 0.153252 1.788343 0.302310 -0.590318 -0.748420 66 36 14
0.013883 0.153421 1.792020 0.272261 -0.638051 -0.720253 65 38 15
0.022378 0.153523 1.794934 0.341169 -0.658590 -0.670718 50 36 22
0.030998 0.153982 1.801959 0.634001 -0.598881 -0.489268 49 35 19
0.039836 0.154903 1.814343 0.725084 -0.498592 -0.475035 47 33 15
0.048940 0.156209 1.831201 0.649784 -0.577796 -0.493895 31 22 15
0.057776 0.156531 1.836702 0.412739 -0.641513 -0.646612 30 19 14
0.066648 0.156817 1.841808 0.306974 -0.612755 -0.728216 18 13 12
0.075476 0.156932 1.844934 0.379254 -0.628320 -0.679250 23 18 15
0.084499 0.157320 1.851227 0.658885 -0.563214 -0.498659 17 13 14
0.094639 0.159310 1.876150 0.836701 -0.455497 -0.304061 16 12 11
-0.078996 0.164009 1.797148 -0.493808 0.139832 -0.858254 69 52 24
-0.070367 0.163398 1.792176 -0.347694 0.111863 -0.930911 60 40 19
-0.061886 0.163115 1.790737 -0.383905 0.153525 -0.910520 70 45 20
-0.053324 0.162466 1.785339 -0.274471 -0.009424 -0.961549 48 26 9
-0.044895 0.162215 1.784235 -0.194217 -0.171733 -0.965809 48 29 14
-0.036480 0.161986 1.783374 -0.020650 -0.265235 -0.963963 27 14 12
-0.028085 0.161867 1.783701 -0.094261 -0.197256 -0.975810 20 11 9
-0.019671 0.161470 1.781013 -0.084885 -0.364788 -0.927213 17 12 10
-0.011283 0.161443 1.782345 0.047365 -0.377328 -0.924868 17 10 11
-0.002892 0.161209 1.781423 0.048615 -0.431855 -0.900632 44 24 11
0.005517 0.161243 1.783425 0.225537 -0.488542 -0.842888 64 44 24
0.013951 0.161310 1.785791 0.225229 -0.561972 -0.795902 40 25 13
0.022408 0.161377 1.788158 0.258690 -0.608181 -0.750464 49 39 24
0.030903 0.161502 1.791163 0.600262 -0.556939 -0.574025 71 53 28
0.039796 0.162820 1.807229 0.726089 -0.485970 -0.486443 72 43 16
0.048686 0.163701 1.818544 0.656318 -0.589688 -0.470654 57 39 20
0.057626 0.164442 1.828337 0.498055 -0.647337 -0.576971 28 19 13
0.066493 0.164823 1.834203 0.345802 -0.642068 -0.684230 23 16 13
0.075267 0.164918 1.836934 0.282128 -0.659353 -0.696892 20 15 13
0.084181 0.165208 1.841825 0.527205 -0.654800 -0.541565 11 10 9
0.093750 0.166472 1.857430 0.724385 -0.597918 -0.343164 14 11 10
-0.078919 0.172661 1.798865 -0.561822 0.051095 -0.825679 66 54 33
-0.070271 0.171997 1.793589 -0.417699 0.046990 -0.907369 58 51 35
-0.061754 0.171613 1.791176 -0.327863 -0.011057 -0.944660 59 40 19
-0.053188 0.170936 1.785748 -0.495554 0.056073 -0.866765 58 36 14
-0.044665 0.170218 1.779895 -0.243894 -0.182734 -0.952431 67 45 22
-0.036287 0.170104 1.780252 -0.081445 -0.350505 -0.933013 64 47 27
-0.027896 0.169895 1.779635 -0.164546 -0.403526 -0.900051 58 41 24
-0.019506 0.169592 1.778044 -0.108965 -0.371093 -0.922180 17 9 10
-0.011130 0.169448 1.778097 -0.011140 -0.441263 -0.897309 51 32 16
-0.002754 0.169310 1.778211 0.058365 -0.442980 -0.894630 46 36 24
0.005631 0.169240 1.779025 0.144065 -0.463956 -0.874065 77 62 36
0.014037 0.169263 1.780813 0.171920 -0.497750 -0.850111 78 62 37
0.022447 0.169219 1.781901 0.246244 -0.497760 -0.831624 71 47 23
0.030923 0.169394 1.785271 0.600549 -0.435654 -0.670483 70 45 18
0.039765 0.170704 1.800452 0.726447 -0.429945 -0.536118 52 29 15
0.048533 0.171374 1.808996 0.616261 -0.569474 -0.543987 22 12 10
0.057459 0.172235 1.819549 0.560123 -0.643556 -0.521630 43 25 13
0.066336 0.172759 1.826601 0.412165 -0.662186 -0.625803 14 10 9
0.075118 0.172952 1.830214 0.241471 -0.650255 -0.720320 14 10 9
0.083879 0.173042 1.832761 0.364764 -0.675736 -0.640569 12 9 10
0.092962 0.173633 1.840543 0.549636 -0.689945 -0.471038 17 13 12
-0.078812 0.181255 1.799820 -0.650223 -0.180953 -0.737879 65 52 36
-0.070085 0.180342 1.792354 -0.410836 -0.117618 -0.904091 65 56 37
-0.061554 0.179875 1.789240 -0.227040 -0.015334 -0.973765 70 53 30
-0.053096 0.179600 1.788015 -0.432554 0.095941 -0.896489 50 43 33
-0.044553 0.178809 1.781705 -0.513034 0.082623 -0.854383 59 44 24
-0.036068 0.178006 1.775275 -0.281046 -0.199124 -0.938809 57 41 22
-0.027713 0.177937 1.776058 -0.113158 -0.317357 -0.941530 42 25 13
-0.019339 0.177642 1.774620 -0.136484 -0.378214 -0.915602 35 20 10
-0.010978 0.177391 1.773607 -0.092036 -0.441620 -0.892469 20 11 10
-0.002623 0.177245 1.773630 0.037851 -0.479328 -0.876819 31 22 16
0.005744 0.177210 1.774748 0.134327 -0.466065 -0.874494 74 45 17
0.014123 0.177184 1.775957 0.186879 -0.437243 -0.879713 40 22 8
0.022531 0.177246 1.778049 0.271533 -0.410826 -0.870340 47 30 17
0.030995 0.177463 1.781663 0.597796 -0.357395 -0.717572 68 41 17
0.039761 0.178624 1.794650 0.665489 -0.454568 -0.592023 43 25 13
0.048464 0.179216 1.802006 0.519848 -0.617697 -0.590092 33 21 16
0.057221 0.179763 1.808936 0.552124 -0.643625 -0.530006 37 23 12
0.066083 0.180401 1.816779 0.507005 -0.631870 -0.586248 33 22 15
0.074940 0.180866 1.822917 0.298763 -0.632362 -0.714744 22 15 11
0.083638 0.180915 1.824916 0.282608 -0.628335 -0.724795 16 12 12
0.092501 0.181216 1.829441 0.413235 -0.651952 -0.635764 15 11 10
-0.078455 0.189157 1.794201 -0.424727 -0.346124 -0.836544 48 26 10
-0.069907 0.188701 1.791332 -0.224486 -0.301688 -0.926601 42 22 9
-0.061439 0.188440 1.790288 -0.161384 -0.165446 -0.972925 71 56 31
-0.052973 0.188150 1.788971 -0.316879 -0.132235 -0.939203 65 47 24
-0.044431 0.187364 1.782998 -0.554697 -0.025411 -0.831665 52 40 22
-0.035937 0.186517 1.776446 -0.426012 0.008374 -0.904679 49 25 11
-0.027539 0.186054 1.773486 -0.263431 -0.193485 -0.945075 37 21 11
-0.019174 0.185694 1.771500 -0.244211 -0.280445 -0.928284 13 11 12
-0.010827 0.185358 1.769727 -0.088227 -0.302481 -0.949063 14 9 8
-0.002490 0.185180 1.769445 -0.040739 -0.377640 -0.925056 20 15 12
0.005855 0.185122 1.770290 0.168857 -0.473398 -0.864512 30 15 13
0.014231 0.185221 1.772625 0.232655 -0.428177 -0.873233 39 21 11
0.022627 0.185311 1.774869 0.304053 -0.357466 -0.883046 59 38 20
0.031065 0.185490 1.777965 0.547649 -0.327834 -0.769809 58 28 10
0.039757 0.186498 1.788911 0.559283 -0.485032 -0.672269 47 28 16
0.048313 0.186740 1.792615 0.426268 -0.615484 -0.662929 38 20 12
0.056971 0.187167 1.798084 0.563860 -0.602669 -0.564670 68 39 17
0.065922 0.188184 1.809151 0.611672 -0.552014 -0.566690 20 13 9
0.074812 0.188830 1.816718 0.396076 -0.554116 -0.732174 23 19 16
0.083483 0.188888 1.818717 0.279073 -0.543933 -0.791363 18 14 12
0.092302 0.189183 1.822968 0.420940 -0.532311 -0.734476 16 13 12
-0.078141 0.197134 1.789709 -0.257533 -0.362198 -0.895818 20 11 9
-0.069642 0.196760 1.787692 -0.139249 -0.323880 -0.935794 45 28 13
-0.061208 0.196565 1.787288 -0.185853 -0.404298 -0.895545 41 23 14
-0.052737 0.196181 1.785180 -0.311050 -0.393666 -0.865029 68 46 23
-0.044267 0.195689 1.782099 -0.443125 -0.213124 -0.870757 70 45 20
-0.035792 0.194930 1.776613 -0.401843 -0.022736 -0.915426 70 46 18
-0.027389 0.194413 1.773288 -0.359151 0.013598 -0.933180 42 20 9
-0.019013 0.193804 1.769142 -0.219859 -0.020014 -0.975326 12 10 10
-0.010677 0.193635 1.768952 -0.195958 -0.076722 -0.977606 16 11 9
-0.002354 0.193183 1.766206 -0.171908 -0.225292 -0.959005 17 11 11
0.005968 0.193018 1.766046 0.081910 -0.298518 -0.950883 14 9 8
0.014324 0.193126 1.768350 0.301747 -0.354884 -0.884876 45 28 17
0.022713 0.193293 1.771202 0.393124 -0.262161 -0.881320 56 30 11
0.031166 0.193632 1.775606 0.508432 -0.198987 -0.837795 56 29 9
0.039750 0.194310 1.783083 0.513413 -0.356083 -0.780777 60 44 26
0.048249 0.194469 1.785873 0.389503 -0.461182 -0.797244 41 30 20
0.056900 0.194990 1.791950 0.595300 -0.473236 -0.649358 54 35 17
0.065769 0.195919 1.801738 0.703065 -0.407538 -0.582762 42 23 8
0.074688 0.196746 1.810612 0.513239 -0.368116 -0.775291 17 9 9
0.083405 0.196969 1.814011 0.276461 -0.397009 -0.875187 10 8 9
0.092161 0.197205 1.817530 0.436117 -0.468084 -0.768570 14 11 8
0.101129 0.197754 1.823910 0.529464 -0.474121 -0.703475 18 14 11
-0.069432 0.204974 1.785667 -0.274130 -0.250518 -0.928490 71 49 21
-0.060911 0.204389 1.781916 -0.301035 -0.292073 -0.907784 32 19 11
-0.052488 0.204113 1.780812 -0.182735 -0.194817 -0.963667 35 19 12
-0.044059 0.203741 1.778888 -0.277104 -0.062315 -0.958817 31 18 10
-0.035646 0.203344 1.776750 -0.250274 0.129576 -0.959465 40 21 13
-0.027246 0.202867 1.773912 -0.349309 0.143562 -0.925945 26 15 10
-0.018872 0.202380 1.770983 -0.272564 0.120103 -0.954612 10 8 11
-0.010526 0.202076 1.769637 -0.269166 0.083006 -0.959510 14 11 9
-0.002206 0.201453 1.765522 -0.224987 0.002698 -0.974358 17 12 10
0.006106 0.201192 1.764541 0.014425 -0.041812 -0.999021 11 10 8
0.014441 0.201188 1.765780 0.324510 0.030539 -0.945389 17 13 12
0.022844 0.201521 1.769940 0.429588 0.072704 -0.900094 23 14 12
0.031323 0.202022 1.775560 0.450353 -0.013518 -0.892748 53 32 14
0.039820 0.202381 1.779963 0.452308 -0.192920 -0.870747 55 36 17
0.048336 0.202659 1.783666 0.379053 -0.230024 -0.896330 50 34 20
0.056875 0.202898 1.787034 0.544901 -0.264093 -0.795825 70 54 29
0.065685 0.203773 1.795939 0.771579 -0.152139 -0.617673 43 26 11
0.074769 0.205100 1.808797 0.574490 -0.151926 -0.804288 14 10 9
0.083494 0.205374 1.812499 0.220288 -0.317585 -0.922287 13 10 11
0.092079 0.205295 1.813129 0.238695 -0.457975 -0.856320 12 11 9
0.100954 0.205739 1.818321 0.469034 -0.536293 -0.701710 14 10 9
-0.069289 0.213419 1.785680 -0.410158 0.069492 -0.909363 23 13 11
-0.060745 0.212724 1.781169 -0.235763 0.070902 -0.969221 18 14 11
-0.052340 0.212520 1.780705 -0.056871 0.267704 -0.961822 13 9 8
-0.043922 0.212212 1.779389 -0.166529 0.235295 -0.957551 34 19 10
-0.035517 0.211905 1.778072 -0.210630 0.196595 -0.957594 10 9 7
-0.027123 0.211595 1.776726 -0.349882 0.150839 -0.924570 12 10 10
-0.018727 0.210866 1.771912 -0.311046 0.130571 -0.941383 28 21 15
-0.010375 0.210457 1.769744 -0.307350 0.111832 -0.945002 29 18 12
-0.002050 0.209887 1.766238 -0.283351 0.091817 -0.954611 12 10 10
0.006267 0.209637 1.765378 0.135858 0.214200 -0.967296 14 12 10
0.014665 0.210111 1.770542 0.402418 0.387350 -0.829470 13 11 10
0.023056 0.210236 1.772815 0.327662 0.385522 -0.862561 32 18 9
0.031477 0.210402 1.775423 0.236962 0.311370 -0.920270 50 26 9
0.039942 0.210644 1.778669 0.381828 0.212791 -0.899404 36 21 11
0.048431 0.210859 1.781703 0.312467 0.091334 -0.945527 41 23 9
0.057000 0.211235 1.786074 0.629547 0.171486 -0.757802 38 25 12
0.066002 0.212691 1.799478 0.716980 0.297169 -0.630579 10 8 7
0.074927 0.213636 1.808624 0.295441 -0.073408 -0.952537 8 6 7
0.083450 0.213466 1.808463 0.054717 -0.336459 -0.940107 9 7 8
0.092008 0.213372 1.808941 0.048824 -0.431785 -0.900654 16 11 9
0.100572 0.213279 1.809419 0.318659 -0.346528 -0.882255 18 13 11
-0.069172 0.221966 1.786484 -0.386884 0.391091 -0.835086 53 36 21
-0.060669 0.221453 1.783586 -0.151197 0.271809 -0.950400 57 33 13
-0.052297 0.221495 1.785099 -0.003510 0.170118 -0.985417 28 19 11
-0.043860 0.221196 1.783905 -0.095711 0.301636 -0.948607 28 16 11
-0.035420 0.220779 1.781767 -0.337636 0.355988 -0.871363 10 8 9
-0.026979 0.220061 1.777227 -0.365529 0.213830 -0.905906 18 13 11
-0.018578 0.219283 1.772200 -0.328778 0.221917 -0.917964 30 20 14
-0.010224 0.219051 1.771523 -0.145770 0.413624 -0.898702 32 19 10
-0.001893 0.218384 1.767379 -0.169545 0.398780 -0.901237 13 11 9
0.006451 0.218377 1.768497 0.308913 0.531989 -0.788391 19 13 10
0.014895 0.219134 1.775727 0.432004 0.575847 -0.694098 25 20 15
0.023367 0.219620 1.780798 0.195461 0.650279 -0.734120 17 9 7
0.031747 0.219383 1.780090 0.202668 0.647027 -0.735039 37 19 10
0.040299 0.219914 1.785526 0.111971 0.602306 -0.790374 22 12 10
0.048678 0.219608 1.784271 0.313616 0.556806 -0.769163 17 8 7
0.057602 0.221108 1.797491 0.682929 0.392609 -0.616008 8 6 7
0.066428 0.221961 1.805541 0.434480 -0.015780 -0.900543 13 9 8
0.074951 0.221824 1.805654 -0.018192 -0.352299 -0.935711 5 3 4
0.083458 0.221647 1.805432 -0.019355 -0.344578 -0.938558 8 6 7
0.091975 0.221495 1.805423 0.156182 -0.249569 -0.955679 12 9 8
0.101044 0.222443 1.814263 0.640088 0.332996 -0.692388 9 7 8
-0.069377 0.231803 1.797082 -0.504622 0.685979 -0.524204 48 26 12
-0.060644 0.230445 1.787827 -0.328843 0.635803 -0.698296 44 25 12
-0.052145 0.229906 1.784839 -0.153644 0.434389 -0.887525 39 19 7
-0.043714 0.229646 1.783979 0.019454 0.227686 -0.973540 60 34 12
-0.035329 0.229746 1.785887 -0.183148 0.438017 -0.880113 37 23 11
-0.026844 0.228670 1.778762 -0.352832 0.409590 -0.841276 38 22 13
-0.018450 0.228319 1.777203 -0.110476 0.476013 -0.872472 13 7 7
-0.010070 0.228261 1.777894 0.061737 0.575086 -0.815760 21 12 7
-0.001686 0.228128 1.778008 0.020431 0.710242 -0.703661 39 26 16
0.006696 0.227944 1.777726 0.318791 0.692655 -0.646994 43 26 11
0.015216 0.228999 1.786993 0.426509 0.672903 -0.604394 50 29 11
0.023729 0.229414 1.791333 0.164984 0.752184 -0.637966 37 20 7
0.032275 0.229784 1.795338 0.067208 0.741728 -0.667325 21 14 10
0.040691 0.229401 1.793536 0.018316 0.677904 -0.734922 25 14 11
0.049254 0.229645 1.796568 0.372684 0.674118 -0.637708 8 6 7
0.066476 0.230154 1.802814 0.214041 -0.336037 -0.917205 10 9 7
0.074953 0.229928 1.802228 -0.027010 -0.389204 -0.920755 10 9 7
0.083469 0.229808 1.802463 -0.006244 -0.357790 -0.933781 7 5 6
-0.069838 0.242806 1.815522 -0.526204 0.724383 -0.445397 57 32 15
-0.060887 0.240777 1.801646 -0.403753 0.746134 -0.529404 22 12 11
-0.052297 0.240083 1.797624 -0.326556 0.714515 -0.618732 29 20 11
-0.043681 0.238917 1.790104 -0.087460 0.614453 -0.784090 33 24 16
-0.035261 0.238985 1.791708 -0.105118 0.582072 -0.806314 32 19 12
-0.026760 0.238063 1.785983 -0.358539 0.562752 -0.744822 48 27 10
-0.018326 0.237573 1.783451 -0.034119 0.600331 -0.799024 16 10 9
-0.009915 0.237604 1.784780 0.156031 0.643803 -0.749114 17 12 9
-0.001466 0.238246 1.790640 0.079389 0.701656 -0.708080 13 9 8
0.006970 0.237969 1.789690 0.103282 0.711091 -0.695473 22 14 11
0.041098 0.239029 1.801999 0.057399 0.657781 -0.751019 9 7 8
-0.043680 0.248509 1.798082 -0.098996 0.624479 -0.774742 53 38 18
-0.035211 0.248478 1.798925 -0.177857 0.596214 -0.782877 41 26 13
-0.018208 0.247127 1.791399 -0.036068 0.639381 -0.768044 35 20 10
0.007185 0.247255 1.795508 -0.077709 0.530683 -0.844001 14 10 9
